<svg version="1.1" xmlns="http://www.w3.org/2000/svg" xmlns:xlink="http://www.w3.org/1999/xlink" width="153.60637" height="243.29038" viewBox="0,0,153.60637,243.29038"><g transform="translate(-243.1966,-28.90312)"><g stroke-miterlimit="10"><g stroke="none" stroke-width="1" stroke-linecap="round" stroke-linejoin="round"><path d="M289.9138,180.3843c0,0 8.58197,-19.84932 2.08405,-34.21186c-6.49792,-14.36254 -3.93379,-28.03649 20.78361,-28.5819c17.42247,-0.19895 20.45921,3.73375 27.35384,3.63294c6.9658,-0.10185 13.64396,-3.26493 13.64396,-3.26493c1.35376,4.04967 0.2098,7.25426 -1.00733,9.2469c-0.89987,1.47324 -4.96447,11.2668 -4.96447,11.2668c0,0 -3.75239,34.73871 5.41884,37.91205" fill="#5500ff"/><path d="M312.74347,115.84163c0.00586,-0.00003 0.01172,-0.00003 0.01758,0c8.84404,-0.10099 14.17416,0.86063 18.06836,1.83008c3.8942,0.96945 6.17032,1.84822 9.28125,1.80273c6.45255,-0.09435 12.91992,-3.09766 12.91992,-3.09766c0.45239,-0.21397 0.97474,-0.22404 1.43504,-0.02767c0.4603,0.19637 0.81453,0.58038 0.97317,1.05502c1.53575,4.59409 0.2241,8.42425 -1.17383,10.71289c-0.08086,0.13238 -0.55295,1.08146 -1.05273,2.18945c-0.49979,1.10799 -1.09051,2.46294 -1.65235,3.77344c-1.06783,2.49072 -1.93765,4.58523 -2.03125,4.81055c-0.03761,0.3546 -0.90177,8.56336 -0.70117,17.30859c0.10248,4.46767 0.49801,9.01432 1.37891,12.49219c0.88089,3.47786 2.26625,5.58041 3.59179,6.03906c0.43883,0.15167 0.79939,0.4715 1.00233,0.8891c0.20294,0.4176 0.23161,0.89872 0.0797,1.33746c-0.15167,0.43882 -0.4715,0.79939 -0.8891,1.00233c-0.4176,0.20294 -0.89872,0.23161 -1.33746,0.0797c-3.26006,-1.12802 -4.8449,-4.56014 -5.83984,-8.48828c-0.99494,-3.92814 -1.3805,-8.65782 -1.48633,-13.27149c-0.21166,-9.22733 0.74023,-17.99414 0.74023,-17.99414c0.01763,-0.16651 0.05907,-0.32963 0.12305,-0.48437c0,0 1.01877,-2.45553 2.15234,-5.09961c0.56679,-1.32204 1.16232,-2.69134 1.67774,-3.83398c0.51541,-1.14264 0.88874,-1.96998 1.25781,-2.57422c0.84569,-1.38453 1.58375,-3.38935 1.21485,-5.97266c-2.19656,0.91481 -6.59112,2.5684 -12.33204,2.65234c-3.78369,0.05532 -6.47429,-0.98234 -10.17773,-1.9043c-3.70136,-0.92144 -8.60044,-1.8253 -17.16992,-1.72852c-12.03316,0.26671 -18.07707,3.64515 -20.59766,8.20703c-2.52105,4.56272 -1.7504,10.99182 1.37695,17.9043c6.98604,15.44143 -2.07227,35.62695 -2.07227,35.62695c-0.18413,0.42607 -0.52999,0.76154 -0.96148,0.93259c-0.43149,0.17106 -0.91325,0.16369 -1.33931,-0.02048c-0.42607,-0.18413 -0.76154,-0.52999 -0.93259,-0.96148c-0.17106,-0.43149 -0.16369,-0.91325 0.02048,-1.33931c0,0 8.1055,-19.5113 2.0957,-32.79492c-3.37056,-7.45005 -4.56783,-15.03978 -1.25195,-21.04102c3.31588,-6.00124 10.91197,-9.73193 23.5918,-10.01172z" fill="#000000"/></g><path d="M304.54857,226.31574c-1.01597,3.24253 -4.70223,4.89337 -8.0686,3.91561c-1.541,-0.44758 -2.11263,-2.44645 -3.2226,-3.60531c-2.20882,-2.30608 -2.53409,-4.46961 -3.7636,-7.29777c-0.3151,-0.72479 -1.10351,-1.29946 -1.1366,-2.08909c-0.0147,-0.35092 0.7171,0.12824 1.05397,0.0288c1.09048,-0.32183 2.11614,-0.87387 3.17388,-1.29087c2.8763,-1.13394 5.60321,-1.82516 8.59911,-2.58215c0,0 0.3877,-0.096 0.74472,-0.38166c1.82495,3.98999 1.76331,8.97366 2.61972,13.30242z" fill="#b200e8" stroke="none" stroke-width="0.5" stroke-linecap="butt" stroke-linejoin="miter"/><path d="M336.73865,134.99877c0.0209,0.0654 0.11079,0.0608 0.12552,0.12511c0.38563,1.68243 0.0602,3.5155 0.58945,5.15844c0.79928,2.4813 2.25588,4.354 2.41866,7.14917c0.14915,2.56127 -2.25308,4.75906 -3.35788,6.8717c-1.35859,2.59792 -2.63686,5.33385 -3.89338,7.98316c-0.28197,0.59453 -0.63118,1.17873 -0.76317,1.82336c-0.0601,0.29334 0.49081,0.77741 0.2074,0.87405c-0.39603,0.13503 -0.72933,-0.42398 -1.12455,-0.56135c-0.8146,-0.28315 -1.66749,-0.46152 -2.49825,-0.69298c-3.79039,-1.70122 -7.56317,-3.45317 -11.37311,-5.12273c-0.66032,-0.28936 -3.0947,-1.26153 -3.79695,-1.87423c-3.28026,-2.86197 -4.27155,-7.8379 -4.98505,-12.11543c0.36689,0.23527 0.83503,0.47386 1.19987,0.70745c4.10856,2.63062 8.0778,6.73204 12.58082,8.62438c2.04697,0.86022 5.48439,1.15196 7.44393,-0.15105c2.74281,-1.82385 5.7576,-8.14462 5.7618,-11.22734c0.003,-1.97265 -0.42809,-4.1899 0.6032,-5.87149c0.31733,-0.54703 0.60762,-1.11472 0.8617,-1.70022z" fill="#009fe8" stroke="none" stroke-width="0.5" stroke-linecap="butt" stroke-linejoin="miter"/><path d="M318.02046,137.40087c-1.88557,-1.02214 -2.83562,-3.16642 -3.36598,-5.22275c-0.40481,-1.56957 -0.38777,-3.3005 -0.11258,-4.8979c1.44995,-8.41664 13.83014,-7.24091 14.72448,0.73945c0.14051,1.25384 -1.19808,2.8811 -1.67799,3.66676c-1.89857,3.19458 -5.36332,6.09074 -9.3096,5.90957c-0.14463,-0.12774 -0.25834,-0.19514 -0.25834,-0.19514z" fill="#b200e8" stroke="none" stroke-width="0.5" stroke-linecap="butt" stroke-linejoin="miter"/><path d="M334.98328,170.15602c0.93952,-1.8378 1.70807,-3.70399 2.33068,-5.78458l0.11025,-0.92907c0,0 0.086,-1.14744 -0.81011,-1.65124c0.92285,-1.99284 1.90548,-3.97993 2.91011,-5.90313c1.31473,-2.51682 3.36278,-4.6233 3.71665,-7.4868c4.82289,0.9085 8.97308,3.19105 13.46909,5.12079c4.06628,1.74529 7.91226,3.77001 11.78621,5.86464c2.51662,1.36072 5.62259,2.22016 7.96567,3.8744c2.99939,2.1176 4.91385,5.91129 6.86782,8.90737c2.38103,2.85881 5.63573,5.2868 7.5534,8.50791c2.16081,3.6295 3.31737,10.4302 1.72081,14.42257c-1.37774,3.44521 -3.87089,7.10306 -5.65112,10.36759c-0.52948,0.97094 -1.08952,1.93072 -1.68952,2.85973c-0.0979,0.15161 -0.23937,0.35743 -0.37812,0.57653c-0.13684,-0.45269 -0.39341,-1.00714 -0.54719,-1.30385c-1.14145,-2.20236 -2.50981,-4.14453 -3.93828,-6.16502c-4.50655,-8.00789 -11.89054,-13.25556 -19.42057,-18.17568c-2.54413,-1.66233 -4.45377,-4.17533 -6.9606,-5.92335c-4.10676,-2.86367 -8.48153,-4.44061 -13.1615,-6.09526c-1.27995,-0.52404 -2.54782,-0.833 -3.91765,-1.02394z" fill="#d597e8" stroke="none" stroke-width="0.5" stroke-linecap="butt" stroke-linejoin="miter"/><path d="M312.14652,208.17709c-2.3995,2.02757 -4.17724,4.95455 -5.6909,7.79884c-0.42778,-1.89295 -1.02991,-3.71808 -1.91262,-5.40279l-1.11283,-0.95132c0,0 -1.39793,-0.84229 -2.30184,0.43301c-0.46555,-0.0943 -0.87344,0.005 -0.87344,0.005c-0.99054,0.25028 -1.98317,0.49885 -2.97251,0.75984c1.33447,-2.78157 2.86661,-5.50208 4.15546,-8.29485c0.26232,-0.56841 0.49721,-1.15158 0.70198,-1.73877c0.17618,0.25423 0.35783,0.50066 0.52989,0.73907c0.75034,1.03971 2.00047,1.63315 2.99339,2.44438c1.71883,1.40433 3.60402,2.48491 5.50894,3.62135z" fill="#e8dfb2" stroke="none" stroke-width="0.5" stroke-linecap="butt" stroke-linejoin="miter"/><path d="M320.04856,201.54793c-1.24311,1.98631 -3.28016,3.39662 -5.22535,4.71602c-0.21989,-0.63308 -0.8126,-0.98427 -0.8126,-0.98427l-1.08131,-0.63752c-2.50535,-1.49465 -7.24068,-3.70665 -8.61932,-6.3775c-0.0815,-0.15784 0.34692,0.11704 0.52364,0.0991c0.79432,-0.0806 1.59203,-0.20991 2.36696,-0.40208c1.28462,-0.31859 2.5133,-1.36542 3.82642,-1.19971c2.86835,0.36197 4.70155,2.94275 7.28801,3.74525z" fill="#e8dfb2" stroke="none" stroke-width="0.5" stroke-linecap="butt" stroke-linejoin="miter"/><path d="M303.84175,195.08694c0.12245,-0.36388 0.24974,-0.73178 0.39068,-1.08971c1.09211,-2.7733 2.89118,-5.38236 3.99867,-8.11482c0.0782,-0.19299 0.15664,-0.38746 0.23071,-0.58253c0.15913,0.7735 0.54219,1.55235 1.0072,2.37238c1.14221,2.01427 2.56679,4.12412 4.03172,6.11477c-0.78401,-0.22488 -1.55448,-0.36887 -2.24876,-0.4444c-1.27363,-0.13856 -3.68401,0.96788 -4.92144,1.28584c-0.60686,0.15594 -1.5561,0.24004 -2.48878,0.45846z" fill="#e8dfb2" stroke="none" stroke-width="0.5" stroke-linecap="butt" stroke-linejoin="miter"/><path d="M325.82515,182.82109c-1.12973,3.36085 -2.16516,6.81887 -3.16889,10.04478c-0.51368,1.65095 -0.81934,3.46553 -1.2655,5.19407l-0.43319,-0.34542c-2.36889,-2.90152 -4.41187,-6.0599 -6.6548,-9.03098c-0.65681,-0.87004 -1.23945,-1.81783 -1.85006,-2.72088c-0.13982,-0.20678 -1.11188,-1.33815 -0.39796,-1.75866c0.28288,-0.16663 0.62367,0.22941 0.95067,0.25865c1.20478,0.10774 2.43337,0.21075 3.64043,0.13241c3.0952,-0.20088 6.13079,-1.26657 9.17931,-1.77398z" fill="#e8dfb2" stroke="none" stroke-width="0.5" stroke-linecap="butt" stroke-linejoin="miter"/><path d="M309.57091,181.82804c0.58419,-2.02741 1.11309,-4.13344 1.77867,-6.10751c0.3267,-0.96898 0.71201,-1.93574 1.11203,-2.88342c3.78543,2.28684 7.65849,4.58832 11.45859,6.85089c-2.47672,0.54854 -4.94806,1.34187 -7.47181,1.49922c-0.77025,0.048 -5.6157,-0.5773 -6.47596,0.23298c-0.14485,0.13643 -0.27814,0.27393 -0.40152,0.40784z" fill="#e8dfb2" stroke="none" stroke-width="0.5" stroke-linecap="butt" stroke-linejoin="miter"/><path d="M313.93387,169.59032c0.93636,-1.94543 1.93602,-3.90481 2.84137,-5.83674c0,0 0.37049,-0.7857 0.0404,-1.50802c3.48123,1.5459 6.99607,3.15348 10.47644,4.70702c1.09976,0.30625 3.20242,1.04558 4.91151,1.15261c-0.48557,0.98523 -1.02809,1.97688 -1.63042,2.98364c-1.07863,2.14075 -2.07524,4.4447 -2.97099,6.78187c-4.41123,-2.63452 -8.88568,-5.32426 -13.31732,-7.92419z" fill="#e8dfb2" stroke="none" stroke-width="0.5" stroke-linecap="butt" stroke-linejoin="miter"/><path d="M319.61857,126.53034c0.85764,-0.56492 1.69545,-1.20889 2.5232,-1.85336l2.16374,-1.75824c0.47816,-0.40201 1.06341,-0.52784 1.49922,-0.26783c0.45992,0.27438 0.62079,0.89933 0.45275,1.54832l-0.41882,1.74474l-0.0309,-0.00017c-0.01,0.0714 -0.0204,0.14304 -0.0324,0.21493c-0.005,0.0299 -1.57078,3.4299 -1.62136,3.514c-0.2067,0.34365 -0.7297,0.52973 -0.77355,0.90144c-0.0498,0.42202 1.62714,1.20813 1.63469,1.2123l1.09365,0.65246c0.604,0.36034 0.69224,1.32531 0.19707,2.15533c-0.31615,0.52993 -0.79368,0.87673 -1.25484,0.96443l-1.42793,0.29503l0.003,-0.0311c-0.0491,0.0185 -0.0983,0.0361 -0.14768,0.0525c-0.77189,0.25776 -1.56701,-0.17387 -2.29442,0.27019l-0.53575,1.15499c-0.0373,0.0829 -0.0801,0.16524 -0.12842,0.24627c-0.49517,0.83002 -1.38624,1.21075 -1.99024,0.85042c-0.22981,-0.1371 -0.38495,-0.36172 -0.46171,-0.63315l-0.41944,-1.39922l0.058,-0.0381c-0.043,-0.0971 -0.0822,-0.19759 -0.11666,-0.30191c-0.13213,-0.39976 0.29867,-0.97216 0.35852,-1.45186c0.11942,-0.95731 -2.02375,1.14615 -2.48976,0.5235c-0.62292,-0.83229 -0.23554,-2.42068 -0.0768,-3.70017c0.0465,-0.37447 0.71889,-0.67356 0.66146,-1.01312c-0.0848,-0.50136 -0.6535,-0.58124 -0.98025,-0.87188l-0.015,-0.0873l-0.024,0.0215l-0.69438,-1.26908c-0.26961,-0.46199 -0.23082,-1.17226 0.14623,-1.80426c0.40332,-0.67605 1.06929,-1.05405 1.62886,-0.97631l1.75992,0.19147l-0.13257,0.42867c0.68371,0.0483 1.32692,0.20071 1.88684,0.51448z" fill="#db65ff" stroke="none" stroke-width="0.5" stroke-linecap="butt" stroke-linejoin="miter"/><path d="M310.55905,168.63389c0.007,-0.007 0.0135,-0.0135 0.0202,-0.0201c1.00605,-2.1186 2.07955,-4.2101 3.06527,-6.31354c0,0 0.33717,-0.71947 1.0419,-0.96164c-1.2928,-0.55421 -2.81751,-1.23709 -3.73742,-2.05528c-4.54717,-4.04431 -5.51821,-10.9889 -6.47163,-16.562l-0.0857,-1.65318c-0.0897,-0.35177 -0.0829,-0.77852 0.19787,-1.21504c0.15027,-0.30224 0.40642,-0.59825 0.84236,-0.75702c0.41667,-0.20408 0.80758,-0.18342 1.12956,-0.0822c0.50742,0.1 0.81931,0.38921 1.01074,0.69657c1.86859,1.93533 4.45916,3.14538 6.68424,4.66249c2.94822,2.01017 5.93508,4.93661 9.19165,6.41402c0.95493,0.43322 3.27494,0.78274 4.17496,0.12359c0.93637,-0.68576 1.25162,-1.95539 1.84539,-2.95263c0.66834,-1.12249 1.57999,-2.12485 2.035,-3.34945c0.87807,-2.3632 -0.23134,-2.89522 -0.19593,-5.61282c0.0234,-1.79766 0.7665,-2.69508 1.60088,-4.12319c0.60467,-0.97773 1.07705,-2.0733 1.32212,-3.20406c-0.48355,-0.46293 -0.93225,-0.86879 -1.24146,-1.1753c0,0 -0.30623,-0.30469 -0.463,-0.76344c-0.33738,1.30503 -1.09353,2.22009 -1.97931,3.73387c-2.80795,4.69036 -7.8269,8.15421 -13.55172,7.47039l-1.95269,-1.00018c0,0 -0.79117,-0.472 -0.88296,-1.3051c-1.40167,-1.51914 -2.30319,-3.41898 -2.84184,-5.57175c-0.84198,-3.36504 -0.69565,-3.48445 -0.1747,-6.37093c2.16825,-12.01388 21.04817,-11.20845 21.56309,1.0638c0.009,0.20885 0.0104,0.40701 0.005,0.59596c0.0729,-0.10855 0.1626,-0.218 0.27155,-0.32749c1.23432,-1.24054 2.47486,-0.006 2.47486,-0.006c0.23737,0.237 0.48897,0.48287 0.74796,0.73725c0.68313,0.17727 1.08123,0.79942 1.08123,0.79942l0.15644,0.44959c1.21166,1.27882 2.35497,2.72406 2.77798,4.30273c0.41602,1.55258 -0.0441,3.277 0.47349,4.79874c0.69879,2.05454 1.71729,3.77887 2.25916,5.80028c0.27205,-0.0215 0.4688,0.0124 0.4688,0.0124c4.74198,0.83177 8.75659,2.74177 13.09094,4.77491c4.60776,2.1614 9.14565,4.23398 13.61427,6.65705c2.63267,1.42753 5.84576,2.31191 8.28358,4.07016c3.36183,2.4247 5.48073,6.28807 7.68704,9.68972c2.48618,2.99643 5.75932,5.39565 7.75452,8.79484c2.09274,3.56536 3.2682,9.45397 2.87495,13.57877c-0.33453,3.50886 -1.99831,5.47513 -3.5737,8.39091c-1.69282,3.13313 -3.05417,6.43137 -5.03878,9.40507c-0.85784,1.28536 -2.84881,3.64487 -4.69141,3.16097c-1.01168,-0.26569 -1.00183,-1.83668 -1.48303,-2.7654c-1.34803,-2.60172 -2.83319,-5.0056 -4.52545,-7.40653c-4.30242,-7.6057 -11.2377,-12.43677 -18.36602,-17.14464c-2.56517,-1.69415 -4.45927,-4.15242 -6.9831,-5.91466c-3.87656,-2.7068 -8.00208,-4.12274 -12.42026,-5.68727c-0.95919,-0.41132 -1.98562,-0.69188 -3.02111,-0.82224l-1.91537,-0.0331c0,0 -0.78343,-0.0147 -1.292,-0.54866c-1.26811,2.61919 -1.86095,5.24321 -2.8112,7.99622c-1.47433,4.27136 -3.29024,8.43454 -4.63822,12.75769c-0.81877,2.62589 -1.08895,5.56866 -2.23442,8.08782c-1.82644,4.01673 -5.74779,6.10232 -9.02749,8.61441c-3.11743,2.38779 -4.99095,6.65395 -6.74254,10.02662c0,0 -0.21525,0.41432 -0.63738,0.70375c0.2216,1.75448 0.41441,3.50595 0.6763,5.19942c-1.64942,5.57073 -6.92921,8.91993 -12.95614,6.87452c-0.83017,-0.28174 -1.30085,-1.1771 -1.91516,-1.80254c-2.82671,-2.87798 -4.97327,-5.21071 -6.2567,-9.09046c-0.49324,-1.49105 -1.90799,-5.83456 -1.66076,-6.66369c0.32181,-1.07931 1.87944,-1.25207 2.88689,-1.75556c1.79266,-0.89593 3.65509,-1.59907 5.55172,-2.20034l-0.0908,-1.2536c1.46905,-3.24796 3.23334,-6.29587 4.72198,-9.50628c1.23546,-2.66439 1.66719,-5.67507 2.73849,-8.40118c1.10638,-2.81539 2.89447,-5.40795 4.01561,-8.17998c1.28088,-3.167 1.93768,-6.65736 3.03478,-9.89464c0.55167,-1.62783 1.21896,-3.22104 1.93924,-4.79537c-0.002,-0.36722 0.13466,-0.78092 0.54697,-1.19531zM314.33449,169.94019c4.43163,2.59993 8.83354,5.25157 13.24477,7.88609c0.89575,-2.33717 1.86735,-4.61082 2.94598,-6.75157c0.60233,-1.00676 1.14297,-1.98032 1.62854,-2.96556c-1.70909,-0.10703 -3.80777,-0.83042 -4.90753,-1.13668c-3.48038,-1.55354 -6.91533,-3.14438 -10.39656,-4.69027c0.33006,0.72232 -0.0359,1.5032 -0.0359,1.5032c-0.90535,1.93193 -1.89373,3.85534 -2.83009,5.80077zM311.12276,207.59968c-1.90493,-1.13644 -3.75165,-2.17671 -5.47048,-3.58104c-0.99292,-0.81124 -2.21923,-1.40522 -2.96957,-2.44493c-0.17205,-0.23841 -0.35186,-0.48537 -0.52804,-0.7396c-0.20477,0.5872 -0.43174,1.16713 -0.69406,1.73553c-1.28886,2.79279 -2.7957,5.45502 -4.13017,8.2366c0.98934,-0.26099 1.9817,-0.51047 2.97224,-0.76076c0,0 0.40681,-0.10279 0.87235,-0.009c0.90391,-1.27531 2.29493,-0.44544 2.29493,-0.44544l1.07485,0.93163c0.88272,1.6847 1.4707,3.51135 1.89848,5.4043c1.51367,-2.84429 3.25388,-5.71919 5.65336,-7.74676zM306.36948,194.59715c1.23744,-0.31797 3.56705,-1.42048 4.84068,-1.28192c0.69428,0.0755 1.46017,0.22824 2.24419,0.45312c-1.46492,-1.99065 -2.84368,-4.03182 -3.98588,-6.04607c-0.46501,-0.82003 -0.84059,-1.59937 -0.99972,-2.37287c-0.0741,0.19507 -0.1501,0.38915 -0.22831,0.58214c-1.10749,2.73246 -2.86883,5.27556 -3.96093,8.04886c-0.14095,0.35792 -0.2711,0.71932 -0.39354,1.0832c0.93268,-0.21841 1.87666,-0.31052 2.48352,-0.46646zM310.02139,181.41007c0.86026,-0.81028 5.63037,-0.2173 6.40062,-0.26531c2.52376,-0.15735 4.97158,-0.90501 7.44829,-1.45355c-3.8001,-2.26257 -7.60243,-4.52179 -11.38786,-6.80863c-0.40003,0.94768 -0.7708,1.90433 -1.09749,2.87331c-0.66557,1.97406 -1.18144,4.03222 -1.76563,6.05963c0.12338,-0.13392 0.25723,-0.26901 0.40208,-0.40545zM316.67515,184.63558c-1.20705,0.0783 -2.42092,-0.0415 -3.6257,-0.14924c-0.327,-0.0292 -0.66711,-0.42658 -0.94999,-0.25996c-0.71392,0.42052 0.26188,1.54186 0.4017,1.74864c0.61062,0.90305 1.19338,1.82663 1.85018,2.69666c2.24293,2.97107 4.22695,6.09241 6.59585,8.99393l0.43161,0.34578c0.44616,-1.72854 0.73435,-3.53499 1.24803,-5.18593c1.00372,-3.22591 2.02722,-6.61545 3.15695,-9.97629c-3.04853,0.50741 -6.01342,1.58553 -9.10863,1.78641zM318.26502,200.50737c-2.58647,-0.80251 -4.35974,-3.33449 -7.2281,-3.69645c-1.31311,-0.16571 -2.5081,0.85656 -3.79272,1.17514c-0.77493,0.19219 -1.56852,0.31188 -2.36285,0.39253c-0.17672,0.018 -0.60499,-0.25731 -0.52352,-0.0995c1.37864,2.67085 6.05276,4.82016 8.55812,6.31481l1.07348,0.64042c0,0 0.5905,0.35229 0.81039,0.98536c1.94517,-1.31939 3.956,-2.69161 5.19911,-4.67792zM336.89061,170.20417c1.36983,0.19094 2.73511,0.52252 4.01506,1.04655c4.67997,1.65465 9.05596,3.21814 13.16271,6.08181c2.50683,1.74802 4.39388,4.22142 6.93802,5.88375c7.53003,4.92011 14.86034,10.16713 19.36691,18.17501c1.42848,2.0205 2.84958,4.04764 3.99103,6.24999c0.15378,0.29671 0.35774,0.76612 0.49458,1.21881c0.13874,-0.21908 0.27948,-0.42447 0.37741,-0.57608c0.60001,-0.92901 1.15667,-1.88644 1.68614,-2.85738c1.78023,-3.26452 4.26203,-6.9103 5.63977,-10.3555c1.59656,-3.99238 0.43217,-10.77275 -1.72864,-14.40225c-1.91769,-3.22111 -5.17135,-5.62926 -7.55238,-8.48807c-1.95397,-2.99607 -3.85196,-6.76375 -6.85136,-8.88135c-2.34308,-1.65424 -5.42644,-2.503 -7.94304,-3.86373c-3.87395,-2.09463 -7.69352,-4.12147 -11.7598,-5.86677c-4.49601,-1.92975 -8.63274,-4.2197 -13.45563,-5.1282c-0.35387,2.8635 -2.39373,4.96201 -3.70846,7.47883c-1.00463,1.92321 -1.98176,3.90196 -2.9046,5.8948c0.89616,0.50381 0.81091,1.64967 0.81091,1.64967l-0.10963,0.92776c-0.62261,2.08057 -1.38798,3.93715 -2.3275,5.77496zM318.2938,137.54832c3.94628,0.18116 7.34869,-2.68337 9.24726,-5.87796c0.47991,-0.78566 1.81651,-2.38875 1.676,-3.64259c-0.89434,-7.98036 -13.17779,-9.14827 -14.62774,-0.73164c-0.27519,1.5974 -0.294,3.29197 0.11081,4.86154c0.53034,2.05633 1.45147,4.17393 3.33703,5.19606c0,0 0.11202,0.0668 0.25663,0.19457zM335.91422,136.66565c-1.03129,1.68159 -0.59065,3.91547 -0.59334,5.88812c-0.004,3.08272 -3.04265,9.46437 -5.78546,11.28822c-1.95954,1.30301 -5.43994,1.01315 -7.48691,0.15293c-4.50301,-1.89234 -8.50269,-6.04214 -12.61126,-8.67276c-0.36485,-0.2336 -0.73321,-0.46561 -1.1001,-0.70088c0.7135,4.27753 1.69254,9.21623 4.97279,12.07819c0.70225,0.6127 3.12676,1.57625 3.78708,1.86561c3.80994,1.66956 7.54656,3.41387 11.33695,5.11508c0.83076,0.23147 1.67769,0.41124 2.49228,0.69439c0.39522,0.13738 0.72635,0.6971 1.12239,0.56206c0.28341,-0.0966 -0.2677,-0.58062 -0.20764,-0.87397c0.13201,-0.64462 0.47772,-1.22744 0.75969,-1.82196c1.2565,-2.64932 2.51493,-5.36933 3.87352,-7.96725c1.10481,-2.11264 3.49744,-4.28535 3.34828,-6.84662c-0.16278,-2.79517 -1.61465,-4.64153 -2.41394,-7.12284c-0.52923,-1.64293 -0.1949,-3.46311 -0.58053,-5.14556c-0.0147,-0.0643 -0.0327,-0.12919 -0.0536,-0.1946c-0.25409,0.58551 -0.54287,1.1548 -0.8602,1.70182zM301.90252,213.05584c-0.35702,0.28562 -0.74243,0.383 -0.74243,0.383c-2.9959,0.75699 -5.66284,1.43913 -8.53914,2.57307c-1.05775,0.417 -2.07313,0.95336 -3.16361,1.27519c-0.33687,0.0994 -1.06795,-0.38159 -1.05325,-0.0307c0.0331,0.78963 0.824,1.3546 1.1391,2.07939c1.22952,2.82816 1.53285,4.94237 3.74167,7.24846c1.10998,1.15886 1.65821,3.14966 3.19921,3.59724c3.36636,0.97776 7.00943,-0.65443 8.02541,-3.89696c-0.85642,-4.32876 -0.78201,-9.23875 -2.60697,-13.22874z" fill="#000000" stroke="none" stroke-width="0.5" stroke-linecap="butt" stroke-linejoin="miter"/><g stroke="none" stroke-width="1" stroke-linecap="round" stroke-linejoin="round"><path d="M347.10715,148.74517c0,0 -5.44544,9.3381 7.80198,11.57322c0,0 -5.60233,2.97563 -9.4301,2.55828c-2.15249,-0.23469 -8.59386,-2.02298 -9.76491,-8.89885c-1.03207,-6.05979 3.33017,-8.47846 7.80178,-9.5339" fill="#5500ff"/><path d="M344.43727,142.95512c0.3949,0.24434 0.6765,0.63562 0.78277,1.08768c0.22087,0.94057 -0.36228,1.88217 -1.30274,2.10352c-2.06875,0.48829 -3.98057,1.29758 -5.13867,2.43555c-1.15809,1.13796 -1.78089,2.51195 -1.33984,5.10156c0.50058,2.93916 2.03339,4.63885 3.75391,5.77344c1.72052,1.13459 3.68945,1.59387 4.47657,1.67969c1.03669,0.11303 2.5245,-0.20557 3.96093,-0.62305c-1.02648,-0.48179 -1.96987,-1.00321 -2.68554,-1.63281c-1.67482,-1.4734 -2.45521,-3.32756 -2.64258,-4.99024c-0.37474,-3.32535 1.29297,-6.02734 1.29297,-6.02734c0.23402,-0.40106 0.61784,-0.69267 1.06695,-0.81062c0.44911,-0.11796 0.92669,-0.05259 1.32758,0.18172c0.83402,0.48728 1.11551,1.55816 0.62891,2.39258c0,0 -1.05424,1.96862 -0.83985,3.87109c0.1072,0.95124 0.44852,1.84974 1.47852,2.75586c1.02999,0.90612 2.84802,1.81759 5.94336,2.33984c0.73771,0.12584 1.31378,0.70681 1.43338,1.44557c0.11959,0.73875 -0.24376,1.4718 -0.90409,1.82397c0,0 -1.49989,0.79834 -3.49609,1.5332c-1.9962,0.73486 -4.49447,1.48792 -6.94531,1.2207c-1.36538,-0.14887 -3.69239,-0.70108 -6.02344,-2.23828c-2.33105,-1.5372 -4.60492,-4.17072 -5.27539,-8.10742c-0.59102,-3.47017 0.45303,-6.33537 2.33594,-8.18555c1.88291,-1.85018 4.38621,-2.77855 6.78906,-3.3457c0.45197,-0.10665 0.9278,-0.02929 1.3227,0.21505z" fill="#000000"/></g><path d="M311.49787,208.20381l2.1,-39.8c0,0 7.31032,1.84925 10.97939,1.66029c4.05829,-0.20901 12.32061,-2.86029 12.32061,-2.86029l2.2,43c0,0 -6.402,1.9 -10.225,1.9c-4.88209,0 -17.375,-3.9 -17.375,-3.9z" fill="#ffde00" stroke="#000000" stroke-width="0" stroke-linecap="butt" stroke-linejoin="miter"/><path d="M313.63957,261.29545l-0.3,-52.4l24.06464,2.18047l0.80489,33.15192c0,0 10.13244,2.42493 13.36964,4.62747c2.65805,1.80849 4.66083,7.64014 4.66083,7.64014c0,0 -8.84209,4.95575 -25.00006,-5.5975c-4.73338,-3.09151 -6.19994,-27.2025 -6.19994,-27.2025l-3.79279,26.51897c0,0 26.15957,21.29119 0.18092,19.37023c-3.97924,-0.29424 -7.78813,-8.28919 -7.78813,-8.28919z" fill="#9a3b00" stroke="#000000" stroke-width="0" stroke-linecap="butt" stroke-linejoin="miter"/><path d="M310.24118,130.11303c-0.47512,-0.66876 -0.41402,-1.24674 -0.21504,-1.67209c-0.42458,-0.59777 -0.29479,-1.36451 -0.29479,-1.36451l0.12694,0.35707c-0.59069,-1.93912 -1.26405,-3.81206 -1.75295,-5.78171c-1.74287,-12.47983 4.76581,-24.62102 15.03532,-30.98047c0,0 1.48891,-0.9196 2.4085,0.56931c0.21152,0.34248 0.29562,0.6548 0.29972,0.93276l0.51091,1.19102c0.19642,0.64416 0.39283,1.28831 0.58925,1.93247c5.05626,11.69205 0.13206,26.59768 -11.03458,32.9208c0,0 -0.0782,0.0442 -0.20907,0.0949c-0.57167,0.49566 -1.17963,0.9492 -1.81596,1.35079l-1.20808,0.86275c0,0 -1.4266,1.01356 -2.44016,-0.41307zM314.63899,124.43971c0,0 0.70094,-0.8313 1.65306,-0.63082c8.2459,-6.09268 11.4019,-17.9104 7.37073,-27.30765c-0.16607,-0.5446 -0.33212,-1.08919 -0.49818,-1.63381c-7.97397,5.81001 -13.07196,15.84581 -11.62317,26.1186c0.42213,1.69938 1.00689,3.32609 1.53019,4.99251c0.57614,-0.4553 1.10401,-0.97532 1.56737,-1.53885z" fill="#000000" stroke="none" stroke-width="0.5" stroke-linecap="butt" stroke-linejoin="miter"/><path d="M314.62529,124.488c-0.46335,0.56356 -0.99441,1.08253 -1.57056,1.53783c-0.52331,-1.66642 -1.11929,-3.29882 -1.54143,-4.99822c-1.44879,-10.2728 3.6913,-20.39796 11.66527,-26.20797c0.16607,0.5446 0.33509,1.09015 0.50114,1.63476c4.03116,9.39725 0.84971,21.31127 -7.39618,27.40395c-0.95211,-0.20048 -1.65824,0.62964 -1.65824,0.62964z" fill="#b399ff" stroke="none" stroke-width="0.5" stroke-linecap="butt" stroke-linejoin="miter"/><path d="M243.29263,92.28863c-0.50824,-1.67458 1.16634,-2.18281 1.16634,-2.18281l1.78691,-0.53601c1.32493,-0.28377 2.66039,-0.52277 4.00206,-0.71214c15.17081,-3.18255 28.5372,1.06612 40.84835,9.97695c10.48252,8.54956 14.17895,16.35161 13.9796,29.51967c0.092,0.16198 0.16684,0.35625 0.21682,0.58899c0.32729,1.52416 -0.9947,1.98215 -1.28731,2.064c-0.14074,0.0531 -0.30037,0.0902 -0.48145,0.10572l-1.53025,0.3286c-12.50139,2.6779 -32.63232,5.32871 -42.90504,-4.42872c-9.77166,-9.18141 -13.85651,-21.12073 -15.81176,-34.10448c0,0 -0.0407,-0.27095 0.0173,-0.61454c-0.00053,-0.0017 -0.001,-0.0035 -0.002,-0.0052zM288.96282,101.60924c-11.4585,-8.29125 -23.95712,-12.42358 -38.10255,-9.30556c-1.3005,0.18355 -2.59566,0.41164 -3.87962,0.68813l-0.14366,0.04421c1.86449,11.96121 5.62519,22.96705 14.66919,31.44597c8.94326,8.96654 28.81813,5.89183 39.75265,3.53762l0.33146,-0.0712c0.19554,-11.84727 -3.11689,-18.57109 -12.62746,-26.33918z" fill="#000000" stroke="none" stroke-width="0.5" stroke-linecap="butt" stroke-linejoin="miter"/><path d="M289.00546,101.58304c9.51057,7.76809 12.82227,14.54546 12.62673,26.39273l-0.33167,0.0715c-10.93452,2.35421 -30.8852,5.43776 -39.82846,-3.52878c-9.04399,-8.47892 -12.81299,-19.54769 -14.67747,-31.5089l0.14375,-0.04435c1.28396,-0.27649 2.58163,-0.50821 3.88213,-0.69177c14.14542,-3.11802 26.72648,1.01832 38.18498,9.30957z" fill="#b399ff" stroke="none" stroke-width="0.5" stroke-linecap="butt" stroke-linejoin="miter"/><path d="M254.00743,108.17842c-0.31078,-1.44724 1.13646,-1.75801 1.13646,-1.75801l1.42924,-0.26169c2.90713,0.11277 4.89908,0.00039 7.77307,-0.5971c-2.65628,-1.64333 -5.73198,-2.52073 -8.37486,-4.18934l-0.86569,-0.55962c0,0 -1.24309,-0.80359 -0.4395,-2.04667c0.80359,-1.24309 2.04667,-0.4395 2.04667,-0.4395l0.86569,0.55962c2.71385,1.81108 6.00498,2.68704 8.78343,4.45061c2.89961,1.88372 6.13348,3.59304 9.37669,5.3624c-0.58447,-2.72179 -1.16894,-5.44359 -1.75341,-8.16537l-0.0765,-0.35633c0,0 -0.31078,-1.44724 1.13646,-1.75801c1.44724,-0.31078 1.75801,1.13646 1.75801,1.13646c0.76613,3.56774 1.6041,7.47005 2.37469,11.05857c4.68198,2.6866 9.13857,5.67782 12.36039,9.70157c0,0 0.9252,1.15544 -0.23029,2.08063c-0.45002,0.36033 -1.68336,0.5213 -1.68336,0.5213c-4.24794,0.91219 -8.33816,1.00654 -12.66301,1.20763l-1.30503,-0.51532c0,0 -1.24309,-0.80359 -0.4395,-2.04667c0.80359,-1.24309 2.04667,-0.4395 2.04667,-0.4395l-0.4394,0.0443c3.63747,-0.1685 7.098,-0.24683 10.63917,-0.84927c-1.98626,-1.76204 -4.22962,-2.91237 -6.5003,-4.63638c-4.48461,-3.40493 -13.08507,-7.79373 -13.08507,-7.79373c-3.1975,0.68662 -8.22034,1.31413 -11.40403,1.2286l-0.70867,0.1974c0,0 -1.44724,0.31078 -1.75801,-1.13646z" fill="#906bff" stroke="none" stroke-width="0.5" stroke-linecap="butt" stroke-linejoin="miter"/><path d="M325.04028,217.18031c1.56525,-0.78262 2.34787,0.78262 2.34787,0.78262l0.35142,1.11596c-0.005,6.5258 0.95356,13.32802 1.97903,19.72988c0.49167,3.06942 -0.016,6.46358 1.08227,9.33873c0,0 0.0534,0.14672 0.0844,0.36844c7.10721,7.99793 30.26078,12.58962 20.14621,2.40363c-3.33038,-2.32577 -7.60636,-4.63532 -11.68721,-4.93004l-1.94774,-0.16231c-0.59425,-0.0219 -0.97537,-0.2529 -1.2198,-0.54029c-0.26619,-0.26755 -0.46485,-0.66674 -0.43709,-1.26111c0.004,-3.92556 0.5047,-7.76369 0.66815,-11.68631c0.279,-6.69565 -0.33485,-13.4006 -0.33485,-20.09394v-0.5c0,0 0,-1.75 1.75,-1.75v-0.00001c1.75,0 1.75,1.75 1.75,1.75v0.5c0,6.74211 0.61285,13.49434 0.33182,20.2394c-0.13972,3.35359 -0.53274,6.64778 -0.63861,9.98592l0.36878,0.0307c4.86914,0.44756 9.6694,2.94797 13.64612,5.73664c14.10755,14.02792 -13.40371,15.81461 -25.10846,2.49304c0,0 -0.36646,-0.41881 -0.4499,-0.99074c-0.14607,-0.21821 -0.21106,-0.39695 -0.21106,-0.39695c-1.93511,-5.52317 -1.20014,-12.25109 -1.92558,-18.05089c-0.0759,-0.60653 -0.15828,-1.20628 -0.2437,-1.8015c-0.36399,2.40993 -0.6677,4.82074 -0.94732,7.11903c-0.32508,2.67186 0.26807,5.40165 -0.17892,8.0878c-0.29897,1.79662 -0.95286,3.31656 -1.22304,5.06182c4.34452,2.94412 8.68618,6.34882 10.75445,11.25743c5.77442,11.90937 -22.05773,20.39151 -22.33911,-7.51051c-0.44218,-0.5992 -0.31167,-1.38224 -0.31167,-1.38224c1.99922,-11.93996 -0.3484,-23.73052 -0.35714,-35.7123c0,-2 0,-4 0,-6v-0.66667c0,0 0,-1.75 1.75,-1.75h0.00001c1.75,0 1.75,1.75 1.75,1.75c0,2 0,4.66667 0,6.66667c-0.009,11.999 2.25393,23.74554 0.40265,35.70687c0.26401,0.46386 0.26401,0.9598 0.26401,0.9598c0,22.67386 19.08627,15.99173 15.65874,9.39495c-1.86702,-4.53814 -6.21741,-7.6141 -10.2128,-10.2722l-0.41051,-0.4739c-0.0803,-0.0745 -0.14864,-0.15505 -0.20674,-0.23865l-0.31203,-0.3602c0,0 -0.97663,-1.30218 0.20976,-2.33671c0.32155,-1.57592 0.85546,-3.0192 1.13043,-4.66579c0.43673,-2.61532 -0.15559,-5.29829 0.1544,-7.9122c0.62586,-5.27734 1.43611,-11.08336 2.70768,-16.22642l0.12793,-1.12596c0,0 0.0959,-0.76692 0.66985,-1.21771c0.14642,-0.1699 0.34682,-0.32855 0.61735,-0.46381z" fill="#000000" stroke="none" stroke-width="0.5" stroke-linecap="butt" stroke-linejoin="miter"/><path d="M309.39712,164.32118c-9.69875,-5.65679 -16.26132,-18.61716 -16.20213,-29.86438c0.98857,-13.37068 23.75434,-16.07721 33.59569,-10.67516c11.39803,4.33715 23.77409,18.55109 19.17622,31.69312c-4.68164,14.31731 -20.52482,16.43171 -33.15075,11.16126c-0.83606,-0.3478 -1.67243,-0.71241 -2.49385,-1.09374c-0.17689,-0.78481 -0.92516,-1.22111 -0.92516,-1.22111z" fill="#ff6e00" stroke="none" stroke-width="0.25" stroke-linecap="butt" stroke-linejoin="miter"/><path d="M340.30144,180.71874c3.92674,0 6.77208,0.32875 10.44632,1.73652c13.63303,9.81431 -3.26942,23.28933 0.60763,27.22423c0.53488,0.54286 1.48076,-0.50273 2.05307,-1.00596c2.90851,-2.55746 4.80196,-4.63215 8.5736,-2.33304c2.02183,1.00348 3.89277,1.94776 6.06405,2.6401c3.04572,0.97118 3.96775,-5.20551 1.92674,-6.66926c-1.91428,-1.37286 -4.29066,1.87616 -6.98959,0.0602c-3.32245,-2.23555 -1.47882,-13.30097 -2.29475,-16.87609c-3.0655,-12.367 -7.72068,-21.42577 -22.2676,-14.78424c-0.0799,3.42044 0.0938,6.81862 0.38112,10.20681zM364.09488,184.69125c0.49993,2.29979 -0.3101,14.10819 1.20469,15.05635c1.12195,0.70227 4.34761,-1.8214 6.57077,-0.37728c7.3313,4.76225 2.05131,16.88516 -11.6936,9.96863c-3.24583,-3.14977 -8.88998,10.33117 -12.58901,0.0807c-2.80601,-7.77575 12.09185,-16.42347 1.51435,-23.87548c-3.13776,-1.14419 -5.44216,-1.32549 -8.80064,-1.32549l-1.16928,0.18323c0.65992,6.40106 1.55439,12.78144 1.73417,19.22428c0.0719,0.6407 0.14389,1.28143 0.21583,1.92213l0.31642,1.04581c0,0 0.0853,0.30462 0.0538,0.69108c0.0608,0.0828 0.1191,0.17517 0.1742,0.27809l-0.00001,-0.00004c0.82597,1.54281 -0.71683,2.36879 -0.71683,2.36879l0.0341,-0.0825c-6.35775,5.74299 -16.10727,4.34075 -23.63933,2.17498c-2.77056,-0.79665 -5.08031,-1.29556 -7.37118,-3.14372c0,0 -1.10286,-0.91196 -0.48926,-2.08382c-0.0146,-0.52213 -0.0301,-1.07965 -0.0433,-1.55308c-0.11797,-4.34122 -0.0799,-8.73846 0.0939,-13.14501c-4.24019,2.42826 -10.03091,5.13659 -12.29815,9.56333h0.00002c-0.57553,1.12372 -0.81454,2.39455 -1.33872,3.54313c-1.33861,5.28268 5.75077,10.01102 2.68556,14.55605c-6.73053,9.97989 -11.1335,-4.54573 -14.23252,-6.29706c-1.34777,-0.76166 -2.22209,2.18223 -3.50994,3.04133c-1.55188,1.03523 -3.19351,1.15929 -4.9827,1.53544c-13.7364,-1.24174 -10.80256,-13.77526 0.58605,-15.14933c2.57211,-0.31033 3.35756,1.47443 5.29634,1.63727c0.27183,0.0228 -0.32529,-0.49075 -0.29801,-0.76216c0.39529,-3.93294 2.96764,-9.34345 4.4156,-13.01671c6.65353,-11.15047 11.13715,-19.88163 23.22346,-23.37397c-0.21032,-0.10491 -0.42004,-0.21097 -0.62919,-0.31806l-1.49991,-1.46795c0,0 -0.14912,-0.14912 -0.29206,-0.39558c-9.24165,-6.49211 -15.03151,-18.86287 -15.07635,-30.05187c1.2085,-15.2405 24.8848,-19.45897 36.62627,-13.09257c12.66775,4.92037 24.50687,19.88495 19.92549,34.1417c-1.34578,3.97519 -3.45823,7.12405 -6.09052,9.50985c0.80416,-0.212 -0.0439,1.56842 -0.0987,1.96526c-0.22672,1.64258 -5.01108,5.79628 -2.73207,6.77426c6.08068,2.60938 22.69563,1.43436 24.92034,10.24999zM288.95361,192.30549c-1.06098,2.59571 -2.73962,14.11329 -5.57346,15.29427c-4.04542,1.6859 -7.07708,-2.74283 -11.75439,0.71534c-2.21483,1.63753 -1.97549,5.6093 0.83663,6.08089c1.0403,0.17446 2.1126,0.0334 3.16089,0.1506c3.15797,-0.69499 6.65431,-5.40912 9.81268,-4.39642c1.54628,0.4958 6.55039,13.34051 10.17457,7.70112c0.13944,-0.21697 -4.16124,-9.3403 -3.05728,-13.79924c0.58824,-1.29914 0.85843,-2.73772 1.53271,-3.99436c2.92026,-5.44241 9.45424,-8.45111 14.47361,-11.46616l1.13859,-0.65102c0.34414,-5.90103 0.91992,-11.79238 1.67839,-17.56192c-12.13432,2.92218 -15.95512,11.21285 -22.42293,21.92691zM311.1882,164.56415c0.77558,0.36005 1.5597,0.70203 2.3491,1.03042c2.04185,0.85233 4.17099,1.50096 6.31981,1.92274c10.39704,2.04076 21.25509,-1.22926 24.91835,-12.43218c4.34128,-12.40861 -7.31257,-25.76319 -18.07451,-29.8583c-9.29213,-5.10058 -30.72604,-2.57422 -31.65944,10.05028c-0.0559,10.61955 6.11843,22.79441 15.27592,28.13551c0,0 0.70375,0.41052 0.87077,1.15153zM312.89937,205.14631c0.0151,0.54083 0.0302,1.08166 0.0453,1.62249c1.61849,1.05622 3.40553,1.33886 5.34341,1.8968c5.90309,1.69958 14.586,3.43794 19.80241,-0.95705c-0.0435,-0.10386 -0.0624,-0.1711 -0.0624,-0.1711l-0.42436,-1.60124c-0.0763,-0.68901 -0.15263,-1.37801 -0.22894,-2.06702c-0.31682,-11.35426 -2.77706,-22.50607 -2.42917,-33.92181c-6.06667,2.25189 -13.23532,2.08959 -19.96885,-0.093c-1.57935,11.54045 -2.41178,23.63589 -2.0774,35.29188z" fill="#000000" stroke="none" stroke-width="0.5" stroke-linecap="butt" stroke-linejoin="miter"/><path d="M338.75761,180.895c-0.28732,-3.38819 -0.44977,-6.80087 -0.36983,-10.22131c14.54692,-6.64153 19.27784,2.42854 22.34334,14.79554c0.81593,3.57512 -1.09679,14.62427 2.22566,16.85982c2.69893,1.81601 5.13962,-1.35791 7.0539,0.0149c2.04101,1.46375 1.10901,7.64927 -1.93671,6.67809c-2.17128,-0.69234 -4.05066,-1.63206 -6.07249,-2.63554c-3.77164,-2.29911 -5.6879,-0.22061 -8.59641,2.33685c-0.57231,0.50323 -1.52292,1.54827 -2.0578,1.00541c-3.87705,-3.9349 13.00794,-17.50222 -0.62509,-27.31653c-3.67424,-1.40777 -6.45083,-1.66833 -10.37757,-1.66833z" fill="#ffde00" stroke="none" stroke-width="0.5" stroke-linecap="butt" stroke-linejoin="miter"/><path d="M288.92454,192.2648c6.46781,-10.71406 10.34991,-19.00227 22.48423,-21.92445c-0.75847,5.76954 -1.31949,11.68202 -1.66363,17.58305l-1.13839,0.65158c-5.01937,3.01505 -11.57368,6.08246 -14.49394,11.52487c-0.67428,1.25664 -0.96177,2.70212 -1.55001,4.00126c-1.10396,4.45894 3.19748,13.58212 3.05804,13.79909c-3.62418,5.63939 -8.65501,-7.20701 -10.20129,-7.70281c-3.15837,-1.0127 -6.66875,3.69386 -9.82672,4.38885c-1.04829,-0.1172 -2.12429,0.0207 -3.16459,-0.15374c-2.81212,-0.47159 -2.97645,-4.50869 -0.76162,-6.14622c4.67731,-3.45817 7.69311,0.95607 11.73853,-0.72983c2.83384,-1.18098 4.4584,-12.69595 5.51938,-15.29166z" fill="#ffde00" stroke="none" stroke-width="0.5" stroke-linecap="butt" stroke-linejoin="miter"/><path d="M321.92935,150.19228c-1.75,0 -1.75,-1.75 -1.75,-1.75v-1.74972c0,-4.20574 0.0435,-8.53345 -0.42673,-12.71095c0,0 -0.19326,-1.7393 1.54604,-1.93255c1.7393,-0.19325 1.93255,1.54604 1.93255,1.54604c0.47313,4.30875 0.44814,8.76157 0.44814,13.09747v1.74972c0,0 0,1.75 -1.75,1.75z" fill="#000000" stroke="none" stroke-width="0.5" stroke-linecap="butt" stroke-linejoin="miter"/><path d="M337.66316,147.21475c1.56525,0.78262 0.78262,2.34788 0.78262,2.34788l-0.98221,1.9351c-0.75412,0.88902 -2.42647,2.97779 -3.38117,3.58265c-8.64538,5.47739 -17.99431,0.51495 -23.90156,-6.25507c0,0 -1.13889,-1.3287 0.18982,-2.46759c1.3287,-1.13888 2.46758,0.18982 2.46758,0.18982c5.63274,6.72635 15.06019,10.66564 21.70953,3.01417l0.76751,-1.56434c0,0 0.78262,-1.56525 2.34787,-0.78263z" fill="#000000" stroke="none" stroke-width="0.5" stroke-linecap="butt" stroke-linejoin="miter"/><path d="M329.58437,148.44255c-1.75,0 -1.75,-1.75 -1.75,-1.75v-2.18715c0,-4.1498 0.16496,-8.14869 0.66966,-12.24641c0,0 0.21706,-1.73649 1.95355,-1.51943c1.73649,0.21706 1.51943,1.95355 1.51943,1.95355c-0.50284,3.95696 -0.64263,7.80589 -0.64263,11.81229v2.18715c0,0 0,1.75 -1.75,1.75z" fill="#000000" stroke="none" stroke-width="0.5" stroke-linecap="butt" stroke-linejoin="miter"/><g fill="#ffffff" stroke="none" stroke-width="1" stroke-linecap="round" stroke-linejoin="round"><path d="M344.72556,110.34096c0,0 1.15765,-0.46555 2.40132,-0.0961c0.98543,0.29277 1.26499,1.12486 1.26499,1.12486c0,0 -2.3076,0.45795 -3.27093,2.01357c0,0 2.60074,-1.39244 3.23625,1.7768c0,0 -2.38839,-0.13288 -3.11125,0.96308c0,0 2.11986,0.0613 1.69355,2.32008c0,0 -2.11263,-0.43563 -2.89954,0.49083l-2.31328,-4.2912z"/><path d="M345.13215,108.42952c0.64908,-0.10852 1.53592,-0.1454 2.49218,0.13867c1.76655,0.52484 2.42579,2.24414 2.42579,2.24414c0.2439,0.83339 -0.16013,1.7196 -0.94922,2.08203c0.41043,0.56023 0.81472,1.13429 0.97265,1.92188c0.08556,0.49344 -0.04437,0.99989 -0.3569,1.39121c-0.31253,0.39132 -0.77772,0.63 -1.27786,0.65567c0.1914,0.59173 0.34948,1.22194 0.2207,1.9043c-0.08676,0.46154 -0.35537,0.86885 -0.74544,1.13036c-0.39007,0.26152 -0.86888,0.3553 -1.32878,0.26026c0,0 -0.36832,-0.07091 -0.78125,-0.06641c-0.41289,0.00455 -0.62408,0.20348 -0.42969,-0.02539c-0.37403,0.44104 -0.94177,0.66885 -1.51691,0.60868c-0.57514,-0.06017 -1.08344,-0.40056 -1.35808,-0.90946l-2.3125,-4.29297c-0.31324,-0.58076 -0.27322,-1.28834 0.10352,-1.83008l3,-4.30273c0.19486,-0.27949 0.46705,-0.49603 0.7832,-0.62305c0,0 0.40951,-0.17859 1.0586,-0.28711zM343.77863,114.7596l0.15039,0.2793c0.13208,-0.17704 0.29422,-0.23786 0.43946,-0.37305c-0.15973,-0.00443 -0.31811,-0.03072 -0.47071,-0.07813z"/></g><path d="M298.82286,244.32865c0,0 -1.48517,-6.07229 0.43696,-12.49393c2.69837,-9.01501 14.22971,-36.50607 14.22971,-36.50607c0,0 21.40953,2 26.25,2c0.7248,0 6.25,21.66667 6.25,21.66667l11.5,26.83333c0,0 -2.04513,6.16667 -31.91667,5.33333c-8.46668,-0.2362 -26.75,-6.83333 -26.75,-6.83333z" fill="#e7eeff" stroke="#000000" stroke-width="0" stroke-linecap="butt" stroke-linejoin="miter"/><path d="M301.01931,202.90008l-21.14286,-8.53571c0,0 10.54781,-17.72144 19.88253,-21.14525c4.37464,-1.60454 12.11159,-3.21959 20.78434,-4.11649c1.63806,-0.1694 3.73807,6.82968 5.42654,6.71643c2.92811,-0.1964 5.47887,-7.44385 8.42417,-7.43103c6.67976,0.0291 13.18442,0.6621 18.51933,2.19773c8.7406,2.51595 12.82024,14.35003 12.82024,14.35003l-15.42857,9.82143c0,0 -6.92692,-7.46922 -9.92987,-6.97308c-1.34051,0.22148 -3.60398,1.61175 -6.50254,1.61776c-6.22807,0.0129 -15.02654,-1.30156 -21.35569,1.30619c-8.09513,3.33537 -11.49761,12.19199 -11.49761,12.19199z" fill="#3c3945" stroke="#000000" stroke-width="0" stroke-linecap="butt" stroke-linejoin="miter"/><path d="M329.76014,148.55738c-1.75,0 -1.75,-1.75 -1.75,-1.75v-2.18715c0,-4.1498 0.16496,-8.14869 0.66966,-12.24641c0,0 0.21706,-1.73649 1.95355,-1.51943c1.73649,0.21706 1.51943,1.95355 1.51943,1.95355c-0.50284,3.95696 -0.64263,7.80589 -0.64263,11.81229v2.18715c0,0 0,1.75 -1.75,1.75z" fill="#000000" stroke="none" stroke-width="0.5" stroke-linecap="butt" stroke-linejoin="miter"/><g fill="#ffffff" stroke="none" stroke-width="1" stroke-linecap="round" stroke-linejoin="round"><path d="M344.90137,110.45579c0,0 1.15765,-0.46555 2.40132,-0.0961c0.98543,0.29277 1.26499,1.12486 1.26499,1.12486c0,0 -2.3076,0.45795 -3.27093,2.01357c0,0 2.60074,-1.39244 3.23625,1.7768c0,0 -2.38839,-0.13288 -3.11125,0.96308c0,0 2.11986,0.0613 1.69355,2.32008c0,0 -2.11263,-0.43563 -2.89954,0.49083l-2.31328,-4.2912z"/><path d="M347.80012,108.68147c1.76655,0.52484 2.42578,2.24609 2.42578,2.24609c0.2439,0.83339 -0.16013,1.7196 -0.94922,2.08203c0.41043,0.56023 0.81472,1.13429 0.97265,1.92188c0.08493,0.49314 -0.04528,0.99905 -0.35774,1.38991c-0.31246,0.39086 -0.77728,0.62927 -1.27702,0.65501c0.1919,0.59217 0.34962,1.22321 0.2207,1.90625c-0.08722,0.46118 -0.35601,0.868 -0.74603,1.12912c-0.39002,0.26111 -0.86857,0.35463 -1.32819,0.25956c0,0 -0.36832,-0.06895 -0.78125,-0.06445c-0.41288,0.00455 -0.62408,0.20348 -0.42968,-0.02539c-0.37432,0.44088 -0.94227,0.66837 -1.51744,0.6078c-0.57517,-0.06056 -1.08328,-0.40136 -1.35756,-0.91054l-2.3125,-4.29102c-0.31324,-0.58076 -0.27322,-1.28834 0.10352,-1.83008l3,-4.30273c0.19486,-0.27949 0.46705,-0.49602 0.7832,-0.62305c0,0 0.40952,-0.17859 1.0586,-0.28711c0.64908,-0.10852 1.53592,-0.14735 2.49219,0.13672zM343.95441,114.87484l0.15039,0.2793c0.13208,-0.17704 0.29423,-0.23786 0.43946,-0.37305c-0.15973,-0.00443 -0.31811,-0.03072 -0.47071,-0.07813z"/></g><g stroke="none" stroke-width="1" stroke-linecap="round" stroke-linejoin="miter"><path d="M332.9899,119.86878c3.82812,-7.62939 11.55708,-12.07887 11.55708,-12.07887c0,0 2.92079,7.58244 -0.4482,19.58666" fill="#5500ff"/><path d="M346.18098,107.15999c0,0 0.82214,2.17831 1.14843,5.76367c0.3263,3.58536 0.20103,8.70471 -1.54492,14.92578c-0.12522,0.44712 -0.42301,0.82614 -0.82779,1.05363c-0.40478,0.22748 -0.88337,0.28478 -1.33041,0.15926c-0.44712,-0.12522 -0.82614,-0.42301 -1.05363,-0.82779c-0.22748,-0.40478 -0.28478,-0.88338 -0.15926,-1.33041c1.62304,-5.78314 1.72154,-10.45715 1.42968,-13.66406c-0.14674,-1.61247 -0.27021,-1.61938 -0.46679,-2.42383c-2.22388,1.53839 -6.17197,4.55588 -8.82227,9.83789c-0.20815,0.415 -0.57268,0.73028 -1.01335,0.87644c-0.44067,0.14616 -0.92136,0.11121 -1.33626,-0.09714c-0.415,-0.20815 -0.73028,-0.57268 -0.87643,-1.01335c-0.14616,-0.44067 -0.11121,-0.92136 0.09714,-1.33626c4.12924,-8.22952 12.24804,-12.81055 12.24804,-12.81055l1.77149,-1.01953z" fill="#000000"/></g><g stroke="none" stroke-width="1" stroke-linecap="round" stroke-linejoin="round"><path d="M292.92712,148.76514c-0.233,-0.86667 -0.53993,-1.73213 -0.92927,-2.5927c-6.49792,-14.36254 -3.93379,-28.03649 20.78361,-28.5819c17.42247,-0.19895 20.45921,3.73375 27.35384,3.63294c6.9658,-0.10185 13.64396,-3.26493 13.64396,-3.26493c1.35376,4.04967 0.2098,7.25426 -1.00733,9.2469c-0.89987,1.47324 -6.96447,9.7668 -6.96447,9.7668" fill="#5500ff"/><path d="M312.74347,115.84163c0.00586,-0.00003 0.01172,-0.00003 0.01758,0c8.84404,-0.10099 14.17416,0.86063 18.06836,1.83008c3.8942,0.96945 6.17032,1.84822 9.28125,1.80273c6.45255,-0.09435 12.91992,-3.09766 12.91992,-3.09766c0.45239,-0.21397 0.97474,-0.22404 1.43504,-0.02767c0.4603,0.19637 0.81453,0.58038 0.97317,1.05502c1.53575,4.59409 0.2241,8.42425 -1.17383,10.71289c-0.60007,0.98242 -2.2599,3.28567 -3.89258,5.54883c-1.63268,2.26316 -3.15234,4.33984 -3.15234,4.33984c-0.57071,0.77975 -1.66539,0.94937 -2.44531,0.37891c-0.77975,-0.5707 -0.94938,-1.66539 -0.37891,-2.44531c0,0 1.51214,-2.07034 3.13672,-4.32227c1.62458,-2.25193 3.44629,-4.8334 3.74609,-5.32422c0.84569,-1.38453 1.58375,-3.38935 1.21485,-5.97266c-2.19656,0.91481 -6.59112,2.5684 -12.33204,2.65234c-3.78369,0.05532 -6.47429,-0.98234 -10.17773,-1.9043c-3.70136,-0.92144 -8.60044,-1.8253 -17.16992,-1.72852c-12.03316,0.26671 -18.07707,3.64515 -20.59766,8.20703c-2.52105,4.56272 -1.7504,10.99182 1.37695,17.9043c0.42859,0.94733 0.76624,1.90268 1.02344,2.85938c0.25114,0.93303 -0.30144,1.89304 -1.23437,2.14453c-0.44833,0.12054 -0.92619,0.05798 -1.32839,-0.17389c-0.4022,-0.23187 -0.69579,-0.61406 -0.81614,-1.06244c-0.2088,-0.77664 -0.4839,-1.55041 -0.83398,-2.32422c-3.37056,-7.45005 -4.56783,-15.03978 -1.25195,-21.04102c3.31588,-6.00124 10.91197,-9.73193 23.5918,-10.01172z" fill="#000000"/></g><g stroke="none" stroke-width="1" stroke-linecap="round" stroke-linejoin="round"><path d="M345.52277,124.58267c0,0 11.42949,8.81659 8.0541,19.38641c-2.96972,9.29945 -17.30708,8.09146 -17.30708,8.09146c0,0 9.53847,-3.53459 5.83649,-12.2669" fill="#5500ff"/><path d="M346.59113,123.1971c0,0 3.05867,2.34972 5.66406,6.12109c2.60539,3.77137 4.893,9.21909 2.98829,15.18359c-1.73981,5.44808 -6.80929,7.78576 -11.0625,8.71094c-4.25322,0.92518 -8.0586,0.5918 -8.0586,0.5918c-0.81652,-0.06926 -1.47567,-0.69579 -1.58624,-1.50775c-0.11057,-0.81196 0.35704,-1.59194 1.12531,-1.87701c0,0 2.06092,-0.7939 3.66016,-2.4375c1.59923,-1.6436 2.78088,-3.7151 1.17383,-7.50586c-0.37644,-0.88938 0.03876,-1.91557 0.92773,-2.29297c0.42734,-0.18139 0.90925,-0.18555 1.33965,-0.01155c0.43041,0.17399 0.77404,0.51188 0.95527,0.93929c1.97035,4.6477 0.52177,8.46107 -1.52148,10.82422c0.44893,-0.0694 0.77549,-0.04148 1.24023,-0.14258c3.65789,-0.79568 7.24275,-2.50411 8.47266,-6.35547c1.47067,-4.60531 -0.2677,-8.85149 -2.5332,-12.13086c-2.2655,-3.27937 -4.92188,-5.33789 -4.92188,-5.33789c-0.3676,-0.28355 -0.60747,-0.70155 -0.66681,-1.16199c-0.05934,-0.46045 0.06671,-0.9256 0.35041,-1.29309c0.28326,-0.36688 0.70049,-0.60641 1.16015,-0.66602c0.4603,-0.05953 0.92539,0.06622 1.29297,0.34961z" fill="#000000"/></g><g stroke="none" stroke-width="1" stroke-linecap="round" stroke-linejoin="round"><path d="M307.92652,147.98031c0,0 -5.44544,9.3381 7.80198,11.57322c0,0 -5.60233,2.97564 -9.4301,2.55828c-2.15248,-0.23469 -8.59386,-2.02298 -9.76491,-8.89886c-1.03206,-6.05978 3.33017,-8.47846 7.80177,-9.53389" fill="#5500ff"/><path d="M305.25507,142.19073c0.39485,0.24394 0.67663,0.63475 0.78333,1.08645c0.10671,0.4517 0.02961,0.92728 -0.21433,1.32214c-0.24394,0.39485 -0.63475,0.67663 -1.08645,0.78333c-2.06874,0.48828 -3.98253,1.29758 -5.14062,2.43555c-1.15809,1.13796 -1.77893,2.51196 -1.33789,5.10156c0.50058,2.93916 2.03143,4.6369 3.75195,5.77149c1.72052,1.13459 3.68946,1.59582 4.47656,1.68164c1.03625,0.11299 2.52504,-0.20588 3.96094,-0.62305c-1.02638,-0.48177 -1.96797,-1.00325 -2.68359,-1.63281c-1.67482,-1.4734 -2.45716,-3.32951 -2.64453,-4.99219c-0.37474,-3.32535 1.29492,-6.02539 1.29492,-6.02539c0.48662,-0.83472 1.55765,-1.11713 2.39258,-0.63086c0.83472,0.48662 1.11713,1.55765 0.63086,2.39258c0,0 -1.05424,1.96862 -0.83984,3.87109c0.1072,0.95124 0.44852,1.84974 1.47852,2.75586c1.02999,0.90612 2.84607,1.81759 5.94141,2.33984c0.73928,0.12423 1.31735,0.70549 1.43751,1.44544c0.12016,0.73995 -0.24428,1.47426 -0.90626,1.82604c0,0 -1.49989,0.79638 -3.49609,1.53125c-1.9962,0.73487 -4.49447,1.48793 -6.94531,1.2207c-1.36537,-0.14887 -3.69239,-0.70108 -6.02344,-2.23828c-2.33105,-1.5372 -4.60687,-4.16876 -5.27734,-8.10547c-0.59102,-3.47017 0.45303,-6.33537 2.33594,-8.18555c1.8829,-1.85018 4.38621,-2.77856 6.78906,-3.3457c0.4517,-0.10671 0.92728,-0.02961 1.32214,0.21433z" fill="#000000"/></g><g stroke="none" stroke-width="1" stroke-linecap="round" stroke-linejoin="round"><path d="M325.45093,133.90554c0,0 -4.02516,12.46288 -16.80687,13.60104c-15.30135,1.36251 -15.50737,-12.00635 -15.50737,-12.00635c0,0 14.73046,6.52461 15.65888,-7.48281" fill="#5500ff"/><path d="M310.5423,128.13264c-0.25289,3.81551 -1.51215,6.55501 -3.41602,8.26563c-1.90386,1.71061 -4.28588,2.29495 -6.45312,2.36328c-1.94682,0.06138 -3.753,-0.28133 -5.21289,-0.66211c0.25727,0.93471 0.522,1.93205 1.17969,2.99414c1.68169,2.71573 4.70329,5.30627 11.84961,4.66992c11.68986,-1.04094 15.29688,-12.39648 15.29688,-12.39648c0.29726,-0.91951 1.28356,-1.42403 2.20313,-1.12695c0.91951,0.29726 1.42403,1.28356 1.12695,2.20313c0,0 -4.44287,13.57126 -18.31641,14.80664c-8.15502,0.72617 -12.88812,-2.68638 -15.13477,-6.31445c-2.24665,-3.62807 -2.2793,-7.4082 -2.2793,-7.4082c-0.00915,-0.59679 0.28647,-1.1571 0.78424,-1.48644c0.49777,-0.32934 1.12906,-0.38231 1.67475,-0.14051c0,0 3.45592,1.46421 6.71875,1.36133c1.63142,-0.05144 3.1054,-0.46119 4.22461,-1.4668c1.11921,-1.00561 2.0504,-2.70438 2.26172,-5.89258c0.0637,-0.96431 0.89701,-1.69444 1.86133,-1.63086c0.96431,0.0637 1.69444,0.89701 1.63086,1.86133z" fill="#000000"/></g><g stroke="none" stroke-width="1" stroke-linecap="round" stroke-linejoin="round"><path d="M332.14149,126.17736c6.5768,2.09621 14.46038,11.31272 6.74766,18.78898c-6.04172,5.85649 -17.13946,2.55543 -17.13946,2.55543c9.82902,-2.25864 9.96474,-6.99213 9.96474,-6.99213c-9.39729,5.15912 -19.07536,1.34936 -19.07536,1.34936c0,0 10.70725,-4.17306 4.84002,-15.8243" fill="#5500ff"/><path d="M318.02859,124.39241c0.44053,0.14574 0.80515,0.46048 1.01367,0.875c3.16369,6.28251 1.87418,11.21445 -0.40234,14.14258c-0.51046,0.65657 -1.06504,1.19709 -1.61328,1.68359c3.39847,0.57753 8.55651,0.80611 13.8457,-2.09766c0.55002,-0.30199 1.21961,-0.28643 1.75501,0.04078c0.5354,0.32721 0.85466,0.91599 0.83679,1.54321c0,0 -0.03803,0.62632 -0.27148,1.29883c-0.23346,0.67251 -0.67101,1.53798 -1.44922,2.44141c-0.66539,0.77245 -1.72185,1.55094 -2.94531,2.29688c3.11082,-0.01549 6.52782,-0.63293 8.87305,-2.90625c3.38435,-3.28059 3.22211,-6.34103 1.65234,-9.3457c-1.56977,-3.00467 -4.93877,-5.63534 -7.71289,-6.51953c-0.44246,-0.14078 -0.81083,-0.45162 -1.02403,-0.86409c-0.2132,-0.41247 -0.25373,-0.89276 -0.11269,-1.33513c0.14078,-0.44246 0.45162,-0.81083 0.86409,-1.02403c0.41247,-0.2132 0.89276,-0.25373 1.33513,-0.11269c3.80267,1.21202 7.66391,4.23768 9.75195,8.23438c2.08804,3.99669 2.01,9.28285 -2.31836,13.47852c-3.52334,3.41532 -8.32166,4.06656 -12.09961,3.9668c-3.77795,-0.09976 -6.75586,-0.99023 -6.75586,-0.99023c-0.76151,-0.22701 -1.27452,-0.93856 -1.24929,-1.73278c0.02522,-0.79423 0.58234,-1.47179 1.35672,-1.65003c1.4426,-0.3315 2.25648,-0.75682 3.25195,-1.1582c-6.98526,1.01095 -12.61328,-1.15039 -12.61328,-1.15039c-0.67051,-0.26371 -1.11089,-0.91139 -1.10958,-1.6319c0.0013,-0.7205 0.44402,-1.36658 1.11548,-1.62787c0,0 2.26471,-0.91513 3.875,-2.98633c1.61029,-2.0712 2.74064,-5.05121 0.03711,-10.41992c-0.43416,-0.86348 -0.08614,-1.91544 0.77734,-2.34961c0.41447,-0.20908 0.89504,-0.24491 1.33594,-0.09961z" fill="#000000"/></g><path d="M291.81172,126.79874l-3.4263,-14.13946l3.53948,-3.81231c0,0 2.70571,2.96434 4.06156,4.88608c1.695,2.40247 5.32003,8.41123 5.32003,8.41123c0,0 -2.97662,0.45473 -5.3615,1.67685c-1.9714,1.01024 -4.13325,2.97762 -4.13325,2.97762z" fill="#dd00ff" stroke="#000000" stroke-width="0" stroke-linecap="butt" stroke-linejoin="miter"/><g fill="#ffffff" stroke="none" stroke-width="1" stroke-linecap="round" stroke-linejoin="round"><path d="M302.84099,117.70792l-3.48164,4.29119c-1.18436,-0.92646 -4.36401,-0.49083 -4.36401,-0.49083c-0.64163,-2.25879 2.54891,-2.32007 2.54891,-2.32007c-1.08795,-1.09596 -4.68265,-0.96308 -4.68265,-0.96308c0.95649,-3.16924 4.87079,-1.7768 4.87079,-1.7768c-1.44987,-1.55562 -4.92297,-2.01357 -4.92297,-2.01357c0,0 0.42075,-0.83209 1.9039,-1.12486c1.87182,-0.3695 3.61415,0.0961 3.61415,0.0961z"/><path d="M298.58527,112.43928c0.1619,0.04329 0.31032,0.12657 0.43164,0.24219l4.51367,4.30277c0.37751,0.35935 0.41575,0.94837 0.08789,1.35352l-3.48242,4.29102c-0.34344,0.42357 -0.96288,0.49394 -1.39258,0.1582c-0.19021,-0.14879 -1.15572,-0.37456 -2.01758,-0.38086c-0.86185,-0.00631 -1.5957,0.09375 -1.5957,0.09375c-0.49388,0.06743 -0.96201,-0.2391 -1.09766,-0.71875c-0.22026,-0.77539 -0.11431,-1.56684 0.25,-2.13086c0.11892,-0.18411 0.29958,-0.21446 0.44531,-0.34961c-0.01492,-0.0017 -0.01832,-0.0083 -0.0332,-0.0098c-0.95637,-0.09593 -1.79687,-0.06641 -1.79687,-0.06641c-0.32284,0.01192 -0.63155,-0.13284 -0.82885,-0.38866c-0.19729,-0.25582 -0.25886,-0.59119 -0.16529,-0.9004c0.29949,-0.99232 0.89409,-1.73465 1.58984,-2.17187c0.10058,-0.0632 0.20404,-0.03625 0.30664,-0.08789c-0.48275,-0.10426 -1.12109,-0.25 -1.12109,-0.25c-0.32099,-0.04255 -0.60151,-0.23787 -0.75279,-0.52415c-0.15129,-0.28628 -0.15461,-0.62809 -0.00892,-0.91725c0,0 0.23123,-0.41965 0.64453,-0.76758c0.4133,-0.34793 1.0565,-0.71091 1.95703,-0.88867c1.07204,-0.21162 2.0894,-0.18223 2.83789,-0.10156c0.74849,0.08067 1.22852,0.21289 1.22852,0.21289zM297.08723,114.21272c-0.30696,-0.03105 -0.74461,0.03132 -1.13281,0.04102c0.88884,0.32905 1.80115,0.75337 2.50977,1.51367c0.31287,0.33737 0.35519,0.84468 0.10253,1.22922c-0.25266,0.38454 -0.73509,0.54708 -1.16893,0.39382c0,0 -0.83773,-0.27988 -1.69922,-0.24219c-0.24628,0.01077 -0.43687,0.11029 -0.65234,0.17578c1.07898,0.10882 2.30221,0.24868 3.20703,1.16016c0.28097,0.28409 0.36588,0.70816 0.21595,1.07853c-0.14993,0.37037 -0.50593,0.61595 -0.9054,0.62459c0,0 -0.66603,0.0365 -1.15234,0.23828c0.16482,-0.00507 0.14947,-0.02083 0.32813,-0.01953c0.72553,0.00531 1.52754,0.11948 2.29883,0.40234l2.44531,-3.01367l-3.62891,-3.45703c-0.12639,-0.02873 -0.30612,-0.07832 -0.76758,-0.125z"/></g><path d="M301.28966,122.10168l-7.14755,-12.95614c0,0 5.35606,1.86838 7.7706,3.4109c2.76787,1.76824 7.92182,6.61413 7.92182,6.61413z" fill="#5500ff" stroke="#000000" stroke-width="0" stroke-linecap="butt" stroke-linejoin="miter"/><path d="M291.74348,105.17757c0,0 12.65754,4.37817 19.25391,12.57031c0.29118,0.36154 0.42679,0.82396 0.37697,1.28549c-0.04982,0.46154 -0.28097,0.88437 -0.64259,1.17545c-0.36154,0.29118 -0.82396,0.42678 -1.28549,0.37697c-0.46154,-0.04982 -0.88437,-0.28097 -1.17544,-0.64259c-4.96982,-6.17211 -14.15514,-9.95725 -16.27539,-10.80273c-0.29406,0.74699 -0.62983,1.74363 -0.85742,3.15039c-0.49047,3.03154 -0.41324,7.4623 2.09375,13.08008c0.39341,0.88237 -0.00262,1.91662 -0.88477,2.31055c-0.88237,0.39341 -1.91662,-0.00263 -2.31055,-0.88477c-2.77848,-6.22616 -2.94202,-11.42694 -2.35352,-15.06445c0.5885,-3.63752 1.99805,-5.85937 1.99805,-5.85937l0.75391,-1.16797z" fill="#000000" stroke="none" stroke-width="1" stroke-linecap="round" stroke-linejoin="miter"/><path d="M299.20637,113.8846c2.32972,4.23139 3.05273,7.7168 3.05273,7.7168c0.19455,0.94651 -0.41487,1.87158 -1.36133,2.06641c-0.94651,0.19455 -1.87158,-0.41487 -2.06641,-1.36133c0,0 -0.59798,-2.93571 -2.68945,-6.73437c-1.59988,-2.90579 -6.2207,-6.23242 -6.2207,-6.23242c-0.3839,-0.26102 -0.64837,-0.66388 -0.73518,-1.11993c-0.08681,-0.45605 0.01114,-0.9279 0.27229,-1.31171c0.26102,-0.3839 0.66388,-0.64837 1.11993,-0.73518c0.45605,-0.08681 0.9279,0.01114 1.31171,0.27229c0,0 4.98878,3.21189 7.31641,7.43945z" fill="#000000" stroke="none" stroke-width="1" stroke-linecap="round" stroke-linejoin="miter"/><path d="M340.59504,196.77527c4.2066,15.41745 7.66803,23.27007 10.71875,29.37891c3.05071,6.10883 5.78011,10.61018 8.28906,18.90625c0.15238,0.50135 0.07211,1.0446 -0.21875,1.48046c0,0 -2.83102,4.14011 -8.91211,5.85157c-3.03339,0.85371 -6.22799,0.24272 -9.28906,0.49609c-3.20067,0.26492 -7.43605,2.35254 -12.18164,2.30664c-0.01889,-0.00036 -0.03777,-0.00103 -0.05664,-0.002c-3.90241,-0.16251 -7.63788,-1.69439 -10.88867,-2.28711c-4.49397,-0.8194 -8.53803,-2.7883 -11.17773,-3.45117c-7.56374,-1.89939 -10.77344,-3.2461 -10.77344,-3.2461c-0.74449,-0.31498 -1.17639,-1.09886 -1.04492,-1.89648c2.05476,-12.51458 5.6042,-21.07001 8.7168,-27.97656c3.11259,-6.90656 5.70684,-12.09333 6.21289,-18.08203c0.08176,-0.96256 0.92801,-1.6768 1.89063,-1.59571c0.4626,0.03878 0.89085,0.25977 1.19048,0.61435c0.29963,0.35458 0.4461,0.81368 0.40718,1.27628c-0.57525,6.80756 -3.43162,12.3945 -6.50977,19.22461c-2.94814,6.54164 -6.14248,14.38673 -8.16016,25.68945c1.25877,0.46148 3.61752,1.26564 8.92188,2.59766c3.30887,0.8309 7.10032,2.69984 10.95313,3.40234c3.74848,0.68347 7.3699,2.09486 10.375,2.22852c3.57865,0.02634 7.59525,-1.94002 11.83594,-2.29102c3.60616,-0.29845 6.81866,0.13252 8.6289,-0.37695c4.11368,-1.15776 5.79438,-3.08119 6.38867,-3.83789c-2.31173,-7.28371 -4.75608,-11.51082 -7.73046,-17.4668c-3.11533,-6.23822 -6.70695,-14.42321 -10.9629,-30.02148c-0.12199,-0.44781 -0.06109,-0.92574 0.1693,-1.32866c0.23039,-0.40291 0.6114,-0.6978 1.05922,-0.81978c0.93194,-0.25416 1.89357,0.29486 2.14844,1.22661z" fill="#000000" stroke="none" stroke-width="1" stroke-linecap="round" stroke-linejoin="round"/><g stroke="none" stroke-width="1" stroke-linecap="round" stroke-linejoin="round"><path d="M340.45975,196.8823c0,0 -6.81081,0.81384 -14.57769,1.30982c-7.22189,0.46118 -14.6873,-0.97169 -14.6873,-0.97169c0,0 -0.46529,-0.64891 -0.54018,-1.93976c-0.068,-1.17211 0.10952,-5.48355 0.10952,-5.48355c0,0 8.398,1.00171 14.3553,0.6415c5.53053,-0.3344 13.098,-0.43254 13.098,-0.43254c0,0 0.76884,1.43008 1.08976,2.41418c0.40623,1.24572 1.15259,4.46202 1.15259,4.46202z" fill="#b399ff"/><path d="M310.972,188.06038c0,0 8.37772,0.97329 14.04102,0.63086c5.60593,-0.33895 13.18164,-0.43555 13.18164,-0.43555c0.65258,-0.00843 1.25564,0.34693 1.56445,0.92187c0,0 0.78953,1.40697 1.21094,2.69922c0.48561,1.48916 1.19531,4.60938 1.19531,4.60938c0.03004,0.13002 0.04511,0.26304 0.04492,0.39648c-0.00078,0.88586 -0.66334,1.63145 -1.54297,1.73633c0,0 -6.85039,0.82072 -14.67383,1.32031c-7.52849,0.48076 -15.12891,-1 -15.12891,-1c-0.44002,-0.08471 -0.8308,-0.33497 -1.0918,-0.69922c0,0 -0.26502,-0.39182 -0.45117,-0.87109c-0.18615,-0.47927 -0.36546,-1.14862 -0.41406,-1.98633c-0.04629,-0.79781 -0.0089,-2.09744 0.02734,-3.33398c0.03624,-1.23655 0.08008,-2.32422 0.08008,-2.32422c0.02052,-0.48722 0.24339,-0.94378 0.6149,-1.25967c0.3715,-0.31589 0.85796,-0.46246 1.34214,-0.40439zM312.44856,191.71272c-0.00703,0.21543 -0.00883,0.20502 -0.01563,0.4375c-0.03555,1.2122 -0.05297,2.655 -0.03125,3.0293c0.01308,0.22555 0.05588,0.30655 0.08984,0.45898c1.31906,0.23151 7.10216,1.20111 13.2793,0.80664c6.64538,-0.42436 10.96425,-0.94706 12.48047,-1.12109c-0.24949,-1.01081 -0.42855,-1.81282 -0.60742,-2.36133c-0.12117,-0.37156 -0.30537,-0.69941 -0.5332,-1.16992c-1.13141,0.01669 -6.90286,0.09135 -11.88477,0.39258c-5.06583,0.3063 -10.49883,-0.22749 -12.77734,-0.47266z" fill="#000000"/></g><g stroke="none" stroke-width="1" stroke-linecap="round" stroke-linejoin="round"><path d="M332.41017,190.81332c0,0 5.78548,28.63526 9.2131,40.88623c2.35196,8.40636 2.91094,26.74041 2.91094,26.74041c0,0 -0.52104,0.39637 -1.74595,0.4041c-2.51074,0.0158 -13.2056,-0.15243 -17.65272,-0.23267c-1.37249,-0.0248 -1.27183,-0.0412 -1.27183,-0.0412c0,0 0.73925,-6.91708 0.2378,-19.03647c-0.39661,-9.5855 -3.00643,-47.87759 -3.00643,-47.87759" fill="#b399ff"/><path d="M332.06375,189.0975c0.94768,-0.19176 1.87128,0.42135 2.0625,1.36914c0,0 5.807,28.7001 9.18164,40.76171c1.25523,4.48644 1.96133,11.18134 2.39844,16.85938c0.4371,5.67804 0.57617,10.29883 0.57617,10.29883c0.01699,0.56482 -0.23979,1.10309 -0.68945,1.44531c0,0 -0.42396,0.29226 -0.89062,0.45703c-0.46667,0.16478 -1.10271,0.29969 -1.90235,0.30469c-2.62018,0.01649 -13.24171,-0.15202 -17.69531,-0.23242c-0.93049,-0.0168 -1.28803,-0.0247 -1.51172,-0.0605c-0.05055,-0.0081 -0.10513,-0.009 -0.2832,-0.0684c-0.04452,-0.0149 -0.16974,-0.06631 -0.16992,-0.0664c-0.53698,-0.49526 -0.99353,-0.96526 -1.01559,-1.78128c0,0.00001 0.72589,-6.75838 0.22852,-18.77929c-0.39146,-9.461 -3.00391,-47.83008 -3.00391,-47.83008c-0.06588,-0.96437 0.66257,-1.79953 1.62695,-1.86523c0.96437,-0.06589 1.79951,0.66257 1.86523,1.62695c0,0 2.608,38.21385 3.00977,47.92383c0.41136,9.94201 0.04031,15.3175 -0.13086,17.4082c4.65273,0.08232 14.60577,0.23781 16.98633,0.22461c-0.03556,-1.02498 -0.11932,-3.91809 -0.49023,-8.73633c-0.43037,-5.59056 -1.18062,-12.26563 -2.27734,-16.18555c-3.48059,-12.44029 -9.24414,-41.01171 -9.24414,-41.01171c-0.19176,-0.94768 0.42135,-1.87128 1.36914,-2.0625zM325.60866,258.65415h0.002c0,0 0.00006,-0.0156 0,-0.0176c-0.0001,0.0003 -0.00197,0.01735 -0.002,0.0176z" fill="#000000"/></g><path d="M318.40619,188.82865c0,0 3.33569,-4.08787 2.39688,-6.2659c-1.53442,-3.55987 -9.39688,-14.2341 -9.39688,-14.2341c0,0 4.25697,-0.88422 7.48968,-1.04321c1.74929,-0.086 2.82746,9.33701 6.00133,9.27188c3.05856,-0.0628 5.5484,-6.11713 8.68604,-8.21313c3.99971,-2.67187 8.32295,-1.51555 8.32295,-1.51555l-15.16667,23z" fill="#b399ff" stroke="#000000" stroke-width="0" stroke-linecap="butt" stroke-linejoin="miter"/><path d="M335.31184,166.13459c0,0 2.27574,-0.07432 3.64453,0.04102c1.33426,0.11247 3.22852,0.54297 3.22852,0.54297c0.51955,0.11261 0.95975,0.45525 1.19643,0.93126c0.23668,0.47602 0.24417,1.0338 0.02037,1.516c0,0 -2.46407,5.341 -6.41211,10.20703c-4.23067,5.21437 -9.36914,11.07812 -9.36914,11.07812c-0.33217,0.37962 -0.81198,0.59745 -1.31641,0.59766h-8.96484c-0.6321,-0.00003 -1.21507,-0.34091 -1.5251,-0.89176c-0.31003,-0.55085 -0.29894,-1.22607 0.02901,-1.76645c0,0 4.72251,-7.84486 7.84375,-11.55468c3.32584,-3.953 10.50977,-10.26172 10.50977,-10.26172c0.30843,-0.27319 0.70335,-0.42881 1.11523,-0.43945zM336.03059,169.64045c-0.78821,0.70436 -6.95636,6.22859 -9.66602,9.44922c-1.84321,2.19079 -4.23969,5.90951 -5.84766,8.45898h4.97656c0.51015,-0.58342 4.84047,-5.52815 8.7793,-10.38281c2.40105,-2.95933 3.90496,-5.60111 4.86914,-7.42187c-0.19013,-0.02797 -0.34762,-0.07083 -0.48047,-0.08203c-0.66875,-0.05634 -1.99333,-0.02978 -2.63086,-0.02148z" fill="#000000" stroke="none" stroke-width="1" stroke-linecap="round" stroke-linejoin="round"/><path d="M319.03449,165.32991c0.5457,0.17754 1.19799,0.53222 1.85352,1.14258c1.30541,1.21554 2.50382,3.12334 3.02344,3.78906c1.52708,1.95647 3.23438,5.56055 3.23438,5.56055c0.20539,0.41621 0.23703,0.89697 0.08795,1.33651c-0.14908,0.43954 -0.46666,0.80185 -0.88287,1.00724c-0.41621,0.20539 -0.89697,0.23703 -1.33651,0.08795c-0.43954,-0.14908 -0.80185,-0.46666 -1.00724,-0.88287c0,0 -1.92895,-3.76805 -2.85547,-4.95508c-0.76414,-0.97901 -2.02559,-2.80089 -2.64844,-3.38086c-0.24467,-0.22782 -0.34022,-0.25425 -0.42578,-0.29102l-3.73047,1.27539c3.58459,3.54783 5.90806,6.56152 6.95703,8.69141c0.63065,1.2805 0.93917,2.30128 1.08203,3.04883c0.14285,0.74755 0.10156,1.38672 0.10156,1.38672c-0.09951,0.96096 -0.9589,1.65949 -1.91992,1.56055c-0.96096,-0.09951 -1.65949,-0.9589 -1.56055,-1.91992c0,0 0.02134,0.04913 -0.05859,-0.36914c-0.07993,-0.41827 -0.27909,-1.13852 -0.7832,-2.16211c-1.00824,-2.04718 -3.24788,-5.31202 -8.15039,-9.69922c-0.46242,-0.41459 -0.67049,-1.04319 -0.54676,-1.6518c0.12373,-0.60861 0.56073,-1.10606 1.14832,-1.30719l6.83789,-2.33984c0.13027,-0.04437 0.26532,-0.07321 0.40234,-0.08594c0,0 0.63203,-0.01933 1.17773,0.1582z" fill="#000000" stroke="none" stroke-width="1" stroke-linecap="round" stroke-linejoin="round"/><path d="M310.31964,168.31614c0.61354,0.00055 1.10352,0.0957 1.10352,0.0957c0.45307,0.10164 0.84718,0.37918 1.09554,0.77151c0.24837,0.39233 0.33063,0.86728 0.22868,1.32029c-0.10164,0.45307 -0.37918,0.84718 -0.77151,1.09554c-0.39233,0.24836 -0.86728,0.33063 -1.32029,0.22868c0,0 0.02263,-0.01139 -0.33984,-0.01172c-0.36247,-0.00033 -0.98289,0.03806 -1.88672,0.22461c-1.80766,0.37309 -4.74909,1.34247 -8.96875,3.7832c-7.30783,4.227 -10.40421,8.19227 -12.79102,11.98633c-2.03846,3.24031 -3.65767,6.50402 -6.68945,9.36718c1.54406,1.36657 4.66907,3.96994 8.5293,5.19141c3.67585,1.16312 8.46166,2.01961 10.41992,2.35742c0.39078,-1.95548 1.33216,-5.71242 4.55664,-9.49023c1.4388,-1.6857 4.01272,-4.61113 6.05469,-6.64453c0.68449,-0.68214 1.79233,-0.68035 2.47461,0.004c0.32819,0.32877 0.51219,0.77455 0.51146,1.23909c-0.00073,0.46454 -0.18614,0.90974 -0.51536,1.23748c-1.89111,1.88317 -4.46744,4.80017 -5.86328,6.43554c-3.38071,3.96085 -4.17969,9.46485 -4.17969,9.46485c-0.06211,0.46824 -0.31084,0.8915 -0.68968,1.17361c-0.37884,0.28211 -0.85563,0.39911 -1.32204,0.32443c0,0 -7.50351,-1.18143 -12.50391,-2.76367c-6.23786,-1.9738 -11.35937,-7.23633 -11.35937,-7.23633c-0.3591,-0.35879 -0.54473,-0.85581 -0.50875,-1.36215c0.03598,-0.50634 0.29003,-0.97212 0.69625,-1.27652c3.47938,-2.60762 4.88407,-5.84333 7.42773,-9.88672c2.54366,-4.04339 6.223,-8.65315 13.99805,-13.15039c4.4819,-2.59243 7.77031,-3.71822 10.01563,-4.18164c1.12266,-0.23172 1.98411,-0.29743 2.59766,-0.29687z" fill="#000000" stroke="none" stroke-width="1" stroke-linecap="round" stroke-linejoin="round"/><path d="M344.6966,188.12678c3.54998,1.0512 7.42494,4.29187 7.94141,10.91016c0.03611,0.46286 -0.11319,0.9211 -0.41503,1.27385c-0.30184,0.35275 -0.73148,0.57111 -1.19435,0.60701c-0.96317,0.07522 -1.80508,-0.6443 -1.88086,-1.60742c-0.42751,-5.47843 -2.89079,-7.0717 -5.44531,-7.82813c-2.55452,-0.75643 -5.13477,-0.25976 -5.13477,-0.25976c-0.94594,0.19596 -1.87174,-0.41163 -2.06836,-1.35743c-0.19596,-0.94593 0.41163,-1.87173 1.35742,-2.06836c0,0 0.82199,-0.17989 2.08789,-0.22851c1.2659,-0.04862 2.97696,0.03299 4.75195,0.55859z" fill="#000000" stroke="none" stroke-width="1" stroke-linecap="round" stroke-linejoin="miter"/><path d="M347.40168,168.24007c3.39637,0.56919 7.2567,1.34919 9.8164,3.09961c4.58761,3.13719 7.78492,8.34251 9.94727,12.74609c2.16235,4.40358 3.26172,8.09961 3.26172,8.09961c0.27542,0.92543 -0.25073,1.89907 -1.17578,2.17578c-0.4447,0.13287 -0.92398,0.08364 -1.33238,-0.13686c-0.40841,-0.2205 -0.71249,-0.59421 -0.84536,-1.03892c0,0 -1.02185,-3.42477 -3.05078,-7.55664c-2.02893,-4.13187 -5.09261,-8.87795 -8.78125,-11.40039c-1.43812,-0.98345 -5.1961,-1.99716 -8.41797,-2.53711c-3.22187,-0.53995 -5.96093,-0.74805 -5.96093,-0.74805c-0.46284,-0.03494 -0.89285,-0.25233 -1.1954,-0.60433c-0.30255,-0.352 -0.45287,-0.80978 -0.41788,-1.27262c0.03494,-0.46284 0.25233,-0.89285 0.60433,-1.1954c0.352,-0.30255 0.80978,-0.45287 1.27262,-0.41788c0,0 2.87901,0.21792 6.27539,0.78711z" fill="#000000" stroke="none" stroke-width="1" stroke-linecap="round" stroke-linejoin="miter"/><g stroke="none" stroke-width="1" stroke-linecap="round" stroke-linejoin="round"><path d="M370.30493,192.10468c0,0 -3.49996,2.82894 -7.90495,5.29071c-0.78282,0.43749 -2.85438,1.31399 -3.99579,1.77891c-4.006,1.63175 -6.84985,1.8979 -6.84985,1.8979l-2.46699,-5.83288c0,0 5.5612,-2.17492 8.93853,-4.0817c3.60139,-2.03328 8.62872,-6.10837 8.62872,-6.10837z" fill="#b399ff"/><path d="M368.20832,184.24593l3.65039,7.05469c0.38249,0.738 0.19311,1.64323 -0.45313,2.16602c0,0 -3.59356,2.90931 -8.15234,5.45703c-1.0616,0.59329 -3.02149,1.39535 -4.18945,1.87109c-4.2124,1.71582 -7.34571,2.01953 -7.34571,2.01953c-0.75971,0.07131 -1.47806,-0.3578 -1.77539,-1.06054l-2.46679,-5.83204c-0.18429,-0.43525 -0.1847,-0.92654 -0.00113,-1.3621c0.18357,-0.43556 0.5355,-0.77835 0.97574,-0.9504c0,0 5.55759,-2.19208 8.71484,-3.9746c3.33683,-1.88392 8.38672,-5.94532 8.38672,-5.94532c0.40901,-0.3316 0.94558,-0.46144 1.46094,-0.35352c0.51501,0.10825 0.95398,0.44249 1.19531,0.91016zM358.88605,192.68147c-2.67239,1.50879 -5.74423,2.79017 -7.5,3.50195l1.23828,2.92969c1.05992,-0.19187 2.65737,-0.55585 5.11915,-1.55859c1.11485,-0.45411 3.29869,-1.40582 3.80273,-1.6875c3.17187,-1.77264 5.35581,-3.38428 6.52344,-4.27539l-2.00196,-3.8711c-1.678,1.31537 -4.40953,3.39586 -7.18164,4.96094z" fill="#000000"/></g><g stroke="none" stroke-width="1" stroke-linecap="round" stroke-linejoin="round"><path d="M299.90171,210.19664c0,0 -5.72257,-1.24388 -11.88997,-3.53715c-1.09603,-0.40754 -3.73151,-1.67228 -5.16666,-2.38107c-5.03696,-2.48764 -7.77224,-4.8446 -7.77224,-4.8446l3.33906,-6.06113c0,0 6.90734,3.5132 11.65412,5.25866c5.0617,1.86126 13.29251,3.64027 13.29251,3.64027z" fill="#b399ff"/><path d="M290.66926,196.98811c4.82396,1.77384 13.05859,3.57227 13.05859,3.57227c0.51273,0.11088 0.9487,0.44591 1.18783,0.91282c0.23913,0.46691 0.25622,1.01647 0.04655,1.49733l-3.45703,7.92578c-0.33373,0.76389 -1.15992,1.18639 -1.97461,1.00977c0,0 -5.82381,-1.261 -12.12891,-3.60547c-1.34565,-0.50035 -3.87528,-1.73367 -5.33203,-2.45312c-5.20492,-2.5706 -8.13867,-5.08789 -8.13867,-5.08789c-0.62671,-0.54007 -0.78965,-1.44521 -0.39062,-2.16993l3.33789,-6.06054c0.45509,-0.82729 1.48437,-1.14446 2.32617,-0.7168c0,0 6.91584,3.50305 11.46484,5.17578zM277.33918,198.94514c1.05103,0.79658 2.86987,2.07887 6.28125,3.76367c1.41355,0.69812 4.15554,1.99583 5.00195,2.31055c4.86021,1.80721 8.66783,2.7443 10.26758,3.12109l2.02734,-4.64648c-2.38399,-0.53991 -7.30515,-1.69472 -11.45508,-3.2207c-4.01983,-1.47815 -8.47615,-3.67304 -10.32227,-4.59571z" fill="#000000"/></g><path d="M328.94057,249.34409c-0.0188,-0.0656 -0.003,-0.12113 -0.003,-0.12113c0.47315,-1.63359 3.91469,-2.51348 6.61795,-2.80474c0.071,-0.0672 0.18497,-0.11073 0.31342,-0.11073c0.0908,0 0.1744,0.0218 0.24068,0.0583c0.4824,-0.0392 0.93001,-0.0583 1.31864,-0.0583c1.88813,0 3.16148,0.78363 3.9482,1.86448c0.0606,-0.0272 0.13265,-0.043 0.20997,-0.043c0.2153,0 0.38983,0.12232 0.38983,0.27322c0,0.0459 -0.0161,0.0891 -0.0447,0.12711l-0.1782,0.24979c0.68286,1.29817 0.79664,2.8541 0.51561,4.00635c-1.53213,2.17735 -3.56304,3.33981 -6.7059,3.34154c-0.008,0.0102 -0.0157,0.0163 -0.0219,0.0176c-0.22003,0.0469 -0.43198,0.03 -0.63337,-0.0333c-0.49714,-0.0236 -1.02052,-0.0738 -1.57224,-0.15114c-5.54915,0.004 -6.25627,-3.94205 -4.39509,-6.61604zM330.33595,248.5097c0.25419,0.19008 -0.0127,0.37717 -0.0127,0.37717l-0.0677,0.0436c-0.0519,0.0484 -0.1028,0.0974 -0.15269,0.14686c0.27293,0.063 0.62059,0.16701 1.05471,0.31914c0.80139,0.28084 1.44091,0.55293 2.07644,0.99836l0.16751,0.11741c0.00045,-0.0304 0.006,-0.0506 0.006,-0.0506c0.35136,-1.23 1.41702,-2.26827 1.90421,-3.4578c-1.80111,0.22496 -3.91863,0.71055 -4.9759,1.50592zM333.41249,255.41635c0.20148,0.0283 0.39844,0.0528 0.59102,0.0738c-0.34064,-0.36368 -0.61481,-0.80948 -0.79871,-1.17081c-0.26433,0.33791 -0.784,0.73456 -1.26943,0.97778c0.44016,0.0772 0.93147,0.11892 1.47712,0.11926zM337.42829,246.85395c-0.31388,0 -0.68815,0.0154 -1.10028,0.0469l0.0308,0.15123l-0.12957,0.013c0.20983,0.71526 0.13349,1.42101 0.13349,2.21147c0,0.3062 -0.39702,0.69683 -0.0924,0.9163c0.15231,0.10972 1.29649,-0.22043 1.37581,-0.23428c1.21076,-0.21151 2.33553,-0.7044 3.16471,-1.37375c-0.6562,-0.99509 -1.7393,-1.73086 -3.38261,-1.73086zM338.47777,251.6417c0.80825,-0.0357 2.28121,0.11329 3.14341,0.37471c0.0716,-0.79404 -0.0324,-1.7344 -0.37559,-2.59357c-0.6553,0.85767 -1.7575,1.61989 -2.76782,2.21887zM339.08727,254.13048c0.11539,0.13549 0.2308,0.27097 0.34619,0.40646l0.003,0.0104l0.004,-0.001l0.0382,0.0536c0.5704,-0.35458 1.07867,-0.80448 1.54816,-1.34837c-1.52114,0.0781 -3.51637,-1.05428 -1.93936,0.87923zM336.3198,254.13848c-0.22409,-0.0178 -0.12306,0.30418 -0.17937,0.45725c-0.0315,0.0856 -0.18976,0.57563 -0.33867,0.9819c1.12802,-0.0236 2.07837,-0.2158 2.90404,-0.57372c-0.85241,-0.25067 -1.47125,-0.7927 -2.38601,-0.86543zM331.81845,253.55331c0.13705,-0.12305 0.60597,-0.23319 0.45117,-0.34542c-0.59924,-0.43448 -2.09538,-0.54199 -2.88664,-0.76362l-0.51134,-0.14336c-0.0356,-0.009 -0.0688,-0.0222 -0.0986,-0.038c0.0423,1.06986 0.59411,2.05528 1.82941,2.63027c0.18101,-0.5032 0.98998,-1.13696 1.21598,-1.33987zM329.008,251.77163c0.021,0 0.0417,0.001 0.0618,0.003l0.72104,0.0722l-0.0157,0.0769c0.66989,0.008 1.3043,0.0672 2.03963,0.0661c0.18101,-0.00027 0.64252,0.20234 0.52042,0.10869c-0.62311,-0.47794 -2.13763,-1.63501 -2.77913,-2.39196c-0.43633,0.65943 -0.71054,1.39566 -0.77231,2.1144c0.0634,-0.0313 0.14078,-0.0497 0.22427,-0.0497z" fill="#906bff" stroke="none" stroke-width="0.5" stroke-linecap="butt" stroke-linejoin="miter"/><path d="M309.87237,170.42385c0.07838,0.39717 -4.8576,5.06776 -4.92495,8.06441c-0.09774,4.34878 2.61125,9.39365 1.48722,9.21027c-4.47285,-0.72973 -4.84373,-1.36426 -8.1118,-2.9983c-14.01539,-6.29303 -19.36244,-26.67377 -20.19842,-40.04943c0.00365,-7.6632 11.21524,-29.24144 11.08359,-29.74716c-0.76873,-2.95307 -5.2049,-5.69988 -6.17201,-9.89299c2.58604,-6.37377 8.55975,-4.48313 12.21121,-0.23788c2.49435,2.89997 3.26359,7.64708 3.65969,8.65666c0.30175,0.76911 0.34634,1.18846 0.86364,1.83264c0.54872,0.68332 1.0411,0.78865 1.80918,1.21063c1.39668,0.76731 14.11931,1.88412 15.9338,2.01094c-0.7348,0.32274 1.85773,2.96538 1.45745,4.39395c-0.18072,0.64496 -2.72693,0.4041 -3.40463,0.70335c-1.91896,0.84735 -6.22723,-2.62819 -9.10185,-1.81714c-1.09845,0.30992 -1.5596,3.23913 -2.22834,3.86539c-5.37554,5.03413 -6.54974,12.93023 -6.9189,15.27442c-1.01027,6.16554 -1.08584,10.45215 0.62107,14.79683c2.53683,6.45712 6.40059,11.57218 14.09089,15.8384z" fill="#ffde00" stroke="none" stroke-width="0.5" stroke-linecap="butt" stroke-linejoin="miter"/><path d="M336.40558,186.60991v-17.23841h10.22278v17.23841z" fill="#ffde00" stroke="#000000" stroke-width="0" stroke-linecap="butt" stroke-linejoin="miter"/><path d="M303.70237,186.60991v-21.64823l8.11809,5.6125l-0.30067,16.03573z" fill="#ffde00" stroke="#000000" stroke-width="0" stroke-linecap="butt" stroke-linejoin="miter"/><path d="M311.95303,172.48469c-12.86473,-7.13676 -18.55975,-16.80253 -16.048,-32.13136c0.67172,-4.2655 4.95071,-17.90659 10.20091,-20.21258c-1.81449,-0.12681 -3.53897,-0.4461 -4.93565,-1.21341c-0.76808,-0.42198 -1.35676,-1.12813 -1.90548,-1.81145c-0.5173,-0.64419 -0.96035,-1.36404 -1.2621,-2.13315c-0.97593,-2.48749 -8.99579,-20.05073 -13.34838,-9.32296c0.96711,4.19311 6.49893,6.34017 7.26766,9.29324c0.13165,0.50572 -10.93787,20.63601 -10.94152,28.29921c0.83598,13.37566 3.72522,33.00036 17.74061,39.29339c3.26807,1.63404 8.13538,3.8748 12.60823,4.60453c1.89858,0.30974 0.81583,-13.6919 0.62372,-14.66545zM309.56501,120.21529c1.80948,0.62323 3.89221,1.7793 5.47776,2.13806c5.11134,1.15653 2.99159,-1.08093 -0.9668,-2.07863c-1.35311,-0.10862 -2.90954,-0.07171 -4.51096,-0.05943zM313.13753,170.78381l0.66877,0.38828c0.56688,0.04768 -0.00331,3.00087 -0.54796,7.36163c-0.6882,5.51012 -0.43192,12.16854 -2.3152,11.90723c-4.90058,-0.67997 -9.94338,-2.84354 -13.72907,-4.73639c-15.29816,-7.02743 -18.80557,-27.52223 -19.73188,-42.3431c-0.00343,-7.62872 1.96125,-12.02905 5.38404,-18.59756c1.19784,-2.29872 2.3228,-4.72566 3.78225,-6.86218c0.49986,-0.73176 2.67297,-1.23561 1.97419,-1.78063c-3.9895,-3.11157 -6.409,-5.09032 -7.45367,-10.78131c2.87385,-7.21493 11.03211,-6.80024 16.00307,-1.77157c2.76362,2.7957 2.51459,10.76314 5.62261,12.2589c3.20001,1.54003 8.35111,0.69343 11.85294,0.99463c3.94882,0.9796 11.84267,3.25028 5.04221,8.19599c-3.76668,2.73936 -8.50908,-0.55564 -12.06864,-1.70899c-0.67481,-0.21865 -0.94837,1.06753 -1.30615,1.68004c-2.94558,5.04272 -6.07434,10.03974 -6.95407,15.91837c-2.37052,13.95469 2.76497,22.2658 14.50052,28.63317c0,0 0.66154,0.36084 0.87963,1.04305z" fill="#000000" stroke="none" stroke-width="0.5" stroke-linecap="butt" stroke-linejoin="miter"/><path d="M338.87947,174.89001c0.43619,-0.25374 0.84988,-2.82641 1.25178,-3.10497c9.69308,-6.71842 8.05413,-20.50353 8.05413,-32.11041c-0.01207,-1.88967 -2.7791,-8.66017 -3.95994,-14.42862c-1.11179,-5.43115 -0.27786,-7.71218 -2.19893,-8.18162c-0.30593,-0.07476 -3.1227,1.18469 -5.30631,1.84176c-2.68785,0.80881 -4.97517,-1.44839 -3.26832,-5.39932c0.43235,-1.00078 1.75322,-1.81764 2.36329,-2.72114c3.27176,-2.21843 7.43731,-0.37739 10.93936,-3.11293c0.50954,-0.39801 2.93521,-8.96534 5.64807,-10.89616c1.464,-1.04197 3.722,0.63017 4.19849,4.79191c0.1473,1.28657 -0.25669,2.59821 -0.39963,3.88527c-0.00418,0.03764 0.60035,0.26507 0.60825,0.45134c0.03873,0.91354 -1.31253,3.04739 -1.36044,3.20556c-0.96322,0.92542 -4.10266,2.68888 -4.45659,3.68939c-1.40519,3.97227 3.24662,4.06883 4.21675,7.12563c2.59498,8.17655 2.32961,20.13619 2.30868,28.63378c0.88345,10.69464 0.31277,32.23598 -13.09777,35.88323c-2.14843,0.398 3.36942,1.47901 0.64216,1.05958c-1.56576,-0.24079 -4.86141,-11.39372 -3.85421,-11.16075l-1.72041,0.87725c0,0 -0.08749,1.44579 0.25571,-0.27023c0.01801,-0.09009 0.00598,-0.58054 0.01319,-0.66322z" fill="#ffde00" stroke="none" stroke-width="0.25" stroke-linecap="butt" stroke-linejoin="miter"/><path d="M335.42409,170.66139c11.42831,-5.03105 10.81255,-19.42749 10.81255,-30.70031c0.01906,-2.36413 -4.11168,-21.00197 -5.36595,-21.55527c-0.2419,-0.10671 -0.08105,0.5543 -0.25926,0.74959c-4.76923,5.22631 -11.33825,-0.46061 -8.95327,-6.4856c0.56753,-1.43371 1.82558,-2.48556 2.72589,-3.73738c3.66242,-2.4231 8.14288,-0.49158 11.52895,-2.97731c3.13578,-2.30199 -0.11816,-7.64805 3.24904,-10.4587c9.08226,-7.58108 9.7524,10.64466 8.17578,15.10559c-0.6165,0.62821 -4.38722,2.55105 -4.58951,2.83682c-0.47609,0.67257 1.17568,1.15625 1.72824,1.76755c2.07681,2.29757 2.93316,4.88966 3.43153,7.89453c1.30649,7.87733 0.84238,17.03083 0.8606,24.98456c1.08006,12.84097 2.05835,35.64795 -13.57339,39.92101c-2.05482,0.36811 -4.6932,0.58053 -7.31654,0.40404c-3.1759,-0.21366 0.38518,-4.50514 -1.68456,-6.27261c-1.08293,-0.92478 1.47173,-2.81832 1.08424,-5.11584c-0.52295,-3.10074 -3.60571,-6.608 -1.85432,-6.36067zM337.36317,173.1343c-0.00721,0.08268 -0.82135,0.77033 -0.83936,0.86042c-0.3432,1.71602 0.24592,0.4708 0.24592,0.4708l-0.85991,-0.17215c-1.0072,-0.23297 -0.92245,10.21751 0.6433,10.4583c2.72727,0.41942 5.71952,0.2395 7.86795,-0.1585c13.41054,-3.64725 11.73409,-25.66762 10.85064,-36.36226c0.02093,-8.49759 1.01039,-19.78172 -1.58459,-27.95827c-0.97013,-3.0568 -5.51038,-4.35289 -4.10519,-8.32516c0.35393,-1.00051 3.81539,-2.26012 4.77861,-3.18554c0.05767,-0.19043 0.90045,-2.93762 0.92514,-3.15987c0.14295,-1.28706 0.1473,-2.59835 0,-3.88492c-1.35944,-11.87359 -6.44833,6.39483 -7.23284,7.00763c-3.50205,2.73554 -7.95044,0.49204 -11.2222,2.71047c-0.61007,0.9035 -1.52582,1.61877 -1.95817,2.61955c-3.0935,7.16066 6.16459,0.78873 6.8471,0.95551c3.96145,0.96803 7.99366,21.28192 8.01708,24.95076c0,11.60688 0.07974,25.35536 -9.61333,32.07378c-0.4019,0.27856 -3.52662,2.24883 -3.96282,2.50257z" fill="#000000" stroke="none" stroke-width="0.5" stroke-linecap="butt" stroke-linejoin="miter"/><path d="M309.72676,53.18241c4.40156,-20.05686 26.50898,-21.3365 26.50898,-21.3365c0,0 0.41729,0.80144 1.39292,2.4197c0.20186,0.3348 -0.52136,1.06165 -0.19448,1.87793c0.38575,0.96328 1.82141,2.05107 1.99837,2.76601c0.47315,1.91158 -0.48125,3.79858 -0.48125,3.79858c0,0 -4.61743,1.12859 -10.13326,3.74155c-4.15029,1.96606 -7.71182,6.21547 -7.71182,6.21547" fill="#ffcca6" stroke="none" stroke-width="1" stroke-linecap="round" stroke-linejoin="round"/><path d="M336.0644,28.90811c1.15716,-0.06734 2.24601,0.551 2.78097,1.57927c0,0 0.35808,0.69083 1.30347,2.25892c0.69458,1.15201 0.44609,2.17337 0.33161,2.60039c-0.00841,0.02757 -0.00672,0.01731 -0.01345,0.0427c0.1015,0.13887 0.04991,0.05954 0.23969,0.27252c0.42689,0.47907 1.13187,0.72048 1.58256,2.54129c0.80331,3.24552 -0.71248,5.83117 -0.71248,5.83117c-0.38806,0.76708 -1.0922,1.32607 -1.92732,1.53001c0,0 -4.33289,1.06139 -9.57086,3.54271c-3.25659,1.54271 -6.71766,5.44701 -6.71766,5.44701c-1.04373,1.24452 -2.89858,1.40767 -4.14354,0.36445c-1.24454,-1.04373 -1.40768,-2.8986 -0.36445,-4.14355c0,0 3.6601,-4.59419 8.70406,-6.9836c4.16395,-1.97254 7.15735,-2.90771 8.91091,-3.41137c0.03866,-0.20134 0.06237,-0.27073 0.06573,-0.46295c-0.06818,-0.11991 -0.10063,-0.20749 -0.21998,-0.34147c-0.43161,-0.48436 -1.09307,-1.04162 -1.61212,-2.33771c-0.3737,-0.93337 -0.12524,-1.51408 0.00336,-2.15385c-0.01278,-0.02219 -0.01446,-0.02421 -0.02622,-0.04589c-1.73453,0.22454 -4.76815,0.74504 -8.80585,2.62336c-5.5355,2.57509 -11.28862,7.11665 -13.27116,16.15062c-0.1673,0.76256 -0.63085,1.42735 -1.28855,1.84797c-0.65771,0.42062 -1.45563,0.56255 -2.21804,0.39454c-1.58646,-0.34845 -2.59031,-1.91671 -2.2425,-3.50331c2.41901,-11.02286 9.91948,-17.14628 16.53806,-20.22522c6.61857,-3.07892 12.67359,-3.41793 12.67359,-3.41793z" fill="#310000" stroke="none" stroke-width="1" stroke-linecap="round" stroke-linejoin="round"/><path d="M305.07151,74.58546c0,0 -4.64945,-14.09494 -2.1983,-17.0692c2.08362,-2.30569 20.16944,-6.92767 23.79341,-2.45693c2.48195,3.06186 -0.12931,12.28466 -0.12931,12.28466" fill="#cecece" stroke="#000000" stroke-width="0" stroke-linecap="round" stroke-linejoin="miter"/><path d="M303.1642,80.13937c0,0 -1.6041,-17.75245 -0.75844,-21.4985c0.71887,-2.90399 6.95864,-8.72536 8.20894,-3.09447c0.8563,3.8564 -0.04462,15.47243 -0.04462,15.47243" fill="#d9d9d9" stroke="#000000" stroke-width="0" stroke-linecap="round" stroke-linejoin="miter" style="mix-blend-mode: multiply"/><path d="M316.98654,68.31713c0,0 -0.37143,-8.57978 -0.2263,-11.24752c0.12336,-2.06807 1.19411,-6.21373 1.40866,-2.20371c0.14694,2.74631 0.13243,12.83978 0.13243,12.83978" fill="#ffffff" stroke="#000000" stroke-width="0" stroke-linecap="round" stroke-linejoin="miter"/><path d="M320.68468,68.34667c0,0 -0.82414,-9.56041 -0.50215,-12.22814c0.27371,-2.06807 2.64953,-5.2331 3.12559,-1.2231c0.32604,2.74631 -0.017,11.01862 -0.017,11.01862" fill="#ffffff" stroke="#000000" stroke-width="0" stroke-linecap="round" stroke-linejoin="miter"/><path d="M321.92303,50.29891c2.60349,0.1854 5.2137,0.66884 7.02958,2.90902c2.46865,3.04544 1.87234,6.57097 1.4972,9.51505c-0.37514,2.94407 -1.08349,5.42074 -1.08349,5.42074c-0.21186,0.75116 -0.71356,1.38734 -1.39461,1.76852c-0.68106,0.38118 -1.48568,0.47609 -2.23675,0.26386c-0.7513,-0.21254 -1.38729,-0.71502 -1.76788,-1.39676c-0.38059,-0.68174 -0.47456,-1.48681 -0.2612,-2.23787c0,0 0.59948,-2.13103 0.90947,-4.5638c0.31,-2.43279 -0.21966,-5.04936 -0.23311,-5.06617c0.0039,0.00481 -1.00751,-0.61201 -2.87947,-0.74531c-1.87196,-0.13331 -4.35994,0.06692 -6.81944,0.48265c-2.4595,0.41574 -4.9127,1.04111 -6.78661,1.67121c-0.93695,0.31506 -1.73053,0.63172 -2.27205,0.89306c-0.45962,0.22136 -0.5788,0.34963 -0.48265,0.23313c0.33693,-0.3893 -0.0975,0.41904 -0.02303,1.83866c0.07681,1.46524 0.3997,3.39328 0.8077,5.25001c0.81597,3.71347 1.93715,7.12809 1.93715,7.12809c0.24486,0.74104 0.18524,1.54901 -0.16575,2.24606c-0.35099,0.69707 -0.96459,1.22608 -1.70574,1.47064c-1.54217,0.50778 -3.20415,-0.32981 -3.71344,-1.87149c0,0 -1.20206,-3.63166 -2.09803,-7.70921c-0.44798,-2.03879 -0.83017,-4.19141 -0.93574,-6.20547c-0.10559,-2.01406 -0.26905,-3.97351 1.35929,-5.94936l0.0427,-0.04925l0.0427,-0.05245c0.80627,-0.8922 1.51662,-1.20996 2.37712,-1.62525c0.86052,-0.41527 1.84676,-0.80277 2.955,-1.17541c2.21644,-0.7453 4.90427,-1.42535 7.67967,-1.89448c2.77539,-0.46913 5.61794,-0.73371 8.22141,-0.54831z" fill="#272727" stroke="none" stroke-width="1" stroke-linecap="round" stroke-linejoin="miter"/><path d="M346.08772,95.74416c-0.28845,11.08245 -4.68006,24.31058 -19.12203,25.34517c-14.44196,1.03459 -30.84274,-8.08612 -33.17861,-22.40074c-2.33586,-14.31462 11.27657,-24.82563 26.05027,-29.56655c15.89636,-5.10118 26.52033,16.25002 26.25036,26.62213z" fill="#ff6e00" stroke="#000000" stroke-width="0" stroke-linecap="round" stroke-linejoin="miter"/><path d="M326.71133,94.39405c5.02987,9.87724 7.54559,24.22377 4.37742,26.82049c-3.27783,2.68662 -8.0566,1.26394 -12.84802,0.46997c-6.40617,-1.06154 -13.00044,-2.81969 -17.65043,-9.62227c-8.12786,-11.8905 -9.69864,-20.48713 -3.02775,-29.40433c7.17778,-9.59484 24.23118,2.49198 28.93864,11.73612z" fill="#ffc294" stroke="#000000" stroke-width="0" stroke-linecap="round" stroke-linejoin="miter" style="mix-blend-mode: multiply"/><path d="M331.88788,66.98807c3.80697,1.70624 6.9447,4.56622 9.46908,7.85042c5.04874,6.56838 7.83549,14.74171 7.6731,20.98366c-0.15353,5.89898 -1.35481,12.43054 -4.68529,17.89406c-3.33046,5.46352 -9.07736,9.7267 -17.16845,10.30633c-7.9147,0.56699 -16.17226,-1.60506 -22.91753,-5.89355c-6.74529,-4.28849 -12.04804,-10.82833 -13.37622,-18.9677c-1.33266,-8.16673 2.00343,-15.43789 7.42357,-20.91472c5.42015,-5.47683 12.89352,-9.44159 20.63235,-11.925c2.3167,-0.7434 4.60139,-1.00581 6.78333,-0.86679c2.18193,0.13899 4.26257,0.68019 6.16607,1.53329zM320.73773,71.9229c-7.03485,2.25751 -13.75641,5.91809 -18.25194,10.46065c-4.49552,4.54254 -6.79826,9.68427 -5.79504,15.83215c1.00766,6.17521 5.07375,11.35379 10.7233,14.94564c5.64956,3.59186 12.81477,5.46152 19.34201,4.99392c6.35085,-0.45496 10.01732,-3.32258 12.56525,-7.50237c2.54793,-4.17978 3.69024,-9.80157 3.82506,-14.98504c0.1075,-4.13016 -2.28516,-11.81903 -6.45499,-17.24397c-2.08491,-2.71247 -4.56274,-4.88103 -7.21017,-6.06757c-1.3237,-0.59326 -2.68317,-0.96772 -4.12384,-1.06051c-1.44067,-0.09276 -2.96222,0.09527 -4.61963,0.62712z" fill="#380000" stroke="none" stroke-width="1" stroke-linecap="round" stroke-linejoin="miter"/><path d="M335.80168,79.6926c5.00395,6.10225 9.65319,13.38246 5.29605,16.24167c-2.73705,2.24441 -10.26443,-0.73491 -15.51518,-8.92394c-4.25961,-6.64325 -5.93069,-8.74439 -3.19364,-10.9888c2.73705,-2.24441 8.4088,-2.43118 13.41275,3.67108z" fill="#ffffff" stroke="#000000" stroke-width="0" stroke-linecap="butt" stroke-linejoin="miter" style="mix-blend-mode: overlay"/></g></g></svg>