<svg xmlns="http://www.w3.org/2000/svg" id="svg58" viewBox="0,0,153.60679,184.38705" height="184.38705" width="153.60679" version="1.1">
  <defs id="defs58"></defs>
  
  <g id="path1">
    <path id="path86" d="m 46.7172,92.57783 c 0,0 8.58197,-19.84932 2.08405,-34.21186 -6.49792,-14.36254 -3.93379,-28.03649 20.78361,-28.5819 17.42247,-0.19895 20.45921,3.73375 27.35384,3.63294 6.9658,-0.10185 13.64396,-3.26493 13.64396,-3.26493 1.35376,4.04967 0.2098,7.25426 -1.00733,9.2469 -0.89987,1.47324 -4.96447,11.2668 -4.96447,11.2668 0,0 -3.75239,34.73871 5.41884,37.91205" style="color:#000000;fill:#5500ff;stroke-linecap:round;stroke-linejoin:round;stroke-miterlimit:10;-inkscape-stroke:none"></path>
    <path id="path87" d="m 69.546875,28.035156 c -12.679824,0.279791 -20.275918,4.010483 -23.591797,10.011719 -3.315879,6.001236 -2.118609,13.590966 1.251953,21.041016 6.009793,13.283617 -2.095703,32.794921 -2.095703,32.794921 a 1.75,1.75 0 0 0 0.912109,2.300782 1.75,1.75 0 0 0 2.300782,-0.91211 c 0,0 9.0583,-20.185519 2.072265,-35.626953 -3.127351,-6.912475 -3.898003,-13.341581 -1.376953,-17.904297 2.520589,-4.561882 8.564495,-7.940323 20.597656,-8.207031 8.569479,-0.09678 13.46856,0.807073 17.169922,1.728516 3.703441,0.92196 6.394041,1.95962 10.177735,1.904297 5.740916,-0.08394 10.135476,-1.737535 12.332036,-2.652344 0.3689,2.583302 -0.36916,4.588129 -1.21485,5.972656 -0.36907,0.604237 -0.7424,1.431574 -1.25781,2.574219 -0.51542,1.142644 -1.11095,2.511944 -1.67774,3.833984 -1.13357,2.64408 -2.15234,5.09961 -2.15234,5.09961 a 1.750175,1.750175 0 0 0 -0.12305,0.484375 c 0,0 -0.95189,8.766812 -0.74023,17.99414 0.10583,4.613664 0.49139,9.343344 1.48633,13.271485 0.99494,3.92814 2.57978,7.360265 5.83984,8.488281 a 1.75,1.75 0 0 0 2.22656,-1.082031 1.75,1.75 0 0 0 -1.08203,-2.226563 c -1.32554,-0.458653 -2.7109,-2.5612 -3.59179,-6.039062 -0.8809,-3.477863 -1.27643,-8.024516 -1.37891,-12.492188 -0.2006,-8.745237 0.66356,-16.953992 0.70117,-17.308594 0.0936,-0.225313 0.96342,-2.319823 2.03125,-4.810547 0.56184,-1.310502 1.15256,-2.665443 1.65235,-3.773437 0.49978,-1.107994 0.97187,-2.057071 1.05273,-2.189453 1.39793,-2.288641 2.70958,-6.118806 1.17383,-10.712891 a 1.750175,1.750175 0 0 0 -2.40821,-1.027344 c 0,0 -6.46737,3.003311 -12.919918,3.097657 -3.110929,0.04549 -5.387053,-0.833287 -9.28125,-1.802735 -3.894196,-0.969448 -9.224324,-1.931069 -18.068359,-1.830078 a 1.750175,1.750175 0 0 0 -0.01758,0 z" style="color:#000000;fill:#000000;stroke-linecap:round;stroke-linejoin:round;stroke-miterlimit:10;-inkscape-stroke:none"></path>
  </g>
  <path style="stroke:none;stroke-width:0.5;stroke-linecap:butt;stroke-linejoin:miter;stroke-miterlimit:10" id="path2" fill="#b200e8" d="m 61.35197,138.50927 c -1.01597,3.24253 -4.70223,4.89337 -8.0686,3.91561 -1.541,-0.44758 -2.11263,-2.44645 -3.2226,-3.60531 -2.20882,-2.30608 -2.53409,-4.46961 -3.7636,-7.29777 -0.3151,-0.72479 -1.10351,-1.29946 -1.1366,-2.08909 -0.0147,-0.35092 0.7171,0.12824 1.05397,0.0288 1.09048,-0.32183 2.11614,-0.87387 3.17388,-1.29087 2.8763,-1.13394 5.60321,-1.82516 8.59911,-2.58215 0,0 0.3877,-0.096 0.74472,-0.38166 1.82495,3.98999 1.76331,8.97366 2.61972,13.30242 z"></path>
  <path style="stroke:none;stroke-width:0.5;stroke-linecap:butt;stroke-linejoin:miter;stroke-miterlimit:10" id="path3" fill="#009fe8" d="m 93.54205,47.1923 c 0.0209,0.0654 0.11079,0.0608 0.12552,0.12511 0.38563,1.68243 0.0602,3.5155 0.58945,5.15844 0.79928,2.4813 2.25588,4.354 2.41866,7.14917 0.14915,2.56127 -2.25308,4.75906 -3.35788,6.8717 -1.35859,2.59792 -2.63686,5.33385 -3.89338,7.98316 -0.28197,0.59453 -0.63118,1.17873 -0.76317,1.82336 -0.0601,0.29334 0.49081,0.77741 0.2074,0.87405 -0.39603,0.13503 -0.72933,-0.42398 -1.12455,-0.56135 -0.8146,-0.28315 -1.66749,-0.46152 -2.49825,-0.69298 -3.79039,-1.70122 -7.56317,-3.45317 -11.37311,-5.12273 -0.66032,-0.28936 -3.0947,-1.26153 -3.79695,-1.87423 -3.28026,-2.86197 -4.27155,-7.8379 -4.98505,-12.11543 0.36689,0.23527 0.83503,0.47386 1.19987,0.70745 4.10856,2.63062 8.0778,6.73204 12.58082,8.62438 2.04697,0.86022 5.48439,1.15196 7.44393,-0.15105 2.74281,-1.82385 5.7576,-8.14462 5.7618,-11.22734 0.003,-1.97265 -0.42809,-4.1899 0.6032,-5.87149 0.31733,-0.54703 0.60762,-1.11472 0.8617,-1.70022 z"></path>
  <path style="stroke:none;stroke-width:0.5;stroke-linecap:butt;stroke-linejoin:miter;stroke-miterlimit:10" id="path4" fill="#b200e8" d="m 74.82386,49.5944 c -1.88557,-1.02214 -2.83562,-3.16642 -3.36598,-5.22275 -0.40481,-1.56957 -0.38777,-3.3005 -0.11258,-4.8979 1.44995,-8.41664 13.83014,-7.24091 14.72448,0.73945 0.14051,1.25384 -1.19808,2.8811 -1.67799,3.66676 -1.89857,3.19458 -5.36332,6.09074 -9.3096,5.90957 -0.14463,-0.12774 -0.25834,-0.19514 -0.25834,-0.19514 z"></path>
  <path style="stroke:none;stroke-width:0.5;stroke-linecap:butt;stroke-linejoin:miter;stroke-miterlimit:10" id="path5" fill="#d597e8" d="m 91.78668,82.34955 c 0.93952,-1.8378 1.70807,-3.70399 2.33068,-5.78458 l 0.11025,-0.92907 c 0,0 0.086,-1.14744 -0.81011,-1.65124 0.92285,-1.99284 1.90548,-3.97993 2.91011,-5.90313 1.31473,-2.51682 3.36278,-4.6233 3.71665,-7.4868 4.82289,0.9085 8.97308,3.19105 13.46909,5.12079 4.06628,1.74529 7.91226,3.77001 11.78621,5.86464 2.51662,1.36072 5.62259,2.22016 7.96567,3.8744 2.99939,2.1176 4.91385,5.91129 6.86782,8.90737 2.38103,2.85881 5.63573,5.2868 7.5534,8.50791 2.16081,3.6295 3.31737,10.4302 1.72081,14.42257 -1.37774,3.44521 -3.87089,7.10306 -5.65112,10.36759 -0.52948,0.97094 -1.08952,1.93072 -1.68952,2.85973 -0.0979,0.15161 -0.23937,0.35743 -0.37812,0.57653 -0.13684,-0.45269 -0.39341,-1.00714 -0.54719,-1.30385 -1.14145,-2.20236 -2.50981,-4.14453 -3.93828,-6.16502 -4.50655,-8.00789 -11.89054,-13.25556 -19.42057,-18.17568 -2.54413,-1.66233 -4.45377,-4.17533 -6.9606,-5.92335 -4.10676,-2.86367 -8.48153,-4.44061 -13.1615,-6.09526 -1.27995,-0.52404 -2.54782,-0.833 -3.91765,-1.02394 z"></path>
  <path style="stroke:none;stroke-width:0.5;stroke-linecap:butt;stroke-linejoin:miter;stroke-miterlimit:10" id="path6" fill="#e8dfb2" d="m 68.94992,120.37062 c -2.3995,2.02757 -4.17724,4.95455 -5.6909,7.79884 -0.42778,-1.89295 -1.02991,-3.71808 -1.91262,-5.40279 l -1.11283,-0.95132 c 0,0 -1.39793,-0.84229 -2.30184,0.43301 -0.46555,-0.0943 -0.87344,0.005 -0.87344,0.005 -0.99054,0.25028 -1.98317,0.49885 -2.97251,0.75984 1.33447,-2.78157 2.86661,-5.50208 4.15546,-8.29485 0.26232,-0.56841 0.49721,-1.15158 0.70198,-1.73877 0.17618,0.25423 0.35783,0.50066 0.52989,0.73907 0.75034,1.03971 2.00047,1.63315 2.99339,2.44438 1.71883,1.40433 3.60402,2.48491 5.50894,3.62135 z"></path>
  <path style="stroke:none;stroke-width:0.5;stroke-linecap:butt;stroke-linejoin:miter;stroke-miterlimit:10" id="path7" fill="#e8dfb2" d="m 76.85196,113.74146 c -1.24311,1.98631 -3.28016,3.39662 -5.22535,4.71602 -0.21989,-0.63308 -0.8126,-0.98427 -0.8126,-0.98427 l -1.08131,-0.63752 c -2.50535,-1.49465 -7.24068,-3.70665 -8.61932,-6.3775 -0.0815,-0.15784 0.34692,0.11704 0.52364,0.0991 0.79432,-0.0806 1.59203,-0.20991 2.36696,-0.40208 1.28462,-0.31859 2.5133,-1.36542 3.82642,-1.19971 2.86835,0.36197 4.70155,2.94275 7.28801,3.74525 z"></path>
  <path style="stroke:none;stroke-width:0.5;stroke-linecap:butt;stroke-linejoin:miter;stroke-miterlimit:10" id="path8" fill="#e8dfb2" d="m 60.64515,107.28047 c 0.12245,-0.36388 0.24974,-0.73178 0.39068,-1.08971 1.09211,-2.7733 2.89118,-5.38236 3.99867,-8.11482 0.0782,-0.19299 0.15664,-0.38746 0.23071,-0.58253 0.15913,0.7735 0.54219,1.55235 1.0072,2.37238 1.14221,2.01427 2.56679,4.12412 4.03172,6.11477 -0.78401,-0.22488 -1.55448,-0.36887 -2.24876,-0.4444 -1.27363,-0.13856 -3.68401,0.96788 -4.92144,1.28584 -0.60686,0.15594 -1.5561,0.24004 -2.48878,0.45846 z"></path>
  <path style="stroke:none;stroke-width:0.5;stroke-linecap:butt;stroke-linejoin:miter;stroke-miterlimit:10" id="path9" fill="#e8dfb2" d="m 82.62855,95.01462 c -1.12973,3.36085 -2.16516,6.81887 -3.16889,10.04478 -0.51368,1.65095 -0.81934,3.46553 -1.2655,5.19407 l -0.43319,-0.34542 c -2.36889,-2.90152 -4.41187,-6.0599 -6.6548,-9.03098 -0.65681,-0.87004 -1.23945,-1.81783 -1.85006,-2.72088 -0.13982,-0.20678 -1.11188,-1.33815 -0.39796,-1.75866 0.28288,-0.16663 0.62367,0.22941 0.95067,0.25865 1.20478,0.10774 2.43337,0.21075 3.64043,0.13241 3.0952,-0.20088 6.13079,-1.26657 9.17931,-1.77398 z"></path>
  <path style="stroke:none;stroke-width:0.5;stroke-linecap:butt;stroke-linejoin:miter;stroke-miterlimit:10" id="path10" fill="#e8dfb2" d="m 66.37431,94.02157 c 0.58419,-2.02741 1.11309,-4.13344 1.77867,-6.10751 0.3267,-0.96898 0.71201,-1.93574 1.11203,-2.88342 3.78543,2.28684 7.65849,4.58832 11.45859,6.85089 -2.47672,0.54854 -4.94806,1.34187 -7.47181,1.49922 -0.77025,0.048 -5.6157,-0.5773 -6.47596,0.23298 -0.14485,0.13643 -0.27814,0.27393 -0.40152,0.40784 z"></path>
  <path style="stroke:none;stroke-width:0.5;stroke-linecap:butt;stroke-linejoin:miter;stroke-miterlimit:10" id="path11" fill="#e8dfb2" d="m 70.73727,81.78385 c 0.93636,-1.94543 1.93602,-3.90481 2.84137,-5.83674 0,0 0.37049,-0.7857 0.0404,-1.50802 3.48123,1.5459 6.99607,3.15348 10.47644,4.70702 1.09976,0.30625 3.20242,1.04558 4.91151,1.15261 -0.48557,0.98523 -1.02809,1.97688 -1.63042,2.98364 -1.07863,2.14075 -2.07524,4.4447 -2.97099,6.78187 -4.41123,-2.63452 -8.88568,-5.32426 -13.31732,-7.92419 z"></path>
  <path style="stroke:none;stroke-width:0.5;stroke-linecap:butt;stroke-linejoin:miter;stroke-miterlimit:10" id="path12" fill="#db65ff" d="m 76.42197,38.72387 c 0.85764,-0.56492 1.69545,-1.20889 2.5232,-1.85336 l 2.16374,-1.75824 c 0.47816,-0.40201 1.06341,-0.52784 1.49922,-0.26783 0.45992,0.27438 0.62079,0.89933 0.45275,1.54832 l -0.41882,1.74474 -0.0309,-1.7e-4 c -0.01,0.0714 -0.0204,0.14304 -0.0324,0.21493 -0.005,0.0299 -1.57078,3.4299 -1.62136,3.514 -0.2067,0.34365 -0.7297,0.52973 -0.77355,0.90144 -0.0498,0.42202 1.62714,1.20813 1.63469,1.2123 l 1.09365,0.65246 c 0.604,0.36034 0.69224,1.32531 0.19707,2.15533 -0.31615,0.52993 -0.79368,0.87673 -1.25484,0.96443 l -1.42793,0.29503 0.003,-0.0311 c -0.0491,0.0185 -0.0983,0.0361 -0.14768,0.0525 -0.77189,0.25776 -1.56701,-0.17387 -2.29442,0.27019 l -0.53575,1.15499 c -0.0373,0.0829 -0.0801,0.16524 -0.12842,0.24627 -0.49517,0.83002 -1.38624,1.21075 -1.99024,0.85042 -0.22981,-0.1371 -0.38495,-0.36172 -0.46171,-0.63315 l -0.41944,-1.39922 0.058,-0.0381 c -0.043,-0.0971 -0.0822,-0.19759 -0.11666,-0.30191 -0.13213,-0.39976 0.29867,-0.97216 0.35852,-1.45186 0.11942,-0.95731 -2.02375,1.14615 -2.48976,0.5235 -0.62292,-0.83229 -0.23554,-2.42068 -0.0768,-3.70017 0.0465,-0.37447 0.71889,-0.67356 0.66146,-1.01312 -0.0848,-0.50136 -0.6535,-0.58124 -0.98025,-0.87188 l -0.015,-0.0873 -0.024,0.0215 -0.69438,-1.26908 c -0.26961,-0.46199 -0.23082,-1.17226 0.14623,-1.80426 0.40332,-0.67605 1.06929,-1.05405 1.62886,-0.97631 l 1.75992,0.19147 -0.13257,0.42867 c 0.68371,0.0483 1.32692,0.20071 1.88684,0.51448 z"></path>
  <path style="stroke:none;stroke-width:0.5;stroke-linecap:butt;stroke-linejoin:miter;stroke-miterlimit:10" id="path13" fill="#000000" d="m 67.36245,80.82742 c 0.007,-0.007 0.0135,-0.0135 0.0202,-0.0201 1.00605,-2.1186 2.07955,-4.2101 3.06527,-6.31354 0,0 0.33717,-0.71947 1.0419,-0.96164 -1.2928,-0.55421 -2.81751,-1.23709 -3.73742,-2.05528 -4.54717,-4.04431 -5.51821,-10.9889 -6.47163,-16.562 l -0.0857,-1.65318 c -0.0897,-0.35177 -0.0829,-0.77852 0.19787,-1.21504 0.15027,-0.30224 0.40642,-0.59825 0.84236,-0.75702 0.41667,-0.20408 0.80758,-0.18342 1.12956,-0.0822 0.50742,0.1 0.81931,0.38921 1.01074,0.69657 1.86859,1.93533 4.45916,3.14538 6.68424,4.66249 2.94822,2.01017 5.93508,4.93661 9.19165,6.41402 0.95493,0.43322 3.27494,0.78274 4.17496,0.12359 0.93637,-0.68576 1.25162,-1.95539 1.84539,-2.95263 0.66834,-1.12249 1.57999,-2.12485 2.035,-3.34945 0.87807,-2.3632 -0.23134,-2.89522 -0.19593,-5.61282 0.0234,-1.79766 0.7665,-2.69508 1.60088,-4.12319 0.60467,-0.97773 1.07705,-2.0733 1.32212,-3.20406 -0.48355,-0.46293 -0.93225,-0.86879 -1.24146,-1.1753 0,0 -0.30623,-0.30469 -0.463,-0.76344 -0.33738,1.30503 -1.09353,2.22009 -1.97931,3.73387 -2.80795,4.69036 -7.8269,8.15421 -13.55172,7.47039 l -1.95269,-1.00018 c 0,0 -0.79117,-0.472 -0.88296,-1.3051 -1.40167,-1.51914 -2.30319,-3.41898 -2.84184,-5.57175 -0.84198,-3.36504 -0.69565,-3.48445 -0.1747,-6.37093 2.16825,-12.01388 21.04817,-11.20845 21.56309,1.0638 0.009,0.20885 0.0104,0.40701 0.005,0.59596 0.0729,-0.10855 0.1626,-0.218 0.27155,-0.32749 1.23432,-1.24054 2.47486,-0.006 2.47486,-0.006 0.23737,0.237 0.48897,0.48287 0.74796,0.73725 0.68313,0.17727 1.08123,0.79942 1.08123,0.79942 l 0.15644,0.44959 c 1.21166,1.27882 2.35497,2.72406 2.77798,4.30273 0.41602,1.55258 -0.0441,3.277 0.47349,4.79874 0.69879,2.05454 1.71729,3.77887 2.25916,5.80028 0.27205,-0.0215 0.4688,0.0124 0.4688,0.0124 4.74198,0.83177 8.75659,2.74177 13.09094,4.77491 4.60776,2.1614 9.14565,4.23398 13.61427,6.65705 2.63267,1.42753 5.84576,2.31191 8.28358,4.07016 3.36183,2.4247 5.48073,6.28807 7.68704,9.68972 2.48618,2.99643 5.75932,5.39565 7.75452,8.79484 2.09274,3.56536 3.2682,9.45397 2.87495,13.57877 -0.33453,3.50886 -1.99831,5.47513 -3.5737,8.39091 -1.69282,3.13313 -3.05417,6.43137 -5.03878,9.40507 -0.85784,1.28536 -2.84881,3.64487 -4.69141,3.16097 -1.01168,-0.26569 -1.00183,-1.83668 -1.48303,-2.7654 -1.34803,-2.60172 -2.83319,-5.0056 -4.52545,-7.40653 -4.30242,-7.6057 -11.2377,-12.43677 -18.36602,-17.14464 -2.56517,-1.69415 -4.45927,-4.15242 -6.9831,-5.91466 -3.87656,-2.7068 -8.00208,-4.12274 -12.42026,-5.68727 -0.95919,-0.41132 -1.98562,-0.69188 -3.02111,-0.82224 l -1.91537,-0.0331 c 0,0 -0.78343,-0.0147 -1.292,-0.54866 -1.26811,2.61919 -1.86095,5.24321 -2.8112,7.99622 -1.47433,4.27136 -3.29024,8.43454 -4.63822,12.75769 -0.81877,2.62589 -1.08895,5.56866 -2.23442,8.08782 -1.82644,4.01673 -5.74779,6.10232 -9.02749,8.61441 -3.11743,2.38779 -4.99095,6.65395 -6.74254,10.02662 0,0 -0.21525,0.41432 -0.63738,0.70375 0.2216,1.75448 0.41441,3.50595 0.6763,5.19942 -1.64942,5.57073 -6.92921,8.91993 -12.95614,6.87452 -0.83017,-0.28174 -1.30085,-1.1771 -1.91516,-1.80254 -2.82671,-2.87798 -4.97327,-5.21071 -6.2567,-9.09046 -0.49324,-1.49105 -1.90799,-5.83456 -1.66076,-6.66369 0.32181,-1.07931 1.87944,-1.25207 2.88689,-1.75556 1.79266,-0.89593 3.65509,-1.59907 5.55172,-2.20034 l -0.0908,-1.2536 c 1.46905,-3.24796 3.23334,-6.29587 4.72198,-9.50628 1.23546,-2.66439 1.66719,-5.67507 2.73849,-8.40118 1.10638,-2.81539 2.89447,-5.40795 4.01561,-8.17998 1.28088,-3.167 1.93768,-6.65736 3.03478,-9.89464 0.55167,-1.62783 1.21896,-3.22104 1.93924,-4.79537 -0.002,-0.36722 0.13466,-0.78092 0.54697,-1.19531 z m 3.77544,1.3063 c 4.43163,2.59993 8.83354,5.25157 13.24477,7.88609 0.89575,-2.33717 1.86735,-4.61082 2.94598,-6.75157 0.60233,-1.00676 1.14297,-1.98032 1.62854,-2.96556 -1.70909,-0.10703 -3.80777,-0.83042 -4.90753,-1.13668 -3.48038,-1.55354 -6.91533,-3.14438 -10.39656,-4.69027 0.33006,0.72232 -0.0359,1.5032 -0.0359,1.5032 -0.90535,1.93193 -1.89373,3.85534 -2.83009,5.80077 z m -3.21173,37.65949 c -1.90493,-1.13644 -3.75165,-2.17671 -5.47048,-3.58104 -0.99292,-0.81124 -2.21923,-1.40522 -2.96957,-2.44493 -0.17205,-0.23841 -0.35186,-0.48537 -0.52804,-0.7396 -0.20477,0.5872 -0.43174,1.16713 -0.69406,1.73553 -1.28886,2.79279 -2.7957,5.45502 -4.13017,8.2366 0.98934,-0.26099 1.9817,-0.51047 2.97224,-0.76076 0,0 0.40681,-0.10279 0.87235,-0.009 0.90391,-1.27531 2.29493,-0.44544 2.29493,-0.44544 l 1.07485,0.93163 c 0.88272,1.6847 1.4707,3.51135 1.89848,5.4043 1.51367,-2.84429 3.25388,-5.71919 5.65336,-7.74676 z m -4.75328,-13.00253 c 1.23744,-0.31797 3.56705,-1.42048 4.84068,-1.28192 0.69428,0.0755 1.46017,0.22824 2.24419,0.45312 -1.46492,-1.99065 -2.84368,-4.03182 -3.98588,-6.04607 -0.46501,-0.82003 -0.84059,-1.59937 -0.99972,-2.37287 -0.0741,0.19507 -0.1501,0.38915 -0.22831,0.58214 -1.10749,2.73246 -2.86883,5.27556 -3.96093,8.04886 -0.14095,0.35792 -0.2711,0.71932 -0.39354,1.0832 0.93268,-0.21841 1.87666,-0.31052 2.48352,-0.46646 z M 66.82479,93.6036 c 0.86026,-0.81028 5.63037,-0.2173 6.40062,-0.26531 2.52376,-0.15735 4.97158,-0.90501 7.44829,-1.45355 -3.8001,-2.26257 -7.60243,-4.52179 -11.38786,-6.80863 -0.40003,0.94768 -0.7708,1.90433 -1.09749,2.87331 -0.66557,1.97406 -1.18144,4.03222 -1.76563,6.05963 0.12338,-0.13392 0.25723,-0.26901 0.40208,-0.40545 z m 6.65376,3.22551 c -1.20705,0.0783 -2.42092,-0.0415 -3.6257,-0.14924 -0.327,-0.0292 -0.66711,-0.42658 -0.94999,-0.25996 -0.71392,0.42052 0.26188,1.54186 0.4017,1.74864 0.61062,0.90305 1.19338,1.82663 1.85018,2.69666 2.24293,2.97107 4.22695,6.09241 6.59585,8.99393 l 0.43161,0.34578 c 0.44616,-1.72854 0.73435,-3.53499 1.24803,-5.18593 1.00372,-3.22591 2.02722,-6.61545 3.15695,-9.97629 -3.04853,0.50741 -6.01342,1.58553 -9.10863,1.78641 z m 1.58987,15.87179 c -2.58647,-0.80251 -4.35974,-3.33449 -7.2281,-3.69645 -1.31311,-0.16571 -2.5081,0.85656 -3.79272,1.17514 -0.77493,0.19219 -1.56852,0.31188 -2.36285,0.39253 -0.17672,0.018 -0.60499,-0.25731 -0.52352,-0.0995 1.37864,2.67085 6.05276,4.82016 8.55812,6.31481 l 1.07348,0.64042 c 0,0 0.5905,0.35229 0.81039,0.98536 1.94517,-1.31939 3.956,-2.69161 5.19911,-4.67792 z M 93.69401,82.3977 c 1.36983,0.19094 2.73511,0.52252 4.01506,1.04655 4.67997,1.65465 9.05596,3.21814 13.16271,6.08181 2.50683,1.74802 4.39388,4.22142 6.93802,5.88375 7.53003,4.92011 14.86034,10.16713 19.36691,18.17501 1.42848,2.0205 2.84958,4.04764 3.99103,6.24999 0.15378,0.29671 0.35774,0.76612 0.49458,1.21881 0.13874,-0.21908 0.27948,-0.42447 0.37741,-0.57608 0.60001,-0.92901 1.15667,-1.88644 1.68614,-2.85738 1.78023,-3.26452 4.26203,-6.9103 5.63977,-10.3555 1.59656,-3.99238 0.43217,-10.77275 -1.72864,-14.40225 -1.91769,-3.22111 -5.17135,-5.62926 -7.55238,-8.48807 -1.95397,-2.99607 -3.85196,-6.76375 -6.85136,-8.88135 -2.34308,-1.65424 -5.42644,-2.503 -7.94304,-3.86373 -3.87395,-2.09463 -7.69352,-4.12147 -11.7598,-5.86677 -4.49601,-1.92975 -8.63274,-4.2197 -13.45563,-5.1282 -0.35387,2.8635 -2.39373,4.96201 -3.70846,7.47883 -1.00463,1.92321 -1.98176,3.90196 -2.9046,5.8948 0.89616,0.50381 0.81091,1.64967 0.81091,1.64967 l -0.10963,0.92776 c -0.62261,2.08057 -1.38798,3.93715 -2.3275,5.77496 z M 75.0972,49.74185 c 3.94628,0.18116 7.34869,-2.68337 9.24726,-5.87796 0.47991,-0.78566 1.81651,-2.38875 1.676,-3.64259 -0.89434,-7.98036 -13.17779,-9.14827 -14.62774,-0.73164 -0.27519,1.5974 -0.294,3.29197 0.11081,4.86154 0.53034,2.05633 1.45147,4.17393 3.33703,5.19606 0,0 0.11202,0.0668 0.25663,0.19457 z m 17.62042,-0.88267 c -1.03129,1.68159 -0.59065,3.91547 -0.59334,5.88812 -0.004,3.08272 -3.04265,9.46437 -5.78546,11.28822 -1.95954,1.30301 -5.43994,1.01315 -7.48691,0.15293 -4.50301,-1.89234 -8.50269,-6.04214 -12.61126,-8.67276 -0.36485,-0.2336 -0.73321,-0.46561 -1.1001,-0.70088 0.7135,4.27753 1.69254,9.21623 4.97279,12.07819 0.70225,0.6127 3.12676,1.57625 3.78708,1.86561 3.80994,1.66956 7.54656,3.41387 11.33695,5.11508 0.83076,0.23147 1.67769,0.41124 2.49228,0.69439 0.39522,0.13738 0.72635,0.6971 1.12239,0.56206 0.28341,-0.0966 -0.2677,-0.58062 -0.20764,-0.87397 0.13201,-0.64462 0.47772,-1.22744 0.75969,-1.82196 1.2565,-2.64932 2.51493,-5.36933 3.87352,-7.96725 1.10481,-2.11264 3.49744,-4.28535 3.34828,-6.84662 -0.16278,-2.79517 -1.61465,-4.64153 -2.41394,-7.12284 -0.52923,-1.64293 -0.1949,-3.46311 -0.58053,-5.14556 -0.0147,-0.0643 -0.0327,-0.12919 -0.0536,-0.1946 -0.25409,0.58551 -0.54287,1.1548 -0.8602,1.70182 z m -34.0117,76.39019 c -0.35702,0.28562 -0.74243,0.383 -0.74243,0.383 -2.9959,0.75699 -5.66284,1.43913 -8.53914,2.57307 -1.05775,0.417 -2.07313,0.95336 -3.16361,1.27519 -0.33687,0.0994 -1.06795,-0.38159 -1.05325,-0.0307 0.0331,0.78963 0.824,1.3546 1.1391,2.07939 1.22952,2.82816 1.53285,4.94237 3.74167,7.24846 1.10998,1.15886 1.65821,3.14966 3.19921,3.59724 3.36636,0.97776 7.00943,-0.65443 8.02541,-3.89696 -0.85642,-4.32876 -0.78201,-9.23875 -2.60697,-13.22874 z"></path>
  <g id="path14">
    <path id="path84" d="m 103.91055,60.9387 c 0,0 -5.44544,9.3381 7.80198,11.57322 0,0 -5.60233,2.97563 -9.4301,2.55828 -2.15249,-0.23469 -8.59386,-2.02298 -9.76491,-8.89885 -1.03207,-6.05979 3.33017,-8.47846 7.80178,-9.5339" style="color:#000000;fill:#5500ff;stroke-linecap:round;stroke-linejoin:round;stroke-miterlimit:10;-inkscape-stroke:none"></path>
    <path id="path85" d="m 99.917969,54.933594 c -2.402855,0.567149 -4.906154,1.495526 -6.789063,3.345703 -1.882908,1.850177 -2.926958,4.715374 -2.335937,8.185547 0.670472,3.936705 2.944342,6.570225 5.27539,8.107422 2.331048,1.537196 4.658061,2.089411 6.023441,2.238281 2.45084,0.26722 4.94911,-0.485839 6.94531,-1.220703 1.9962,-0.734864 3.49609,-1.533203 3.49609,-1.533203 a 1.750175,1.750175 0 0 0 -0.52929,-3.269532 c -3.09534,-0.522249 -4.91337,-1.433722 -5.94336,-2.339843 -1.03,-0.906122 -1.37132,-1.804624 -1.47852,-2.75586 -0.21439,-1.902472 0.83985,-3.871093 0.83985,-3.871094 a 1.75,1.75 0 0 0 -0.62891,-2.392578 1.75,1.75 0 0 0 -2.39453,0.628907 c 0,0 -1.66771,2.701991 -1.29297,6.027343 0.18737,1.662677 0.96776,3.516837 2.64258,4.990235 0.71567,0.629606 1.65906,1.15102 2.68554,1.632812 -1.43643,0.417473 -2.92424,0.73608 -3.96093,0.623047 -0.78712,-0.08582 -2.756048,-0.545101 -4.476566,-1.679687 -1.720518,-1.134586 -3.25333,-2.83428 -3.753907,-5.773438 -0.441048,-2.589611 0.181751,-3.9636 1.339844,-5.101562 1.158094,-1.137963 3.069921,-1.947257 5.138669,-2.435547 a 1.75,1.75 0 0 0 1.30274,-2.103516 1.75,1.75 0 0 0 -2.105471,-1.302734 z" style="color:#000000;fill:#000000;stroke-linecap:round;stroke-linejoin:round;stroke-miterlimit:10;-inkscape-stroke:none"></path>
  </g>
  <path style="stroke-miterlimit:10" id="path15" stroke-linejoin="miter" stroke-linecap="butt" stroke-width="0" stroke="#000000" fill="#ffde00" d="m 68.30127,120.39734 2.1,-39.8 c 0,0 7.31032,1.84925 10.97939,1.66029 4.05829,-0.20901 12.32061,-2.86029 12.32061,-2.86029 l 2.2,43 c 0,0 -6.402,1.9 -10.225,1.9 -4.88209,0 -17.375,-3.9 -17.375,-3.9 z"></path>
  <path style="stroke-miterlimit:10" id="path16" stroke-linejoin="miter" stroke-linecap="butt" stroke-width="0" stroke="#000000" fill="#9a3b00" d="m 70.44297,173.48898 -0.3,-52.4 24.06464,2.18047 0.80489,33.15192 c 0,0 10.13244,2.42493 13.36964,4.62747 2.65805,1.80849 4.66083,7.64014 4.66083,7.64014 0,0 -8.84209,4.95575 -25.00006,-5.5975 -4.73338,-3.09151 -6.19994,-27.2025 -6.19994,-27.2025 l -3.79279,26.51897 c 0,0 26.15957,21.29119 0.18092,19.37023 -3.97924,-0.29424 -7.78813,-8.28919 -7.78813,-8.28919 z"></path>
  <path style="stroke-miterlimit:10" id="path17" stroke-linejoin="miter" stroke-linecap="butt" stroke-width="0.5" stroke="none" fill="#000000" d="M 67.04458,42.30656 C 66.56946,41.6378 66.63056,41.05982 66.82954,40.63447 66.40496,40.0367 66.53475,39.26996 66.53475,39.26996 l 0.12694,0.35707 C 66.071,37.68791 65.39764,35.81497 64.90874,33.84532 63.16587,21.36549 69.67455,9.2243 79.94406,2.86485 c 0,0 1.48891,-0.9196 2.4085,0.56931 0.21152,0.34248 0.29562,0.6548 0.29972,0.93276 l 0.51091,1.19102 c 0.19642,0.64416 0.39283,1.28831 0.58925,1.93247 5.05626,11.69205 0.13206,26.59768 -11.03458,32.9208 0,0 -0.0782,0.0442 -0.20907,0.0949 -0.57167,0.49566 -1.17963,0.9492 -1.81596,1.35079 l -1.20808,0.86275 c 0,0 -1.4266,1.01356 -2.44016,-0.41307 z m 4.39781,-5.67332 c 0,0 0.70094,-0.8313 1.65306,-0.63082 8.2459,-6.09268 11.4019,-17.9104 7.37073,-27.30765 -0.16607,-0.5446 -0.33212,-1.08919 -0.49818,-1.63381 -7.97397,5.81001 -13.07196,15.84581 -11.62317,26.1186 0.42213,1.69938 1.00689,3.32609 1.53019,4.99251 0.57614,-0.4553 1.10401,-0.97532 1.56737,-1.53885 z"></path>
  <path style="stroke-miterlimit:10" id="path18" stroke-linejoin="miter" stroke-linecap="butt" stroke-width="0.5" stroke="none" fill="#b399ff" d="m 71.42869,36.68153 c -0.46335,0.56356 -0.99441,1.08253 -1.57056,1.53783 -0.52331,-1.66642 -1.11929,-3.29882 -1.54143,-4.99822 -1.44879,-10.2728 3.6913,-20.39796 11.66527,-26.20797 0.16607,0.5446 0.33509,1.09015 0.50114,1.63476 4.03116,9.39725 0.84971,21.31127 -7.39618,27.40395 -0.95211,-0.20048 -1.65824,0.62964 -1.65824,0.62964 z"></path>
  <path style="stroke-miterlimit:10" id="path19" stroke-linejoin="miter" stroke-linecap="butt" stroke-width="0.5" stroke="none" fill="#000000" d="M 0.09603,4.48216 C -0.41221,2.80758 1.26237,2.29935 1.26237,2.29935 L 3.04928,1.76334 C 4.37421,1.47957 5.70967,1.24057 7.05134,1.0512 c 15.17081,-3.18255 28.5372,1.06612 40.84835,9.97695 10.48252,8.54956 14.17895,16.35161 13.9796,29.51967 0.092,0.16198 0.16684,0.35625 0.21682,0.58899 0.32729,1.52416 -0.9947,1.98215 -1.28731,2.064 -0.14074,0.0531 -0.30037,0.0902 -0.48145,0.10572 l -1.53025,0.3286 C 46.29571,46.31303 26.16478,48.96384 15.89206,39.20641 6.1204,30.025 2.03555,18.08568 0.0803,5.10193 c 0,0 -0.0407,-0.27095 0.0173,-0.61454 -5.3e-4,-0.0017 -0.001,-0.0035 -0.002,-0.0052 z m 45.67019,9.32061 C 34.30772,5.51152 21.8091,1.37919 7.66367,4.49721 6.36317,4.68076 5.06801,4.90885 3.78405,5.18534 L 3.64039,5.22955 c 1.86449,11.96121 5.62519,22.96705 14.66919,31.44597 8.94326,8.96654 28.81813,5.89183 39.75265,3.53762 l 0.33146,-0.0712 C 58.58923,28.29467 55.2768,21.57085 45.76623,13.80276 Z"></path>
  <path style="stroke-miterlimit:10" id="path20" stroke-linejoin="miter" stroke-linecap="butt" stroke-width="0.5" stroke="none" fill="#b399ff" d="m 45.80886,13.77657 c 9.51057,7.76809 12.82227,14.54546 12.62673,26.39273 l -0.33167,0.0715 C 47.1694,42.59501 27.21872,45.67856 18.27546,36.71202 9.23147,28.2331 5.46247,17.16433 3.59799,5.20312 L 3.74174,5.15877 C 5.0257,4.88228 6.32337,4.65056 7.62387,4.467 21.76929,1.34898 34.35035,5.48532 45.80885,13.77657 Z"></path>
  <path style="stroke-miterlimit:10" id="path21" stroke-linejoin="miter" stroke-linecap="butt" stroke-width="0.5" stroke="none" fill="#906bff" d="m 10.81083,20.37195 c -0.31078,-1.44724 1.13646,-1.75801 1.13646,-1.75801 l 1.42924,-0.26169 c 2.90713,0.11277 4.89908,3.9e-4 7.77307,-0.5971 -2.65628,-1.64333 -5.73198,-2.52073 -8.37486,-4.18934 l -0.86569,-0.55962 c 0,0 -1.24309,-0.80359 -0.4395,-2.04667 0.80359,-1.24309 2.04667,-0.4395 2.04667,-0.4395 l 0.86569,0.55962 c 2.71385,1.81108 6.00498,2.68704 8.78343,4.45061 2.89961,1.88372 6.13348,3.59304 9.37669,5.3624 -0.58447,-2.72179 -1.16894,-5.44359 -1.75341,-8.16537 l -0.0765,-0.35633 c 0,0 -0.31078,-1.44724 1.13646,-1.75801 1.44724,-0.31078 1.75801,1.13646 1.75801,1.13646 0.76613,3.56774 1.6041,7.47005 2.37469,11.05857 4.68198,2.6866 9.13857,5.67782 12.36039,9.70157 0,0 0.9252,1.15544 -0.23029,2.08063 -0.45002,0.36033 -1.68336,0.5213 -1.68336,0.5213 -4.24794,0.91219 -8.33816,1.00654 -12.66301,1.20763 l -1.30503,-0.51532 c 0,0 -1.24309,-0.80359 -0.4395,-2.04667 0.80359,-1.24309 2.04667,-0.4395 2.04667,-0.4395 l -0.4394,0.0443 c 3.63747,-0.1685 7.098,-0.24683 10.63917,-0.84927 -1.98626,-1.76204 -4.22962,-2.91237 -6.5003,-4.63638 -4.48461,-3.40493 -13.08507,-7.79373 -13.08507,-7.79373 -3.1975,0.68662 -8.22034,1.31413 -11.40403,1.2286 l -0.70867,0.1974 c 0,0 -1.44724,0.31078 -1.75801,-1.13646 z"></path>
  <path style="stroke-miterlimit:10" id="path22" stroke-linejoin="miter" stroke-linecap="butt" stroke-width="0.5" stroke="none" fill="#000000" d="m 81.84368,129.37384 c 1.56525,-0.78262 2.34787,0.78262 2.34787,0.78262 l 0.35142,1.11596 c -0.005,6.5258 0.95356,13.32802 1.97903,19.72988 0.49167,3.06942 -0.016,6.46358 1.08227,9.33873 0,0 0.0534,0.14672 0.0844,0.36844 7.10721,7.99793 30.26078,12.58962 20.14621,2.40363 -3.33038,-2.32577 -7.60636,-4.63532 -11.68721,-4.93004 l -1.94774,-0.16231 c -0.59425,-0.0219 -0.97537,-0.2529 -1.2198,-0.54029 -0.26619,-0.26755 -0.46485,-0.66674 -0.43709,-1.26111 0.004,-3.92556 0.5047,-7.76369 0.66815,-11.68631 0.279,-6.69565 -0.33485,-13.4006 -0.33485,-20.09394 v -0.5 c 0,0 0,-1.75 1.75,-1.75 v -1e-5 c 1.75,0 1.75,1.75 1.75,1.75 v 0.5 c 0,6.74211 0.61285,13.49434 0.33182,20.2394 -0.13972,3.35359 -0.53274,6.64778 -0.63861,9.98592 l 0.36878,0.0307 c 4.86914,0.44756 9.6694,2.94797 13.64612,5.73664 14.10755,14.02792 -13.40371,15.81461 -25.10846,2.49304 0,0 -0.36646,-0.41881 -0.4499,-0.99074 -0.14607,-0.21821 -0.21106,-0.39695 -0.21106,-0.39695 -1.93511,-5.52317 -1.20014,-12.25109 -1.92558,-18.05089 -0.0759,-0.60653 -0.15828,-1.20628 -0.2437,-1.8015 -0.36399,2.40993 -0.6677,4.82074 -0.94732,7.11903 -0.32508,2.67186 0.26807,5.40165 -0.17892,8.0878 -0.29897,1.79662 -0.95286,3.31656 -1.22304,5.06182 4.34452,2.94412 8.68618,6.34882 10.75445,11.25743 5.77442,11.90937 -22.05773,20.39151 -22.33911,-7.51051 -0.44218,-0.5992 -0.31167,-1.38224 -0.31167,-1.38224 1.99922,-11.93996 -0.3484,-23.73052 -0.35714,-35.7123 0,-2 0,-4 0,-6 v -0.66667 c 0,0 0,-1.75 1.75,-1.75 h 10e-6 c 1.75,0 1.75,1.75 1.75,1.75 0,2 0,4.66667 0,6.66667 -0.009,11.999 2.25393,23.74554 0.40265,35.70687 0.26401,0.46386 0.26401,0.9598 0.26401,0.9598 0,22.67386 19.08627,15.99173 15.65874,9.39495 -1.86702,-4.53814 -6.21741,-7.6141 -10.2128,-10.2722 l -0.41051,-0.4739 c -0.0803,-0.0745 -0.14864,-0.15505 -0.20674,-0.23865 l -0.31203,-0.3602 c 0,0 -0.97663,-1.30218 0.20976,-2.33671 0.32155,-1.57592 0.85546,-3.0192 1.13043,-4.66579 0.43673,-2.61532 -0.15559,-5.29829 0.1544,-7.9122 0.62586,-5.27734 1.43611,-11.08336 2.70768,-16.22642 l 0.12793,-1.12596 c 0,0 0.0959,-0.76692 0.66985,-1.21771 0.14642,-0.1699 0.34682,-0.32855 0.61735,-0.46381 z"></path>
  <path style="stroke-miterlimit:10" id="path24" stroke-linejoin="miter" stroke-linecap="butt" stroke-width="0.25" stroke="none" fill="#ff6e00" d="M 66.20052,76.51471 C 56.50177,70.85792 49.9392,57.89755 49.99839,46.65033 50.98696,33.27965 73.75273,30.57312 83.59408,35.97517 94.99211,40.31232 107.36817,54.52626 102.7703,67.66829 98.08866,81.9856 82.24548,84.1 69.61955,78.82955 68.78349,78.48175 67.94712,78.11714 67.1257,77.73581 66.94881,76.951 66.20054,76.5147 66.20054,76.5147 Z"></path>
  <path style="stroke-miterlimit:10" id="path23" stroke-linejoin="miter" stroke-linecap="butt" stroke-width="0.5" stroke="none" fill="#000000" d="m 97.10484,92.91227 c 3.92674,0 6.77208,0.32875 10.44632,1.73652 13.63303,9.81431 -3.26942,23.28933 0.60763,27.22423 0.53488,0.54286 1.48076,-0.50273 2.05307,-1.00596 2.90851,-2.55746 4.80196,-4.63215 8.5736,-2.33304 2.02183,1.00348 3.89277,1.94776 6.06405,2.6401 3.04572,0.97118 3.96775,-5.20551 1.92674,-6.66926 -1.91428,-1.37286 -4.29066,1.87616 -6.98959,0.0602 -3.32245,-2.23555 -1.47882,-13.30097 -2.29475,-16.87609 -3.0655,-12.367 -7.72068,-21.42577 -22.2676,-14.78424 -0.0799,3.42044 0.0938,6.81862 0.38112,10.20681 z m 23.79344,3.97251 c 0.49993,2.29979 -0.3101,14.10819 1.20469,15.05635 1.12195,0.70227 4.34761,-1.8214 6.57077,-0.37728 7.3313,4.76225 2.05131,16.88516 -11.6936,9.96863 -3.24583,-3.14977 -8.88998,10.33117 -12.58901,0.0807 -2.80601,-7.77575 12.09185,-16.42347 1.51435,-23.87548 -3.13776,-1.14419 -5.44216,-1.32549 -8.80064,-1.32549 l -1.16928,0.18323 c 0.65992,6.40106 1.55439,12.78144 1.73417,19.22428 0.0719,0.6407 0.14389,1.28143 0.21583,1.92213 l 0.31642,1.04581 c 0,0 0.0853,0.30462 0.0538,0.69108 0.0608,0.0828 0.1191,0.17517 0.1742,0.27809 l -1e-5,-4e-5 c 0.82597,1.54281 -0.71683,2.36879 -0.71683,2.36879 l 0.0341,-0.0825 c -6.35775,5.74299 -16.10727,4.34075 -23.63933,2.17498 -2.77056,-0.79665 -5.08031,-1.29556 -7.37118,-3.14372 0,0 -1.10286,-0.91196 -0.48926,-2.08382 -0.0146,-0.52213 -0.0301,-1.07965 -0.0433,-1.55308 -0.11797,-4.34122 -0.0799,-8.73846 0.0939,-13.14501 -4.24019,2.42826 -10.03091,5.13659 -12.29815,9.56333 h 2e-5 c -0.57553,1.12372 -0.81454,2.39455 -1.33872,3.54313 -1.33861,5.28268 5.75077,10.01102 2.68556,14.55605 -6.73053,9.97989 -11.1335,-4.54573 -14.23252,-6.29706 -1.34777,-0.76166 -2.22209,2.18223 -3.50994,3.04133 -1.55188,1.03523 -3.19351,1.15929 -4.9827,1.53544 -13.7364,-1.24174 -10.80256,-13.77526 0.58605,-15.14933 2.57211,-0.31033 3.35756,1.47443 5.29634,1.63727 0.27183,0.0228 -0.32529,-0.49075 -0.29801,-0.76216 0.39529,-3.93294 2.96764,-9.34345 4.4156,-13.01671 6.65353,-11.15047 11.13715,-19.88163 23.22346,-23.37397 -0.21032,-0.10491 -0.42004,-0.21097 -0.62919,-0.31806 l -1.49991,-1.46795 c 0,0 -0.14912,-0.14912 -0.29206,-0.39558 -9.24165,-6.49211 -15.03151,-18.86287 -15.07635,-30.05187 1.2085,-15.2405 24.8848,-19.45897 36.62627,-13.09257 12.66775,4.92037 24.50687,19.88495 19.92549,34.1417 -1.34578,3.97519 -3.45823,7.12405 -6.09052,9.50985 0.80416,-0.212 -0.0439,1.56842 -0.0987,1.96526 -0.22672,1.64258 -5.01108,5.79628 -2.73207,6.77426 6.08068,2.60938 22.69563,1.43436 24.92034,10.24999 z m -75.14127,7.61424 c -1.06098,2.59571 -2.73962,14.11329 -5.57346,15.29427 -4.04542,1.6859 -7.07708,-2.74283 -11.75439,0.71534 -2.21483,1.63753 -1.97549,5.6093 0.83663,6.08089 1.0403,0.17446 2.1126,0.0334 3.16089,0.1506 3.15797,-0.69499 6.65431,-5.40912 9.81268,-4.39642 1.54628,0.4958 6.55039,13.34051 10.17457,7.70112 0.13944,-0.21697 -4.16124,-9.3403 -3.05728,-13.79924 0.58824,-1.29914 0.85843,-2.73772 1.53271,-3.99436 2.92026,-5.44241 9.45424,-8.45111 14.47361,-11.46616 l 1.13859,-0.65102 C 66.8457,94.23301 67.42148,88.34166 68.17995,82.57212 56.04563,85.4943 52.22483,93.78497 45.75702,104.49903 Z M 67.9916,76.75768 c 0.77558,0.36005 1.5597,0.70203 2.3491,1.03042 2.04185,0.85233 4.17099,1.50096 6.31981,1.92274 10.39704,2.04076 21.25509,-1.22926 24.91835,-12.43218 4.34128,-12.40861 -7.31257,-25.76319 -18.07451,-29.8583 -9.29213,-5.10058 -30.72604,-2.57422 -31.65944,10.05028 -0.0559,10.61955 6.11843,22.79441 15.27592,28.13551 0,0 0.70375,0.41052 0.87077,1.15153 z m 1.71117,40.58216 c 0.0151,0.54083 0.0302,1.08166 0.0453,1.62249 1.61849,1.05622 3.40553,1.33886 5.34341,1.8968 5.90309,1.69958 14.586,3.43794 19.80241,-0.95705 -0.0435,-0.10386 -0.0624,-0.1711 -0.0624,-0.1711 l -0.42436,-1.60124 c -0.0763,-0.68901 -0.15263,-1.37801 -0.22894,-2.06702 -0.31682,-11.35426 -2.77706,-22.50607 -2.42917,-33.92181 -6.06667,2.25189 -13.23532,2.08959 -19.96885,-0.093 -1.57935,11.54045 -2.41178,23.63589 -2.0774,35.29188 z"></path>
  <path style="stroke-miterlimit:10" id="path25" stroke-linejoin="miter" stroke-linecap="butt" stroke-width="0.5" stroke="none" fill="#ffde00" d="m 95.56101,93.08853 c -0.28732,-3.38819 -0.44977,-6.80087 -0.36983,-10.22131 14.54692,-6.64153 19.27784,2.42854 22.34334,14.79554 0.81593,3.57512 -1.09679,14.62427 2.22566,16.85982 2.69893,1.81601 5.13962,-1.35791 7.0539,0.0149 2.04101,1.46375 1.10901,7.64927 -1.93671,6.67809 -2.17128,-0.69234 -4.05066,-1.63206 -6.07249,-2.63554 -3.77164,-2.29911 -5.6879,-0.22061 -8.59641,2.33685 -0.57231,0.50323 -1.52292,1.54827 -2.0578,1.00541 -3.87705,-3.9349 13.00794,-17.50222 -0.62509,-27.31653 -3.67424,-1.40777 -6.45083,-1.66833 -10.37757,-1.66833 z"></path>
  <path style="stroke-miterlimit:10" id="path26" stroke-linejoin="miter" stroke-linecap="butt" stroke-width="0.5" stroke="none" fill="#ffde00" d="M 45.72794,104.45833 C 52.19575,93.74427 56.07785,85.45606 68.21217,82.53388 67.4537,88.30342 66.89268,94.2159 66.54854,100.11693 l -1.13839,0.65158 c -5.01937,3.01505 -11.57368,6.08246 -14.49394,11.52487 -0.67428,1.25664 -0.96177,2.70212 -1.55001,4.00126 -1.10396,4.45894 3.19748,13.58212 3.05804,13.79909 -3.62418,5.63939 -8.65501,-7.20701 -10.20129,-7.70281 -3.15837,-1.0127 -6.66875,3.69386 -9.82672,4.38885 -1.04829,-0.1172 -2.12429,0.0207 -3.16459,-0.15374 -2.81212,-0.47159 -2.97645,-4.50869 -0.76162,-6.14622 4.67731,-3.45817 7.69311,0.95607 11.73853,-0.72983 2.83384,-1.18098 4.4584,-12.69595 5.51938,-15.29166 z"></path>
  <path style="stroke-miterlimit:10" id="path27" stroke-linejoin="miter" stroke-linecap="butt" stroke-width="0.5" stroke="none" fill="#000000" d="m 78.73275,62.38581 c -1.75,0 -1.75,-1.75 -1.75,-1.75 v -1.74972 c 0,-4.20574 0.0435,-8.53345 -0.42673,-12.71095 0,0 -0.19326,-1.7393 1.54604,-1.93255 1.7393,-0.19325 1.93255,1.54604 1.93255,1.54604 0.47313,4.30875 0.44814,8.76157 0.44814,13.09747 v 1.74972 c 0,0 0,1.75 -1.75,1.75 z"></path>
  <path style="stroke-miterlimit:10" id="path28" stroke-linejoin="miter" stroke-linecap="butt" stroke-width="0.5" stroke="none" fill="#000000" d="m 94.46656,59.40828 c 1.56525,0.78262 0.78262,2.34788 0.78262,2.34788 l -0.98221,1.9351 c -0.75412,0.88902 -2.42647,2.97779 -3.38117,3.58265 -8.64538,5.47739 -17.99431,0.51495 -23.90156,-6.25507 0,0 -1.13889,-1.3287 0.18982,-2.46759 1.3287,-1.13888 2.46758,0.18982 2.46758,0.18982 5.63274,6.72635 15.06019,10.66564 21.70953,3.01417 l 0.76751,-1.56434 c 0,0 0.78262,-1.56525 2.34787,-0.78263 z"></path>
  <path style="stroke-miterlimit:10" id="path29" stroke-linejoin="miter" stroke-linecap="butt" stroke-width="0.5" stroke="none" fill="#000000" d="m 86.38777,60.63608 c -1.75,0 -1.75,-1.75 -1.75,-1.75 v -2.18715 c 0,-4.1498 0.16496,-8.14869 0.66966,-12.24641 0,0 0.21706,-1.73649 1.95355,-1.51943 1.73649,0.21706 1.51943,1.95355 1.51943,1.95355 -0.50284,3.95696 -0.64263,7.80589 -0.64263,11.81229 v 2.18715 c 0,0 0,1.75 -1.75,1.75 z"></path>
  <g id="path30">
    <path id="path82" d="m 101.52896,22.53449 c 0,0 1.15765,-0.46555 2.40132,-0.0961 0.98543,0.29277 1.26499,1.12486 1.26499,1.12486 0,0 -2.3076,0.45795 -3.27093,2.01357 0,0 2.60074,-1.39244 3.23625,1.7768 0,0 -2.38839,-0.13288 -3.11125,0.96308 0,0 2.11986,0.0613 1.69355,2.32008 0,0 -2.11263,-0.43563 -2.89954,0.49083 l -2.31328,-4.2912 z" style="color:#000000;fill:#ffffff;stroke-linecap:round;stroke-linejoin:round;stroke-miterlimit:10;-inkscape-stroke:none"></path>
    <path id="path83" d="m 101.93555,20.623047 c -0.64909,0.108523 -1.0586,0.287109 -1.0586,0.287109 a 1.750175,1.750175 0 0 0 -0.7832,0.623047 l -3,4.302734 a 1.750175,1.750175 0 0 0 -0.103516,1.830079 l 2.3125,4.292968 a 1.750175,1.750175 0 0 0 2.874996,0.300782 c -0.19439,0.228869 0.0168,0.02994 0.42969,0.02539 0.41293,-0.0045 0.78125,0.06641 0.78125,0.06641 a 1.750175,1.750175 0 0 0 2.07422,-1.390625 c 0.12878,-0.682351 -0.0293,-1.31257 -0.2207,-1.904296 a 1.750175,1.750175 0 0 0 1.63476,-2.046875 c -0.15793,-0.787589 -0.56222,-1.361641 -0.97265,-1.921875 a 1.750175,1.750175 0 0 0 0.94922,-2.082032 c 0,0 -0.65924,-1.719301 -2.42579,-2.24414 -0.95626,-0.284073 -1.8431,-0.247195 -2.49218,-0.138672 z m -1.23438,6.158203 a 1.750175,1.750175 0 0 0 0.47071,0.07813 c -0.14524,0.135182 -0.30738,0.196005 -0.43946,0.373047 l -0.15039,-0.279297 z" style="color:#000000;fill:#ffffff;stroke-linecap:round;stroke-linejoin:round;stroke-miterlimit:10;-inkscape-stroke:none"></path>
  </g>
  <path style="stroke-miterlimit:10" id="path31" stroke-linejoin="miter" stroke-linecap="butt" stroke-width="0" stroke="#000000" fill="#e7eeff" d="m 55.62626,156.52218 c 0,0 -1.48517,-6.07229 0.43696,-12.49393 2.69837,-9.01501 14.22971,-36.50607 14.22971,-36.50607 0,0 21.40953,2 26.25,2 0.7248,0 6.25,21.66667 6.25,21.66667 l 11.5,26.83333 c 0,0 -2.04513,6.16667 -31.91667,5.33333 -8.46668,-0.2362 -26.75,-6.83333 -26.75,-6.83333 z"></path>
  <path style="stroke-miterlimit:10" id="path32" stroke-linejoin="miter" stroke-linecap="butt" stroke-width="0" stroke="#000000" fill="#3c3945" d="M 57.82271,115.09361 36.67985,106.5579 c 0,0 10.54781,-17.72144 19.88253,-21.14525 4.37464,-1.60454 12.11159,-3.21959 20.78434,-4.11649 1.63806,-0.1694 3.73807,6.82968 5.42654,6.71643 2.92811,-0.1964 5.47887,-7.44385 8.42417,-7.43103 6.67976,0.0291 13.18442,0.6621 18.51933,2.19773 8.7406,2.51595 12.82024,14.35003 12.82024,14.35003 l -15.42857,9.82143 c 0,0 -6.92692,-7.46922 -9.92987,-6.97308 -1.34051,0.22148 -3.60398,1.61175 -6.50254,1.61776 -6.22807,0.0129 -15.02654,-1.30156 -21.35569,1.30619 -8.09513,3.33537 -11.49761,12.19199 -11.49761,12.19199 z"></path>
  <path style="stroke-miterlimit:10" id="path33" stroke-linejoin="miter" stroke-linecap="butt" stroke-width="0.5" stroke="none" fill="#000000" d="m 86.56354,60.75091 c -1.75,0 -1.75,-1.75 -1.75,-1.75 v -2.18715 c 0,-4.1498 0.16496,-8.14869 0.66966,-12.24641 0,0 0.21706,-1.73649 1.95355,-1.51943 1.73649,0.21706 1.51943,1.95355 1.51943,1.95355 -0.50284,3.95696 -0.64263,7.80589 -0.64263,11.81229 v 2.18715 c 0,0 0,1.75 -1.75,1.75 z"></path>
  <g id="path34">
    <path id="path80" d="m 101.70477,22.64932 c 0,0 1.15765,-0.46555 2.40132,-0.0961 0.98543,0.29277 1.26499,1.12486 1.26499,1.12486 0,0 -2.3076,0.45795 -3.27093,2.01357 0,0 2.60074,-1.39244 3.23625,1.7768 0,0 -2.38839,-0.13288 -3.11125,0.96308 0,0 2.11986,0.0613 1.69355,2.32008 0,0 -2.11263,-0.43563 -2.89954,0.49083 l -2.31328,-4.2912 z" style="color:#000000;fill:#ffffff;stroke-linecap:round;stroke-linejoin:round;stroke-miterlimit:10;-inkscape-stroke:none"></path>
    <path id="path81" d="m 102.11133,20.738281 c -0.64908,0.108523 -1.0586,0.28711 -1.0586,0.28711 a 1.750175,1.750175 0 0 0 -0.7832,0.623046 l -2.999999,4.302735 a 1.750175,1.750175 0 0 0 -0.103515,1.830078 l 2.3125,4.291016 A 1.750175,1.750175 0 0 0 102.35352,32.375 c -0.1944,0.228869 0.0168,0.02994 0.42968,0.02539 0.41293,-0.0045 0.78125,0.06445 0.78125,0.06445 a 1.750175,1.750175 0 0 0 2.07422,-1.388672 c 0.12892,-0.683042 -0.0288,-1.314081 -0.2207,-1.90625 A 1.750175,1.750175 0 0 0 107.05273,27.125 c -0.15793,-0.787589 -0.56222,-1.361641 -0.97265,-1.921875 a 1.750175,1.750175 0 0 0 0.94922,-2.082031 c 0,0 -0.65923,-1.721254 -2.42578,-2.246094 -0.95627,-0.284073 -1.84311,-0.245241 -2.49219,-0.136719 z m -1.23438,6.158203 a 1.750175,1.750175 0 0 0 0.47071,0.07813 c -0.14523,0.135183 -0.30738,0.196006 -0.43946,0.373047 l -0.15039,-0.279297 z" style="color:#000000;fill:#ffffff;stroke-linecap:round;stroke-linejoin:round;stroke-miterlimit:10;-inkscape-stroke:none"></path>
  </g>
  <g id="path35">
    <path id="path78" d="m 89.7933,32.06231 c 3.82812,-7.62939 11.55708,-12.07887 11.55708,-12.07887 0,0 2.92079,7.58244 -0.4482,19.58666" style="color:#000000;fill:#5500ff;stroke-linecap:round;stroke-miterlimit:10;-inkscape-stroke:none"></path>
    <path id="path79" d="m 102.24805,17.447266 -1.77149,1.019531 c 0,0 -8.118803,4.581026 -12.248044,12.810547 a 1.75,1.75 0 0 0 0.779296,2.349609 1.75,1.75 0 0 0 2.34961,-0.779297 c 2.650299,-5.282008 6.598392,-8.2995 8.822268,-9.83789 0.19658,0.80445 0.32005,0.811361 0.46679,2.423828 0.29186,3.20691 0.19336,7.880926 -1.429683,13.664062 a 1.75,1.75 0 0 0 1.212893,2.158203 1.75,1.75 0 0 0 2.1582,-1.21289 c 1.74595,-6.221072 1.87122,-11.340424 1.54492,-14.925782 -0.32629,-3.585357 -1.14843,-5.763671 -1.14843,-5.763671 z" style="color:#000000;fill:#000000;stroke-linecap:round;stroke-miterlimit:10;-inkscape-stroke:none"></path>
  </g>
  <g id="path36">
    <path id="path76" d="m 102.61086,49.16578 c 0,0 6.0646,-8.29356 6.96447,-9.7668 1.21713,-1.99264 2.36109,-5.19723 1.00733,-9.2469 0,0 -6.67816,3.16308 -13.64396,3.26493 -6.89463,0.10081 -9.93137,-3.83189 -27.35384,-3.63294 -24.7174,0.54541 -27.28153,14.21936 -20.78361,28.5819 0.38934,0.86057 0.69627,1.72603 0.92927,2.5927" style="color:#000000;fill:#5500ff;stroke-linecap:round;stroke-linejoin:round;stroke-miterlimit:10;-inkscape-stroke:none"></path>
    <path id="path77" d="m 69.546875,28.035156 c -12.679824,0.279791 -20.275918,4.010483 -23.591797,10.011719 -3.315879,6.001236 -2.118609,13.590966 1.251953,21.041016 0.350086,0.773806 0.625187,1.547573 0.833985,2.324218 a 1.75,1.75 0 0 0 2.144531,1.236328 1.75,1.75 0 0 0 1.234375,-2.144531 C 51.16272,59.547213 50.825077,58.591863 50.396484,57.644531 47.269133,50.732056 46.498481,44.30295 49.019531,39.740234 c 2.520589,-4.561882 8.564495,-7.940323 20.597656,-8.207031 8.569479,-0.09678 13.46856,0.807073 17.169922,1.728516 3.703441,0.92196 6.394041,1.95962 10.177735,1.904297 5.740916,-0.08394 10.135476,-1.737535 12.332036,-2.652344 0.3689,2.583302 -0.36916,4.588129 -1.21485,5.972656 -0.2998,0.490822 -2.12151,3.072291 -3.74609,5.324219 -1.62458,2.251928 -3.13672,4.322265 -3.13672,4.322265 a 1.75,1.75 0 0 0 0.37891,2.445313 1.75,1.75 0 0 0 2.44531,-0.378906 c 0,0 1.51966,-2.076687 3.15234,-4.339844 1.63268,-2.263157 3.29251,-4.566411 3.89258,-5.548828 1.39793,-2.288641 2.70958,-6.118806 1.17383,-10.712891 a 1.750175,1.750175 0 0 0 -2.40821,-1.027344 c 0,0 -6.46737,3.003311 -12.919918,3.097657 -3.110929,0.04549 -5.387053,-0.833287 -9.28125,-1.802735 -3.894196,-0.969448 -9.224324,-1.931069 -18.068359,-1.830078 a 1.750175,1.750175 0 0 0 -0.01758,0 z" style="color:#000000;fill:#000000;stroke-linecap:round;stroke-linejoin:round;stroke-miterlimit:10;-inkscape-stroke:none"></path>
  </g>
  <g id="path37">
    <path id="path74" d="m 102.32617,36.7762 c 0,0 11.42949,8.81659 8.0541,19.38641 -2.96972,9.29945 -17.30708,8.09146 -17.30708,8.09146 0,0 9.53847,-3.53459 5.83649,-12.2669" style="color:#000000;fill:#5500ff;stroke-linecap:round;stroke-linejoin:round;stroke-miterlimit:10;-inkscape-stroke:none"></path>
    <path id="path75" d="m 102.10156,35.041016 a 1.75,1.75 0 0 0 -1.16015,0.666015 1.75,1.75 0 0 0 0.3164,2.455078 c 0,0 2.65638,2.058519 4.92188,5.337891 2.2655,3.279372 4.00387,7.525551 2.5332,12.130859 -1.22991,3.851362 -4.81477,5.559785 -8.47266,6.355469 -0.46474,0.101094 -0.791296,0.07318 -1.24023,0.142578 2.04325,-2.363145 3.49183,-6.176519 1.52148,-10.824219 a 1.75,1.75 0 0 0 -2.294918,-0.927734 1.75,1.75 0 0 0 -0.927734,2.292969 c 1.607056,3.790758 0.425406,5.86226 -1.173828,7.505859 -1.599234,1.6436 -3.660156,2.4375 -3.660156,2.4375 a 1.750175,1.750175 0 0 0 0.460937,3.384766 c 0,0 3.805382,0.333385 8.058599,-0.591797 4.25321,-0.925182 9.32269,-3.262858 11.0625,-8.710938 1.90471,-5.9645 -0.3829,-11.412222 -2.98829,-15.183593 -2.60539,-3.771371 -5.66406,-6.121094 -5.66406,-6.121094 a 1.75,1.75 0 0 0 -1.29297,-0.349609 z" style="color:#000000;fill:#000000;stroke-linecap:round;stroke-linejoin:round;stroke-miterlimit:10;-inkscape-stroke:none"></path>
  </g>
  <g id="path38">
    <path id="path72" d="m 64.72992,60.17384 c 0,0 -5.44544,9.3381 7.80198,11.57322 0,0 -5.60233,2.97564 -9.4301,2.55828 -2.15248,-0.23469 -8.59386,-2.02298 -9.76491,-8.89886 -1.03206,-6.05978 3.33017,-8.47846 7.80177,-9.53389" style="color:#000000;fill:#5500ff;stroke-linecap:round;stroke-linejoin:round;stroke-miterlimit:10;-inkscape-stroke:none"></path>
    <path id="path73" d="m 60.736328,54.169922 c -2.402852,0.567144 -4.906157,1.495526 -6.789062,3.345703 -1.882905,1.850177 -2.926953,4.715379 -2.335938,8.185547 0.670472,3.93671 2.946295,6.568271 5.277344,8.105469 2.331049,1.537197 4.658066,2.089411 6.023437,2.238281 2.450842,0.267227 4.949112,-0.485837 6.945313,-1.220703 1.996201,-0.734866 3.496094,-1.53125 3.496094,-1.53125 a 1.750175,1.750175 0 0 0 -0.53125,-3.271485 c -3.095339,-0.522249 -4.911413,-1.433722 -5.941407,-2.339843 -1.029993,-0.906122 -1.371318,-1.804624 -1.478515,-2.75586 -0.214394,-1.902472 0.839843,-3.871094 0.839843,-3.871094 a 1.75,1.75 0 0 0 -0.630859,-2.392578 1.75,1.75 0 0 0 -2.392578,0.63086 c 0,0 -1.669663,2.700038 -1.294922,6.02539 0.187371,1.662677 0.969711,3.51879 2.644531,4.992188 0.715623,0.629558 1.657218,1.151045 2.683594,1.632812 -1.435892,0.417171 -2.924691,0.736034 -3.960937,0.623047 -0.787107,-0.08582 -2.756043,-0.547053 -4.476563,-1.68164 -1.720519,-1.134588 -3.251376,-2.832322 -3.751953,-5.771485 -0.441044,-2.589606 0.179799,-3.9636 1.337891,-5.101562 1.158091,-1.137963 3.071882,-1.947263 5.140625,-2.435547 a 1.75,1.75 0 0 0 1.300781,-2.105469 1.75,1.75 0 0 0 -2.105469,-1.300781 z" style="color:#000000;fill:#000000;stroke-linecap:round;stroke-linejoin:round;stroke-miterlimit:10;-inkscape-stroke:none"></path>
  </g>
  <g id="path39">
    <path id="path70" d="m 82.25433,46.09907 c 0,0 -4.02516,12.46288 -16.80687,13.60104 -15.30135,1.36251 -15.50737,-12.00635 -15.50737,-12.00635 0,0 14.73046,6.52461 15.65888,-7.48281" style="color:#000000;fill:#5500ff;stroke-linecap:round;stroke-linejoin:round;stroke-miterlimit:10;-inkscape-stroke:none"></path>
    <path id="path71" d="m 65.714844,38.464844 a 1.75,1.75 0 0 0 -1.861328,1.630859 c -0.211316,3.188194 -1.142507,4.886972 -2.261719,5.892578 -1.119212,1.005607 -2.593193,1.415357 -4.22461,1.466797 -3.262833,0.10288 -6.71875,-1.361328 -6.71875,-1.361328 a 1.750175,1.750175 0 0 0 -2.458984,1.626953 c 0,0 0.03265,3.780135 2.279297,7.408203 2.246651,3.628068 6.979749,7.040618 15.134766,6.314453 13.873533,-1.235382 18.316406,-14.80664 18.316406,-14.80664 a 1.75,1.75 0 0 0 -1.126953,-2.203125 1.75,1.75 0 0 0 -2.203125,1.126953 c 0,0 -3.607015,11.355549 -15.296875,12.396484 -7.146318,0.636345 -10.167917,-1.954193 -11.84961,-4.669922 -0.657689,-1.062087 -0.922417,-2.059426 -1.179687,-2.99414 1.459887,0.380781 3.266067,0.723494 5.21289,0.662109 2.167248,-0.06833 4.549261,-0.652668 6.453125,-2.363281 1.903865,-1.710613 3.163122,-4.450116 3.416016,-8.265625 a 1.75,1.75 0 0 0 -1.630859,-1.861328 z" style="color:#000000;fill:#000000;stroke-linecap:round;stroke-linejoin:round;stroke-miterlimit:10;-inkscape-stroke:none"></path>
  </g>
  <g id="path40">
    <path id="path68" d="m 88.94489,38.37089 c 6.5768,2.09621 14.46038,11.31272 6.74766,18.78898 -6.04172,5.85649 -17.13946,2.55543 -17.13946,2.55543 9.82902,-2.25864 9.96474,-6.99213 9.96474,-6.99213 -9.39729,5.15912 -19.07536,1.34936 -19.07536,1.34936 0,0 10.70725,-4.17306 4.84002,-15.8243" style="color:#000000;fill:#5500ff;stroke-linecap:round;stroke-linejoin:round;stroke-miterlimit:10;-inkscape-stroke:none"></path>
    <path id="path69" d="m 74.832031,36.585937 a 1.75,1.75 0 0 0 -1.335937,0.09961 1.75,1.75 0 0 0 -0.777344,2.349609 c 2.703532,5.368717 1.573179,8.348721 -0.03711,10.419922 -1.610289,2.071201 -3.875,2.986328 -3.875,2.986328 a 1.750175,1.750175 0 0 0 -0.0059,3.259766 c 0,0 5.628023,2.161336 12.613281,1.15039 -0.995478,0.401385 -1.809358,0.826705 -3.251953,1.158204 a 1.750175,1.750175 0 0 0 -0.107422,3.382812 c 0,0 2.977911,0.890474 6.75586,0.990234 3.777948,0.09976 8.57627,-0.551478 12.099609,-3.966796 4.328364,-4.195663 4.406404,-9.481822 2.31836,-13.478516 -2.088041,-3.996694 -5.949284,-7.022358 -9.751954,-8.234375 a 1.75,1.75 0 0 0 -2.199218,1.136719 1.75,1.75 0 0 0 1.136718,2.199218 c 2.774124,0.884191 6.143125,3.514861 7.712891,6.519532 1.569766,3.004671 1.732005,6.065113 -1.652344,9.345703 -2.345224,2.273323 -5.762227,2.890764 -8.873047,2.90625 1.223464,-0.745931 2.279921,-1.524422 2.945313,-2.296875 0.778213,-0.903427 1.215761,-1.7689 1.449219,-2.441406 0.233457,-0.672507 0.271484,-1.298829 0.271484,-1.298829 a 1.750175,1.750175 0 0 0 -2.591797,-1.583984 c -5.289189,2.903769 -10.44723,2.675182 -13.845703,2.097656 0.548241,-0.486505 1.102816,-1.027018 1.613281,-1.683593 2.276525,-2.928134 3.566037,-7.860067 0.402344,-14.142579 a 1.75,1.75 0 0 0 -1.013672,-0.875 z" style="color:#000000;fill:#000000;stroke-linecap:round;stroke-linejoin:round;stroke-miterlimit:10;-inkscape-stroke:none"></path>
  </g>
  <path style="stroke-miterlimit:10" id="path41" stroke-linejoin="miter" stroke-linecap="butt" stroke-width="0" stroke="#000000" fill="#dd00ff" d="M 48.61512,38.99227 45.18882,24.85281 48.7283,21.0405 c 0,0 2.70571,2.96434 4.06156,4.88608 1.695,2.40247 5.32003,8.41123 5.32003,8.41123 0,0 -2.97662,0.45473 -5.3615,1.67685 -1.9714,1.01024 -4.13325,2.97762 -4.13325,2.97762 z"></path>
  <g id="path42">
    <path id="path66" d="m 59.64439,29.90145 -3.48164,4.29119 C 54.97839,33.26618 51.79874,33.70181 51.79874,33.70181 51.15711,31.44302 54.34765,31.38174 54.34765,31.38174 53.2597,30.28578 49.665,30.41866 49.665,30.41866 c 0.95649,-3.16924 4.87079,-1.7768 4.87079,-1.7768 -1.44987,-1.55562 -4.92297,-2.01357 -4.92297,-2.01357 0,0 0.42075,-0.83209 1.9039,-1.12486 1.87182,-0.3695 3.61415,0.0961 3.61415,0.0961 z" style="color:#000000;fill:#ffffff;stroke-linecap:round;stroke-linejoin:round;stroke-miterlimit:10;-inkscape-stroke:none"></path>
    <path id="path67" d="m 54.160156,24.419922 c -0.748485,-0.08067 -1.765853,-0.110059 -2.83789,0.101562 -0.900537,0.177764 -1.543729,0.540743 -1.957032,0.888672 -0.413303,0.347929 -0.644531,0.767578 -0.644531,0.767578 a 1.0001,1.0001 0 0 0 0.761719,1.441407 c 0,0 0.638345,0.145743 1.121094,0.25 -0.102599,0.05164 -0.206064,0.02469 -0.306641,0.08789 -0.695756,0.437225 -1.290358,1.179558 -1.589844,2.171875 a 1.0001,1.0001 0 0 0 0.994141,1.289063 c 0,0 0.840504,-0.02952 1.796875,0.06641 0.01488,0.0015 0.01828,0.0081 0.0332,0.0098 -0.145729,0.135147 -0.326394,0.165503 -0.445313,0.349609 -0.364313,0.564019 -0.470256,1.35547 -0.25,2.130859 a 1.0001,1.0001 0 0 0 1.097657,0.71875 c 0,0 0.733849,-0.100056 1.595703,-0.09375 0.861854,0.0063 1.827372,0.232072 2.017578,0.38086 a 1.0001,1.0001 0 0 0 1.392578,-0.158203 l 3.482422,-4.291016 a 1.0001,1.0001 0 0 0 -0.08789,-1.353516 L 55.820312,24.875 a 1.0001,1.0001 0 0 0 -0.43164,-0.242188 c 0,0 -0.48003,-0.132218 -1.228516,-0.21289 z m -0.269531,1.986328 c 0.461456,0.04668 0.641189,0.09627 0.767578,0.125 l 3.628906,3.457031 -2.445312,3.013672 c -0.771284,-0.282865 -1.573296,-0.397035 -2.298828,-0.402344 -0.178656,-0.0013 -0.163309,0.01446 -0.328125,0.01953 0.486316,-0.201778 1.152343,-0.238282 1.152343,-0.238282 a 1.0001,1.0001 0 0 0 0.689454,-1.703125 c -0.904821,-0.911481 -2.128048,-1.051338 -3.207032,-1.160156 0.215476,-0.06549 0.406061,-0.165006 0.652344,-0.175781 0.86149,-0.03769 1.699219,0.242187 1.699219,0.242187 a 1.0001,1.0001 0 0 0 1.066406,-1.623047 c -0.708614,-0.760298 -1.620925,-1.184624 -2.509766,-1.513671 0.388202,-0.0097 0.825849,-0.07207 1.132813,-0.04102 z" style="color:#000000;fill:#ffffff;stroke-linecap:round;stroke-linejoin:round;stroke-miterlimit:10;-inkscape-stroke:none"></path>
  </g>
  <path style="stroke-miterlimit:10" id="path43" stroke-linejoin="miter" stroke-linecap="butt" stroke-width="0" stroke="#000000" fill="#5500ff" d="M 58.09306,34.29521 50.94551,21.33907 c 0,0 5.35606,1.86838 7.7706,3.4109 2.76787,1.76824 7.92182,6.61413 7.92182,6.61413 z"></path>
  <path id="path44" d="m 47.238281,16.898437 -0.753906,1.167969 c 0,0 -1.409542,2.221859 -1.998047,5.859375 -0.588505,3.637517 -0.424964,8.838296 2.353516,15.064453 a 1.75,1.75 0 0 0 2.310547,0.884766 1.75,1.75 0 0 0 0.884765,-2.310547 c -2.506985,-5.61778 -2.584216,-10.048533 -2.09375,-13.080078 0.227597,-1.406759 0.563366,-2.4034 0.857422,-3.150391 2.120254,0.845488 11.30557,4.630626 16.275391,10.802735 a 1.75,1.75 0 0 0 2.460937,0.265625 1.75,1.75 0 0 0 0.265625,-2.460938 C 61.204413,21.74926 48.546875,17.371094 48.546875,17.371094 Z" style="color:#000000;fill:#000000;stroke-linecap:round;stroke-miterlimit:10;-inkscape-stroke:none"></path>
  <path id="path45" d="m 48.693359,18.638672 a 1.75,1.75 0 0 0 -2.43164,0.46289 1.75,1.75 0 0 0 0.46289,2.431641 c 0,0 4.62082,3.326632 6.220703,6.232422 C 55.036787,31.564291 55.634766,34.5 55.634766,34.5 a 1.75,1.75 0 0 0 2.066406,1.361328 1.75,1.75 0 0 0 1.361328,-2.066406 c 0,0 -0.723013,-3.485411 -3.052734,-7.716797 -2.327632,-4.227563 -7.316407,-7.439453 -7.316407,-7.439453 z" style="color:#000000;fill:#000000;stroke-linecap:round;stroke-miterlimit:10;-inkscape-stroke:none"></path>
  <path id="path46" d="m 95.25,107.74219 a 1.75,1.75 0 0 0 -1.228516,2.14844 c 4.255945,15.59827 7.847566,23.78326 10.962896,30.02148 2.97438,5.95598 5.41873,10.18309 7.73046,17.4668 -0.59429,0.7567 -2.27499,2.68013 -6.38867,3.83789 -1.81024,0.50947 -5.02274,0.0785 -8.628904,0.37695 -4.240688,0.351 -8.257289,2.31736 -11.835938,2.29102 -3.005102,-0.13366 -6.626525,-1.54505 -10.375,-2.22852 -3.852802,-0.7025 -7.644256,-2.57144 -10.953125,-3.40234 -5.304353,-1.33202 -7.663103,-2.13618 -8.921875,-2.59766 2.017675,-11.30272 5.21202,-19.14781 8.160156,-25.68945 3.078141,-6.83011 5.934519,-12.41705 6.509766,-19.22461 a 1.75,1.75 0 0 0 -1.597656,-1.89063 1.75,1.75 0 0 0 -1.890625,1.59571 c -0.506052,5.9887 -3.100298,11.17547 -6.212891,18.08203 -3.112593,6.90655 -6.662038,15.46198 -8.716797,27.97656 a 1.750175,1.750175 0 0 0 1.044922,1.89648 c 0,0 3.209697,1.34671 10.773438,3.2461 2.639705,0.66287 6.683765,2.63177 11.177734,3.45117 3.250789,0.59272 6.986259,2.1246 10.888672,2.28711 a 1.750175,1.750175 0 0 0 0.05664,0.002 c 4.745589,0.0459 8.98097,-2.04172 12.181641,-2.30664 3.061072,-0.25337 6.255672,0.35762 9.289062,-0.49609 6.08109,-1.71146 8.91211,-5.85157 8.91211,-5.85157 a 1.750175,1.750175 0 0 0 0.21875,-1.48046 c -2.50895,-8.29607 -5.23835,-12.79742 -8.28906,-18.90625 -3.05072,-6.10884 -6.51215,-13.96146 -10.718753,-29.37891 A 1.75,1.75 0 0 0 95.25,107.74219 Z" style="color:#000000;fill:#000000;stroke-linecap:round;stroke-linejoin:round;stroke-miterlimit:10;-inkscape-stroke:none"></path>
  <g id="path47">
    <path id="path64" d="m 97.26315,109.07583 c 0,0 -6.81081,0.81384 -14.57769,1.30982 -7.22189,0.46118 -14.6873,-0.97169 -14.6873,-0.97169 0,0 -0.46529,-0.64891 -0.54018,-1.93976 -0.068,-1.17211 0.10952,-5.48355 0.10952,-5.48355 0,0 8.398,1.00171 14.3553,0.6415 5.53053,-0.3344 13.098,-0.43254 13.098,-0.43254 0,0 0.76884,1.43008 1.08976,2.41418 0.40623,1.24572 1.15259,4.46202 1.15259,4.46202 z" style="color:#000000;fill:#b399ff;stroke-linecap:round;stroke-linejoin:round;stroke-miterlimit:10;-inkscape-stroke:none"></path>
    <path id="path65" d="m 67.775391,100.25391 a 1.750175,1.750175 0 0 0 -1.957032,1.66406 c 0,0 -0.04384,1.08767 -0.08008,2.32422 -0.03624,1.23654 -0.07363,2.53617 -0.02734,3.33398 0.0486,0.83771 0.22791,1.50706 0.414063,1.98633 0.186153,0.47927 0.451172,0.87109 0.451172,0.87109 a 1.750175,1.750175 0 0 0 1.091797,0.69922 c 0,0 7.600413,1.48076 15.128906,1 7.823442,-0.49959 14.673828,-1.32031 14.673828,-1.32031 a 1.750175,1.750175 0 0 0 1.542969,-1.73633 1.750175,1.750175 0 0 0 -0.04492,-0.39648 c 0,0 -0.709698,-3.12022 -1.195313,-4.60938 -0.421411,-1.29225 -1.210937,-2.69922 -1.210937,-2.69922 a 1.750175,1.750175 0 0 0 -1.564453,-0.92187 c 0,0 -7.57571,0.0966 -13.181641,0.43555 -5.663291,0.34243 -14.041015,-0.63086 -14.041015,-0.63086 z m 1.476562,3.65234 c 2.278509,0.24517 7.711509,0.77896 12.777344,0.47266 4.981901,-0.30123 10.753354,-0.37589 11.884765,-0.39258 0.227832,0.47051 0.412037,0.79836 0.533204,1.16992 0.178869,0.54851 0.357928,1.35052 0.607421,2.36133 -1.516223,0.17403 -5.835092,0.69673 -12.480468,1.12109 -6.177141,0.39447 -11.960237,-0.57513 -13.279297,-0.80664 -0.03396,-0.15243 -0.07676,-0.23343 -0.08984,-0.45898 -0.02172,-0.3743 -0.0043,-1.8171 0.03125,-3.0293 0.0068,-0.23248 0.0086,-0.22207 0.01563,-0.4375 z" style="color:#000000;fill:#000000;stroke-linecap:round;stroke-linejoin:round;stroke-miterlimit:10;-inkscape-stroke:none"></path>
  </g>
  <g id="path48">
    <path id="path62" d="m 89.21357,103.00685 c 0,0 5.78548,28.63526 9.2131,40.88623 2.35196,8.40636 2.91094,26.74041 2.91094,26.74041 0,0 -0.52104,0.39637 -1.74595,0.4041 -2.51074,0.0158 -13.2056,-0.15243 -17.65272,-0.23267 -1.37249,-0.0248 -1.27183,-0.0412 -1.27183,-0.0412 0,0 0.73925,-6.91708 0.2378,-19.03647 -0.39661,-9.5855 -3.00643,-47.87759 -3.00643,-47.87759" style="color:#000000;fill:#b399ff;stroke-linecap:round;stroke-linejoin:round;stroke-miterlimit:10;-inkscape-stroke:none"></path>
    <path id="path63" d="m 88.867187,101.29102 c -0.947786,0.19122 -1.560895,1.11482 -1.36914,2.0625 0,0 5.76355,28.57142 9.24414,41.01171 1.096728,3.91992 1.846972,10.59499 2.277344,16.18555 0.370918,4.81824 0.454678,7.71135 0.490235,8.73633 -2.380554,0.0132 -12.333603,-0.14229 -16.986329,-0.22461 0.171166,-2.0907 0.542219,-7.46619 0.13086,-17.4082 -0.401761,-9.70998 -3.009766,-47.92383 -3.009766,-47.92383 -0.06572,-0.96438 -0.900865,-1.69284 -1.865234,-1.62695 -0.96438,0.0657 -1.692837,0.90086 -1.626953,1.86523 0,0 2.612447,38.36908 3.003906,47.83008 0.497376,12.02091 -0.228516,18.7793 -0.228516,18.77929 0.02206,0.81602 0.478615,1.28602 1.01559,1.78128 1.86e-4,9e-5 0.125403,0.0515 0.169922,0.0664 0.178076,0.0594 0.232654,0.0603 0.283203,0.0684 0.223687,0.0358 0.581231,0.0437 1.511719,0.0605 4.453603,0.0804 15.075137,0.24891 17.695313,0.23242 0.799639,-0.005 1.435679,-0.13991 1.902349,-0.30469 0.46666,-0.16477 0.89062,-0.45703 0.89062,-0.45703 0.44966,-0.34222 0.70644,-0.88049 0.68945,-1.44531 0,0 -0.13907,-4.62079 -0.57617,-10.29883 -0.43711,-5.67804 -1.14321,-12.37294 -2.39844,-16.85938 -3.374639,-12.06161 -9.181637,-40.76171 -9.181638,-40.76171 -0.191221,-0.94779 -1.114822,-1.5609 -2.0625,-1.36914 z m -6.453125,69.53906 c 5.7e-5,0.002 0,0.0176 0,0.0176 h -0.002 c 2.6e-5,-2.5e-4 0.0019,-0.0173 0.002,-0.0176 z" style="color:#000000;fill:#000000;stroke-linecap:round;stroke-linejoin:round;stroke-miterlimit:10;-inkscape-stroke:none"></path>
  </g>
  <path style="stroke-miterlimit:10" id="path49" stroke-linejoin="miter" stroke-linecap="butt" stroke-width="0" stroke="#000000" fill="#b399ff" d="m 75.20959,101.02218 c 0,0 3.33569,-4.08787 2.39688,-6.2659 -1.53442,-3.55987 -9.39688,-14.2341 -9.39688,-14.2341 0,0 4.25697,-0.88422 7.48968,-1.04321 1.74929,-0.086 2.82746,9.33701 6.00133,9.27188 3.05856,-0.0628 5.5484,-6.11713 8.68604,-8.21313 3.99971,-2.67187 8.32295,-1.51555 8.32295,-1.51555 l -15.16667,23 z"></path>
  <path id="path50" d="M 92.115234,78.328125 A 1.750175,1.750175 0 0 0 91,78.767578 c 0,0 -7.18393,6.30872 -10.509766,10.261719 -3.121245,3.709822 -7.84375,11.554683 -7.84375,11.554683 a 1.750175,1.750175 0 0 0 1.496094,2.65821 h 8.964844 a 1.750175,1.750175 0 0 0 1.316406,-0.59766 c 0,0 5.138474,-5.863759 9.369141,-11.078124 3.948045,-4.866031 6.412111,-10.207031 6.412111,-10.207031 a 1.750175,1.750175 0 0 0 -1.216799,-2.447266 c 0,0 -1.894252,-0.430495 -3.228515,-0.542968 -1.368789,-0.115338 -3.644532,-0.04102 -3.644532,-0.04102 z m 0.71875,3.505859 c 0.637531,-0.0083 1.962112,-0.03486 2.63086,0.02148 0.132846,0.0112 0.290343,0.05406 0.480468,0.08203 -0.964185,1.820761 -2.468092,4.462543 -4.86914,7.421875 -3.938824,4.854664 -8.269145,9.799389 -8.779297,10.382812 h -4.976563 c 1.607969,-2.549474 4.004444,-6.268194 5.847657,-8.458984 2.709659,-3.220629 8.877802,-8.744856 9.666015,-9.449219 z" style="color:#000000;fill:#000000;stroke-linecap:round;stroke-linejoin:round;stroke-miterlimit:10;-inkscape-stroke:none"></path>
  <path id="path51" d="m 74.660156,77.365234 a 1.750175,1.750175 0 0 0 -0.402344,0.08594 l -6.83789,2.339844 A 1.750175,1.750175 0 0 0 66.818359,82.75 c 4.902507,4.387201 7.142155,7.652038 8.150391,9.699219 0.504118,1.02359 0.703271,1.743837 0.783203,2.162109 0.07993,0.418273 0.05859,0.369141 0.05859,0.369141 a 1.75,1.75 0 0 0 1.560547,1.919922 1.75,1.75 0 0 0 1.919922,-1.560547 c 0,0 0.04129,-0.63917 -0.101563,-1.386719 -0.142857,-0.747549 -0.451385,-1.768329 -1.082031,-3.048828 -1.048969,-2.129886 -3.372445,-5.143572 -6.957031,-8.691406 L 74.880859,80.9375 c 0.08556,0.03677 0.181113,0.0632 0.425782,0.291016 0.622849,0.579973 1.884293,2.401846 2.648437,3.380859 0.926514,1.18703 2.855469,4.955078 2.855469,4.955078 a 1.75,1.75 0 0 0 2.34375,0.794922 1.75,1.75 0 0 0 0.794922,-2.34375 c 0,0 -1.707291,-3.60408 -3.234375,-5.560547 -0.519615,-0.665725 -1.718029,-2.573517 -3.023438,-3.789062 -0.655526,-0.610362 -1.307811,-0.96504 -1.853515,-1.142579 -0.545705,-0.177538 -1.177735,-0.158203 -1.177735,-0.158203 z" style="color:#000000;fill:#000000;stroke-linecap:round;stroke-linejoin:round;stroke-miterlimit:10;-inkscape-stroke:none"></path>
  <path id="path52" d="m 67.123047,80.509766 c -0.613543,-5.53e-4 -1.474999,0.06516 -2.597656,0.296875 -2.245314,0.463424 -5.533721,1.589213 -10.015625,4.18164 -7.775045,4.497244 -11.454387,9.107006 -13.998047,13.150391 -2.54366,4.043388 -3.948357,7.279098 -7.427735,9.886718 a 1.750175,1.750175 0 0 0 -0.1875,2.63867 c 0,0 5.121514,5.26253 11.359375,7.23633 5.000398,1.58224 12.503907,2.76367 12.503907,2.76367 a 1.750175,1.750175 0 0 0 2.011718,-1.49804 c 0,0 0.798975,-5.504 4.179688,-9.46485 1.395841,-1.63537 3.972171,-4.55237 5.863281,-6.43554 a 1.75,1.75 0 0 0 0.0039,-2.47657 1.75,1.75 0 0 0 -2.474609,-0.004 c -2.041965,2.0334 -4.615891,4.95883 -6.054688,6.64453 -3.224483,3.77781 -4.165865,7.53475 -4.55664,9.49023 -1.958264,-0.33781 -6.744074,-1.1943 -10.419922,-2.35742 -3.860229,-1.22147 -6.985242,-3.82484 -8.529297,-5.19141 3.031782,-2.86316 4.650997,-6.12687 6.689453,-9.36718 2.38681,-3.794061 5.483186,-7.759334 12.791016,-11.986332 4.219657,-2.440738 7.161095,-3.41011 8.96875,-3.783203 0.903827,-0.186546 1.524246,-0.224936 1.886719,-0.224609 0.362472,3.26e-4 0.339843,0.01172 0.339843,0.01172 a 1.75,1.75 0 0 0 2.091797,-1.324218 1.75,1.75 0 0 0 -1.324219,-2.091797 c 0,0 -0.489972,-0.09515 -1.103515,-0.0957 z" style="color:#000000;fill:#000000;stroke-linecap:round;stroke-linejoin:round;stroke-miterlimit:10;-inkscape-stroke:none"></path>
  <path id="path53" d="m 96.748047,99.761719 c -1.265903,0.04862 -2.087891,0.228515 -2.087891,0.228515 a 1.75,1.75 0 0 0 -1.357422,2.068356 1.75,1.75 0 0 0 2.06836,1.35743 c 0,0 2.580246,-0.49667 5.134766,0.25976 2.55452,0.75643 5.0178,2.3497 5.44531,7.82813 a 1.75,1.75 0 0 0 1.88086,1.60742 1.75,1.75 0 0 0 1.60938,-1.88086 c -0.51647,-6.61829 -4.39143,-9.85896 -7.94141,-10.91016 -1.774992,-0.525598 -3.48605,-0.607209 -4.751953,-0.558591 z" style="color:#000000;fill:#000000;stroke-linecap:round;stroke-miterlimit:10;-inkscape-stroke:none"></path>
  <path id="path54" d="m 97.929687,79.646484 a 1.75,1.75 0 0 0 -1.876953,1.613282 1.75,1.75 0 0 0 1.613282,1.876953 c 0,0 2.739064,0.208101 5.960934,0.748047 3.22187,0.539945 6.97985,1.553664 8.41797,2.537109 3.68864,2.522438 6.75232,7.268518 8.78125,11.400391 2.02893,4.131874 3.05078,7.556644 3.05078,7.556644 a 1.75,1.75 0 0 0 2.17774,1.17578 1.75,1.75 0 0 0 1.17578,-2.17578 c 0,0 -1.09937,-3.69603 -3.26172,-8.099613 -2.16235,-4.403581 -5.35966,-9.608907 -9.94727,-12.746094 -2.5597,-1.750422 -6.42003,-2.530418 -9.8164,-3.099609 -3.39638,-0.569191 -6.275393,-0.78711 -6.275393,-0.78711 z" style="color:#000000;fill:#000000;stroke-linecap:round;stroke-miterlimit:10;-inkscape-stroke:none"></path>
  <g id="path55">
    <path id="path60" d="m 127.10833,104.29821 c 0,0 -3.49996,2.82894 -7.90495,5.29071 -0.78282,0.43749 -2.85438,1.31399 -3.99579,1.77891 -4.006,1.63175 -6.84985,1.8979 -6.84985,1.8979 l -2.46699,-5.83288 c 0,0 5.5612,-2.17492 8.93853,-4.0817 3.60139,-2.03328 8.62872,-6.10837 8.62872,-6.10837 z" style="color:#000000;fill:#b399ff;stroke-linecap:round;stroke-linejoin:round;stroke-miterlimit:10;-inkscape-stroke:none"></path>
    <path id="path61" d="m 123.81641,95.529297 a 1.750175,1.750175 0 0 0 -1.46094,0.353515 c 0,0 -5.04989,4.061397 -8.38672,5.945318 -3.15725,1.78252 -8.71484,3.9746 -8.71484,3.9746 a 1.750175,1.750175 0 0 0 -0.97461,2.3125 l 2.46679,5.83204 a 1.750175,1.750175 0 0 0 1.77539,1.06054 c 0,0 3.13331,-0.30371 7.34571,-2.01953 1.16796,-0.47574 3.12785,-1.2778 4.18945,-1.87109 4.55878,-2.54772 8.15234,-5.45703 8.15234,-5.45703 a 1.750175,1.750175 0 0 0 0.45313,-2.16602 l -3.65039,-7.054687 a 1.750175,1.750175 0 0 0 -1.19531,-0.910156 z m -0.94532,4.384765 2.00196,3.871098 c -1.16763,0.89111 -3.35157,2.50275 -6.52344,4.27539 -0.50404,0.28168 -2.68788,1.23339 -3.80273,1.6875 -2.46178,1.00274 -4.05923,1.36672 -5.11915,1.55859 l -1.23828,-2.92969 c 1.75577,-0.71178 4.82761,-1.99316 7.5,-3.50195 2.77211,-1.56508 5.50364,-3.64557 7.18164,-4.960938 z" style="color:#000000;fill:#000000;stroke-linecap:round;stroke-linejoin:round;stroke-miterlimit:10;-inkscape-stroke:none"></path>
  </g>
  <g id="path56">
    <path id="path58" d="m 56.70511,122.39017 c 0,0 -5.72257,-1.24388 -11.88997,-3.53715 -1.09603,-0.40754 -3.73151,-1.67228 -5.16666,-2.38107 -5.03696,-2.48764 -7.77224,-4.8446 -7.77224,-4.8446 l 3.33906,-6.06113 c 0,0 6.90734,3.5132 11.65412,5.25866 5.0617,1.86126 13.29251,3.64027 13.29251,3.64027 z" style="color:#000000;fill:#b399ff;stroke-linecap:round;stroke-linejoin:round;stroke-miterlimit:10;-inkscape-stroke:none"></path>
    <path id="path59" d="m 36.007812,104.00586 a 1.750175,1.750175 0 0 0 -2.326171,0.7168 l -3.337891,6.06054 a 1.750175,1.750175 0 0 0 0.390625,2.16993 c 0,0 2.933752,2.51729 8.138672,5.08789 1.456751,0.71945 3.986385,1.95277 5.332031,2.45312 6.305091,2.34447 12.128906,3.60547 12.128906,3.60547 a 1.750175,1.750175 0 0 0 1.97461,-1.00977 l 3.457031,-7.92578 a 1.750175,1.750175 0 0 0 -1.234375,-2.41015 c 0,0 -8.234638,-1.79843 -13.058594,-3.57227 -4.549003,-1.67273 -11.464844,-5.17578 -11.464844,-5.17578 z m -0.06445,3.86523 c 1.84612,0.92267 6.302435,3.11756 10.322266,4.59571 4.149927,1.52598 9.071092,2.68079 11.455078,3.2207 l -2.027344,4.64648 c -1.599744,-0.37679 -5.407364,-1.31388 -10.267578,-3.12109 -0.846412,-0.31472 -3.588407,-1.61243 -5.001953,-2.31055 -3.41138,-1.6848 -5.230219,-2.96709 -6.28125,-3.76367 z" style="color:#000000;fill:#000000;stroke-linecap:round;stroke-linejoin:round;stroke-miterlimit:10;-inkscape-stroke:none"></path>
  </g>
  <path style="stroke-miterlimit:10" id="path57" stroke-linejoin="miter" stroke-linecap="butt" stroke-width="0.5" stroke="none" fill="#906bff" d="m 85.74397,161.53762 c -0.0188,-0.0656 -0.003,-0.12113 -0.003,-0.12113 0.47315,-1.63359 3.91469,-2.51348 6.61795,-2.80474 0.071,-0.0672 0.18497,-0.11073 0.31342,-0.11073 0.0908,0 0.1744,0.0218 0.24068,0.0583 0.4824,-0.0392 0.93001,-0.0583 1.31864,-0.0583 1.88813,0 3.16148,0.78363 3.9482,1.86448 0.0606,-0.0272 0.13265,-0.043 0.20997,-0.043 0.2153,0 0.38983,0.12232 0.38983,0.27322 0,0.0459 -0.0161,0.0891 -0.0447,0.12711 l -0.1782,0.24979 c 0.68286,1.29817 0.79664,2.8541 0.51561,4.00635 -1.53213,2.17735 -3.56304,3.33981 -6.7059,3.34154 -0.008,0.0102 -0.0157,0.0163 -0.0219,0.0176 -0.22003,0.0469 -0.43198,0.03 -0.63337,-0.0333 -0.49714,-0.0236 -1.02052,-0.0738 -1.57224,-0.15114 -5.54915,0.004 -6.25627,-3.94205 -4.39509,-6.61604 z m 1.39538,-0.83439 c 0.25419,0.19008 -0.0127,0.37717 -0.0127,0.37717 l -0.0677,0.0436 c -0.0519,0.0484 -0.1028,0.0974 -0.15269,0.14686 0.27293,0.063 0.62059,0.16701 1.05471,0.31914 0.80139,0.28084 1.44091,0.55293 2.07644,0.99836 l 0.16751,0.11741 c 4.5e-4,-0.0304 0.006,-0.0506 0.006,-0.0506 0.35136,-1.23 1.41702,-2.26827 1.90421,-3.4578 -1.80111,0.22496 -3.91863,0.71055 -4.9759,1.50592 z m 3.07654,6.90665 c 0.20148,0.0283 0.39844,0.0528 0.59102,0.0738 -0.34064,-0.36368 -0.61481,-0.80948 -0.79871,-1.17081 -0.26433,0.33791 -0.784,0.73456 -1.26943,0.97778 0.44016,0.0772 0.93147,0.11892 1.47712,0.11926 z m 4.0158,-8.5624 c -0.31388,0 -0.68815,0.0154 -1.10028,0.0469 l 0.0308,0.15123 -0.12957,0.013 c 0.20983,0.71526 0.13349,1.42101 0.13349,2.21147 0,0.3062 -0.39702,0.69683 -0.0924,0.9163 0.15231,0.10972 1.29649,-0.22043 1.37581,-0.23428 1.21076,-0.21151 2.33553,-0.7044 3.16471,-1.37375 -0.6562,-0.99509 -1.7393,-1.73086 -3.38261,-1.73086 z m 1.04948,4.78775 c 0.80825,-0.0357 2.28121,0.11329 3.14341,0.37471 0.0716,-0.79404 -0.0324,-1.7344 -0.37559,-2.59357 -0.6553,0.85767 -1.7575,1.61989 -2.76782,2.21887 z m 0.6095,2.48878 c 0.11539,0.13549 0.2308,0.27097 0.34619,0.40646 l 0.003,0.0104 0.004,-0.001 0.0382,0.0536 c 0.5704,-0.35458 1.07867,-0.80448 1.54816,-1.34837 -1.52114,0.0781 -3.51637,-1.05428 -1.93936,0.87923 z m -2.76747,0.008 c -0.22409,-0.0178 -0.12306,0.30418 -0.17937,0.45725 -0.0315,0.0856 -0.18976,0.57563 -0.33867,0.9819 1.12802,-0.0236 2.07837,-0.2158 2.90404,-0.57372 -0.85241,-0.25067 -1.47125,-0.7927 -2.38601,-0.86543 z m -4.50135,-0.58517 c 0.13705,-0.12305 0.60597,-0.23319 0.45117,-0.34542 -0.59924,-0.43448 -2.09538,-0.54199 -2.88664,-0.76362 l -0.51134,-0.14336 c -0.0356,-0.009 -0.0688,-0.0222 -0.0986,-0.038 0.0423,1.06986 0.59411,2.05528 1.82941,2.63027 0.18101,-0.5032 0.98998,-1.13696 1.21598,-1.33987 z m -2.81045,-1.78168 c 0.021,0 0.0417,0.001 0.0618,0.003 l 0.72104,0.0722 -0.0157,0.0769 c 0.66989,0.008 1.3043,0.0672 2.03963,0.0661 0.18101,-2.7e-4 0.64252,0.20234 0.52042,0.10869 -0.62311,-0.47794 -2.13763,-1.63501 -2.77913,-2.39196 -0.43633,0.65943 -0.71054,1.39566 -0.77231,2.1144 0.0634,-0.0313 0.14078,-0.0497 0.22427,-0.0497 z"></path>
</svg>


