<svg version="1.1" xmlns="http://www.w3.org/2000/svg" xmlns:xlink="http://www.w3.org/1999/xlink" width="138.39603" height="134.12794" viewBox="0,0,138.39603,134.12794"><defs><linearGradient x1="273.37525" y1="211.39439" x2="273.37525" y2="262.07303" gradientUnits="userSpaceOnUse" id="color-1"><stop offset="0" stop-color="#272640"/><stop offset="1" stop-color="#020203"/></linearGradient></defs><g transform="translate(-250.80199,-163.41847)"><g stroke-miterlimit="10"><path d="" fill="none" stroke="#000000" stroke-width="2.5" stroke-linecap="round" stroke-linejoin="miter"/><path d="M270.399,211.39451c2.71993,0.00671 5.39576,0.30086 7.52848,0.97271c6.71975,2.11687 14.40029,11.0961 14.31738,21.71204c-0.04508,5.77469 -0.65172,11.15204 -2.39723,15.4272c-1.74551,4.27516 -4.53092,7.58206 -9.47652,9.86493c-4.96289,2.29087 -11.60615,3.28249 -16.69424,2.35771c-2.54404,-0.46239 -4.69513,-1.38535 -6.19819,-2.66244c-1.50306,-1.27708 -2.48471,-2.88048 -2.79775,-5.28011c-0.90139,-6.90952 1.78441,-10.73721 5.23375,-14.8042c3.44935,-4.06698 8.13142,-8.34423 8.12338,-14.92867c-0.00705,-5.76962 -4.68781,-8.41877 -8.07041,-10.07244c-0.18883,-0.09231 -2.37948,-1.98932 -2.566,-2.07273c0.7895,-0.22762 4.13382,0.42713 5.0655,0.24212c2.40107,-0.47681 5.21193,-0.76279 7.93185,-0.75616z" fill="url(#color-1)" stroke="none" stroke-width="0.5" stroke-linecap="butt" stroke-linejoin="miter"/><path d="M371.76871,210.57456c5.08455,-1.01924 7.76969,-8.78395 8.92016,-7.61288c0.47175,0.48019 0.15332,6.97432 1.4542,10.41792c1.54564,4.09151 4.39001,6.43026 4.39001,6.43026c0,0 -6.7027,2.49457 -9.32669,4.55937c-3.36025,2.29242 -5.89906,7.42155 -5.89906,7.42155" fill="#d03365" stroke="none" stroke-width="1" stroke-linecap="butt" stroke-linejoin="round"/><path d="M380.68351,200.18745c0.74442,0.06381 1.48561,0.4789 1.90619,0.907c1.16357,1.18437 0.80661,1.48532 0.87132,1.86753c0.06471,0.38223 0.09665,0.73775 0.12787,1.13895c0.06243,0.8024 0.10667,1.75635 0.17545,2.7805c0.13756,2.04827 0.44196,4.42142 0.87132,5.55799c1.28237,3.39458 3.58935,5.31117 3.58935,5.31117c0.7365,0.60522 1.09362,1.55778 0.93651,2.49801c-0.15711,0.94024 -0.80453,1.72493 -1.69779,2.05782c0,0 -1.60948,0.60052 -3.53582,1.44823c-1.92633,0.84771 -4.21793,2.03605 -5.07327,2.7091c-0.04734,0.03732 -0.09594,0.07304 -0.14571,0.10705c-2.34793,1.60179 -5.01379,6.40255 -5.01379,6.40255l-4.77589,-2.36416c0,0 2.3905,-5.37219 6.70588,-8.36821c1.7625,-1.37087 4.09658,-2.45719 6.15571,-3.36334c0.23976,-0.10551 0.2115,-0.08359 0.44012,-0.18141c-0.89535,-1.21017 -1.85899,-2.49402 -2.56935,-4.37442c-0.67908,-1.79766 -0.78748,-3.70429 -0.93972,-5.51933c-1.49623,1.82173 -3.39473,3.77684 -6.42038,4.38336l-1.04677,-5.22493c1.3524,-0.27111 2.98327,-1.83088 4.33281,-3.61908c0.67476,-0.8941 1.24372,-1.76215 1.91809,-2.55449c0.33719,-0.39617 0.64321,-0.80888 1.44227,-1.23114c0.39954,-0.21114 1.0012,-0.43256 1.74562,-0.36875z" fill="#120b0b" stroke="none" stroke-width="1" stroke-linecap="butt" stroke-linejoin="round"/><path d="M279.5542,208.1542c9.06065,2.90675 17.1119,13.20365 17.01598,25.71128c-0.04452,5.80969 -0.57532,11.49396 -2.60802,16.56396c-2.03268,5.06999 -5.71148,9.48193 -11.49663,12.20141c-5.68138,2.67066 -12.63678,3.79959 -18.78536,2.66152c-3.07429,-0.56903 -5.97807,-1.7313 -8.29388,-3.73506c-2.31581,-2.00377 -3.95318,-4.89412 -4.39822,-8.36821c-1.06346,-8.30155 2.62669,-13.96457 6.09922,-18.13411c3.47254,-4.16954 6.31482,-6.99637 6.31037,-10.70561c-0.00408,-3.39887 -1.66976,-4.7068 -3.78562,-5.76021c-1.05793,-0.52669 -2.19412,-0.86778 -3.08975,-1.08543c-0.44782,-0.10882 -0.82913,-0.1874 -1.15978,-0.25873c-0.16534,-0.03566 -0.30885,-0.06616 -0.51745,-0.1249c-0.1043,-0.02937 -0.21656,-0.05895 -0.43715,-0.15463c-0.22059,-0.09568 -0.68717,0.02317 -1.34713,-1.23709c-0.68694,-1.31181 -0.21777,-3.13011 0.47284,-3.99379c0.69061,-0.86368 1.47212,-1.34504 2.34929,-1.80509c1.75434,-0.92008 3.99298,-1.6112 6.58395,-2.13517c2.59097,-0.52396 5.50178,-0.87108 8.44554,-0.86834c2.94375,0.00276 5.92114,0.35535 8.6418,1.22817zM263.52255,213.01633c-0.87056,0.17606 -1.2666,0.41682 -2.00432,0.63342c0.17429,0.07936 0.2934,0.07869 0.46985,0.16654c3.16071,1.57357 6.732,5.037 6.7386,10.52718c0.00751,6.26552 -4.32142,10.25247 -7.54448,14.12248c-3.22306,3.87001 -5.75197,7.47327 -4.90971,14.04813c0.29252,2.28341 1.19761,3.79857 2.60207,5.01379c1.40445,1.21523 3.39792,2.08474 5.77508,2.52473c4.75433,0.88 10.91255,-0.06529 15.54989,-2.2452c4.62117,-2.17232 7.18625,-5.29334 8.81726,-9.36146c1.631,-4.06811 2.18228,-9.12708 2.22439,-14.62206c0.07747,-10.10178 -7.03765,-18.58205 -13.31659,-20.59639c-1.99282,-0.63931 -4.47066,-0.91845 -7.01217,-0.92484c-2.54151,-0.00632 -5.14627,0.25999 -7.38985,0.71371z" fill="#0a0a11" stroke="none" stroke-width="1" stroke-linecap="round" stroke-linejoin="miter"/><path d="M358.99845,245.86471c-11.4367,17.55713 -8.62214,47.45064 -25.32447,44.59912c-8.42625,-1.43857 1.79378,-16.109 -2.24572,-15.74458c-4.0395,0.36441 -9.97418,22.02638 -19.57596,20.04208c-8.64693,-1.78697 1.94914,-21.19935 1.08756,-21.5957c-5.17397,-2.38021 -13.99854,-4.76854 -21.12351,-5.59802l-0.31685,1.40316c0,0 -5.06833,12.92662 -10.81325,13.50759c-2.29178,0.23177 -4.4125,-2.16595 -4.4125,-2.16595l-0.34993,-0.68589c-2.46581,4.05539 -5.70329,7.50503 -9.74877,6.90049c-11.05527,-1.65204 1.56221,-30.44494 5.12704,-51.11502c0,0 30.34437,-1.53699 45.10202,0.59871c15.03882,2.17638 42.59434,9.85403 42.59434,9.85403z" fill="#d03365" stroke="#000000" stroke-width="0" stroke-linecap="round" stroke-linejoin="round"/><path d="M313.90237,201.4762c0,0 -7.3703,-5.11722 -8.40238,-15.92872c-0.88107,-9.22965 4.54087,-20.48272 6.10416,-19.4065c1.83087,1.26042 1.28166,14.04697 17.59687,21.45582" fill="#ffefef" stroke="none" stroke-width="1" stroke-linecap="round" stroke-linejoin="round"/><path d="M313.11628,163.946c1.12109,0.77178 1.31948,1.53949 1.57908,2.19465c0.2596,0.65516 0.45231,1.3147 0.681,2.05488c0.45738,1.48035 1.02087,3.25274 1.98054,5.18032c1.91931,3.85519 5.32295,8.33284 12.94487,11.794c0.64432,0.29183 1.14616,0.82785 1.39494,1.48998c0.24877,0.66212 0.22409,1.396 -0.06862,2.0399c-0.29238,0.64378 -0.82865,1.14496 -1.49071,1.39316c-0.66208,0.24821 -1.39564,0.22307 -2.03917,-0.06983c-8.69329,-3.94769 -13.16863,-9.56575 -15.51123,-14.27116c-0.86223,-1.73188 -1.25987,-3.07629 -1.69505,-4.40417c-0.26848,0.57573 -0.50049,0.87639 -0.76129,1.57016c-1.3279,3.53219 -2.35923,8.37872 -1.97757,12.37688c0.92559,9.69609 7.26792,13.99164 7.26792,13.99164c0.58048,0.40303 0.97708,1.02014 1.10257,1.71558c0.12549,0.69544 -0.03044,1.41225 -0.43346,1.99273c-0.40303,0.58048 -1.02014,0.97708 -1.71558,1.10256c-0.69544,0.12548 -1.41223,-0.03044 -1.99273,-0.43346c0,0 -8.39539,-5.93658 -9.53394,-17.86349c-0.4994,-5.23151 0.73915,-10.62617 2.29278,-14.75887c0.77682,-2.06635 1.62125,-3.79563 2.52473,-5.12085c0.45173,-0.66261 0.88395,-1.2317 1.59097,-1.76346c0.35351,-0.26587 0.79453,-0.54702 1.48095,-0.68694c0.68642,-0.13991 1.68657,-0.0009 2.37902,0.4758z" fill="#120b0b" stroke="none" stroke-width="1" stroke-linecap="round" stroke-linejoin="round"/><path d="M312.90012,229.87739c0,0 -4.12036,-5.12913 -9.57388,-7.42155c-4.25863,-2.06479 -15.13676,-4.55937 -15.13676,-4.55937c0,0 4.61626,-2.33875 7.12477,-6.43026c2.11126,-3.44359 1.59447,-9.93773 2.3601,-10.41792c1.86716,-1.17107 6.22499,6.59363 14.47696,7.61288" fill="#d03365" stroke="none" stroke-width="1" stroke-linecap="butt" stroke-linejoin="round"/><path d="M297.8697,198.29909c0.54377,-0.03567 1.05916,0.03689 1.44824,0.16357c0.77814,0.25337 1.29894,0.60979 1.80806,0.97836c1.01825,0.73714 1.96694,1.62071 3.07786,2.52772c2.22185,1.81403 4.90738,3.63162 8.27305,4.04732l-0.65125,5.29035c-4.88632,-0.60353 -8.50425,-3.1797 -10.99109,-5.21005c-0.50766,-0.41446 -0.74082,-0.60283 -1.15681,-0.95459c-0.01206,0.11626 -0.01664,0.17191 -0.02974,0.29144c-0.24191,2.21953 -0.56445,4.98485 -2.06084,7.42552c-0.95313,1.55461 -2.10053,2.77695 -3.24736,3.84213c0.27265,0.07238 0.23554,0.05442 0.51745,0.13085c3.28721,0.89133 7.02178,1.97799 9.57258,3.20574c6.27794,2.66942 10.54799,8.17195 10.54799,8.17195c0,0 -1.35821,4.19782 -2.12523,4.81383c-0.4998,0.40141 -2.02914,-1.47726 -2.02914,-1.47726c0,0 -3.94216,-4.70649 -8.5288,-6.63451c-0.04415,-0.01865 -0.08778,-0.03848 -0.13085,-0.05947c-1.70696,-0.82763 -5.50528,-2.01202 -8.70127,-2.87861c-3.19599,-0.86659 -5.86727,-1.48095 -5.86727,-1.48095c-1.09234,-0.25159 -1.91045,-1.15988 -2.04686,-2.27249c-0.13641,-1.11261 0.43803,-2.19164 1.43723,-2.69968c0,0 4.07395,-2.21255 6.0576,-5.44796c0.61488,-1.0029 1.08659,-3.20753 1.3055,-5.21601c0.10946,-1.00423 0.18166,-1.94967 0.28845,-2.79536c0.0534,-0.42285 0.1053,-0.81479 0.23196,-1.27575c0.12666,-0.46096 0.09079,-1.18135 1.38876,-1.99541c0.49621,-0.31123 1.06803,-0.45499 1.6118,-0.49067z" fill="#120b0b" stroke="none" stroke-width="1" stroke-linecap="butt" stroke-linejoin="round"/><path d="M358.55977,187.25593c12.12227,-7.40885 13.57887,-20.97131 13.57887,-20.97131c0,0 5.69882,10.03321 5.04418,19.26286c-0.76684,10.8115 -6.243,15.92872 -6.243,15.92872" fill="#ffefef" stroke="none" stroke-width="1" stroke-linecap="round" stroke-linejoin="round"/><path d="M374.45642,164.96897c0,0 6.12701,10.31175 5.38553,20.7659c-0.413,5.82266 -2.11146,10.19981 -3.74103,13.12626c-1.62955,2.92645 -3.34252,4.56177 -3.34252,4.56177c-1.07512,1.00383 -2.76028,0.9466 -3.7648,-0.12787c-1.00383,-1.07512 -0.9466,-2.76029 0.12787,-3.76481c0,0 1.02526,-0.92422 2.32549,-3.25925c1.30023,-2.33504 2.72401,-5.92195 3.07786,-10.9108c0.26511,-3.73775 -0.77121,-7.79571 -1.92105,-11.12491c-1.96047,4.87902 -5.58873,10.97635 -12.65344,15.29414c-0.60294,0.3688 -1.3277,0.48295 -2.01479,0.3173c-0.68711,-0.16564 -1.28024,-0.59749 -1.6489,-1.20052c-0.36881,-0.60292 -0.48295,-1.3277 -0.3173,-2.01479c0.16564,-0.68711 0.5975,-1.28024 1.20052,-1.6489c10.96874,-6.70382 12.32036,-18.98164 12.32036,-18.98164c0.12286,-1.14989 0.97338,-2.08929 2.10545,-2.32549c1.13334,-0.23598 2.2894,0.28678 2.86077,1.2936z" fill="#120b0b" stroke="none" stroke-width="1" stroke-linecap="round" stroke-linejoin="round"/><path d="M308.44407,214.35342c0.28987,-18.08178 17.16044,-29.6999 35.76614,-30.45149c12.99437,-0.52492 23.59792,8.58454 29.17484,22.97447c4.13988,10.68198 3.00034,18.82452 3.00034,18.82452c0,0 4.40364,0.00457 4.16554,4.4528c-0.33771,6.3094 -10.72028,15.26917 -31.45698,15.94395c-21.44453,0.69781 -40.93974,-13.66248 -40.64988,-31.74426z" fill="#d03365" stroke="none" stroke-width="1" stroke-linecap="round" stroke-linejoin="round"/><path d="M375.86896,205.91495c3.48324,8.98765 3.34811,15.13793 3.17897,17.79213c0.35464,0.11698 0.36295,-0.00903 0.74047,0.18734c1.73292,0.90139 3.58872,3.30288 3.42281,6.40255c-0.24314,4.54277 -3.6675,8.83316 -9.37634,12.23115c-5.7088,3.39799 -13.91856,5.88366 -24.65561,6.23304c-11.34232,0.36907 -22.13951,-3.21513 -30.18089,-9.37931c-8.04137,-6.16418 -13.37891,-15.06252 -13.21845,-25.07192c0.15806,-9.8601 4.92023,-18.09376 12.01408,-23.76348c7.09384,-5.66972 16.48539,-8.9111 26.30903,-9.30793c14.29502,-0.57747 25.91467,9.57869 31.76591,24.67642zM321.12169,194.70974c-6.06533,4.84768 -9.88092,11.46475 -10.01273,19.68642c-0.1294,8.07236 4.13597,15.39502 11.13086,20.75698c6.99489,5.36198 16.66477,8.61071 26.76698,8.28199c9.99965,-0.32539 17.35005,-2.65869 22.10114,-5.48663c4.75107,-2.82794 6.68864,-6.17039 6.78319,-7.93702c0.07219,-1.34858 -0.15265,-1.17581 -0.56204,-1.38876c-0.40937,-0.21295 -0.94567,-0.25872 -0.94567,-0.25872c-0.77076,-0.00041 -1.5036,-0.33454 -2.00939,-0.91616c-0.50577,-0.58161 -0.73493,-1.35374 -0.62835,-2.11709c0,0 1.06956,-7.38883 -2.84592,-17.49177c-5.30261,-13.68213 -14.88888,-21.74682 -26.58261,-21.27442c-8.78206,0.35474 -17.13014,3.2975 -23.19547,8.14518z" fill="#120b0b" stroke="none" stroke-width="1" stroke-linecap="round" stroke-linejoin="round"/><path d="M359.66781,227.96552c0.72806,-0.17313 1.35293,-0.06296 1.80507,0.07435c0.9043,0.2746 1.37828,0.65218 1.87348,1.01108c0.9904,0.7178 1.91473,1.507 2.79833,2.01622c0.8836,0.50923 1.53657,0.67327 2.08759,0.57395c0.55102,-0.09932 1.41312,-0.47727 2.66152,-2.29278c0.40022,-0.58251 1.01548,-0.98212 1.71038,-1.11096c0.6949,-0.12884 1.41251,0.02369 1.99495,0.42401c0.58249,0.40024 0.98212,1.01548 1.11095,1.71038c0.12883,0.6949 -0.02369,1.41251 -0.42401,1.99494c-1.75842,2.55724 -3.86072,4.11506 -6.10813,4.52014c-2.24741,0.40508 -4.22696,-0.35717 -5.69183,-1.2014c-1.21543,-0.70048 -2.02978,-1.3955 -2.71209,-1.92405c-3.04856,3.65216 -6.29355,6.34886 -10.16438,6.90512c-4.4144,0.63438 -8.83301,-1.49278 -13.08463,-5.67397c-1.04937,-1.03145 -1.06402,-2.71827 -0.0327,-3.76778c0.49584,-0.50443 1.17191,-0.79102 1.87922,-0.7966c0.7073,-0.00559 1.38781,0.27032 1.89154,0.76688c3.61776,3.55783 6.28353,4.52721 8.58828,4.196c2.30475,-0.33121 4.99147,-2.23595 7.9846,-6.2152c0.39497,-0.52508 1.10378,-1.03718 1.83186,-1.21033z" fill="#120b0b" stroke="none" stroke-width="1" stroke-linecap="round" stroke-linejoin="round"/><path d="M365.87113,226.31805c0.44334,0.55047 0.6498,1.25454 0.57395,1.95726c-0.07585,0.70271 -0.42778,1.34652 -0.97839,1.7897c-0.55047,0.44334 -1.25454,0.6498 -1.95727,0.57397c-0.70273,-0.07584 -1.34652,-0.4278 -1.7897,-0.97839c-0.24839,-0.3085 -0.42125,-0.36227 -0.93376,-0.30333c-0.51251,0.05892 -1.20285,0.4112 -1.59394,0.86537c-0.46085,0.53613 -1.1159,0.86714 -1.82089,0.92012c-0.705,0.05299 -1.40215,-0.17639 -1.93796,-0.63761c-0.5357,-0.46128 -0.86613,-1.11653 -0.91857,-1.82152c-0.05242,-0.70498 0.17746,-1.4019 0.63902,-1.93734c1.30049,-1.51024 3.07058,-2.45788 5.02272,-2.68235c1.95214,-0.22446 4.24506,0.45336 5.69478,2.25413z" fill="#120b0b" stroke="none" stroke-width="1" stroke-linecap="round" stroke-linejoin="miter"/><path d="M353.10468,201.01119c1.46715,0.10162 2.57454,1.37271 2.47418,2.83995c-0.56693,8.19289 -0.09516,18.67831 -0.09516,18.67831c0.06724,1.46989 -1.06973,2.71603 -2.53961,2.78347c-1.46989,0.06724 -2.71603,-1.06973 -2.78345,-2.53961c0,0 -0.50093,-10.58776 0.10111,-19.28794c0.04878,-0.70513 0.37574,-1.362 0.90893,-1.82602c0.53319,-0.46402 1.22889,-0.69719 1.93401,-0.64816z" fill="#ffffff" stroke="none" stroke-width="1" stroke-linecap="round" stroke-linejoin="miter"/><path d="M347.87976,206.78626c1.95197,3.06714 5.71561,5.5223 5.71561,5.5223c0.6002,0.37305 1.02763,0.96924 1.18825,1.65744c0.16062,0.6882 0.04128,1.41201 -0.3318,2.0122c-0.77671,1.24805 -2.41745,1.63129 -3.66668,0.85645c0,0 -4.54671,-2.7015 -7.40174,-7.18762c-0.3794,-0.59624 -0.50638,-1.31878 -0.35301,-2.00866c0.15337,-0.68988 0.57451,-1.29057 1.1708,-1.66991c0.59654,-0.38013 1.31978,-0.50743 2.01029,-0.35388c0.68942,0.15396 1.28948,0.57541 1.66829,1.17167z" fill="#ffffff" stroke="none" stroke-width="1" stroke-linecap="round" stroke-linejoin="miter"/><path d="M366.23986,199.24177c1.46988,0.06743 2.60685,1.31357 2.53961,2.78347c0,0 -0.47183,10.48247 0.09516,18.67534c0.04903,0.70512 -0.18416,1.40083 -0.64816,1.93401c-0.46402,0.53319 -1.12089,0.86013 -1.82602,0.90892c-0.70512,0.04903 -1.40081,-0.18414 -1.93401,-0.64816c-0.53319,-0.46402 -0.86015,-1.12089 -0.90893,-1.82602c-0.6021,-8.70021 -0.10408,-19.28794 -0.10408,-19.28794c0.03237,-0.7064 0.34422,-1.37096 0.86686,-1.84731c0.52264,-0.47635 1.2132,-0.7254 1.91957,-0.6923z" fill="#ffffff" stroke="none" stroke-width="1" stroke-linecap="round" stroke-linejoin="miter"/><path d="M373.1697,206.44202c0.33185,0.62409 0.40213,1.35447 0.19536,2.03037c0,0 -1.32729,4.7374 -4.23466,8.30577c-0.44625,0.54836 -1.09216,0.89689 -1.79548,0.96883c-0.70332,0.07196 -1.40642,-0.13858 -1.95447,-0.58522c-0.54791,-0.44668 -0.89585,-1.0928 -0.96725,-1.79611c-0.07139,-0.70331 0.13962,-1.40616 0.5866,-1.95383c1.85536,-2.27719 3.26818,-6.50068 3.26818,-6.50068c0.43138,-1.40649 1.921,-2.19724 3.32766,-1.76643c0.67599,0.20654 1.24219,0.67321 1.57404,1.29729z" fill="#ffffff" stroke="none" stroke-width="1" stroke-linecap="round" stroke-linejoin="miter"/><path d="M293.97999,269.94339c0,0 -1.32718,3.40219 -3.44958,6.93486c-1.0612,1.76632 -2.3199,3.58914 -3.83914,5.12085c-1.51924,1.53171 -3.3551,2.89056 -5.73641,3.13139c-4.28581,0.43342 -6.67614,-3.05407 -6.67614,-3.05407c-0.97381,-1.10154 -0.87134,-2.78366 0.22898,-3.75886c0.52917,-0.46859 1.22283,-0.70774 1.92834,-0.66479c0.70552,0.04295 1.36505,0.36444 1.83347,0.89377c0,0 1.85227,1.31182 2.15004,1.2817c0.49115,-0.04967 1.44223,-0.52663 2.48906,-1.58205c1.04683,-1.05542 2.13007,-2.5748 3.05407,-4.11273c1.848,-3.07591 3.05706,-6.13491 3.05706,-6.13491c0.5373,-1.36951 2.08282,-2.04444 3.45255,-1.50771c1.36951,0.53729 2.04444,2.08282 1.5077,3.45256z" fill="#120b0b" stroke="none" stroke-width="1" stroke-linecap="round" stroke-linejoin="miter"/><path d="M318.58803,232.62245c1.44774,0.26362 2.40768,1.65094 2.14411,3.09868c-0.26362,1.44774 -1.65094,2.40768 -3.09868,2.14409c-8.49263,-1.54866 -18.44391,-2.315 -26.74022,-2.15301c-4.14816,0.08099 -7.89071,0.39741 -10.77102,0.92783c-2.8803,0.53042 -4.89815,1.44977 -5.32307,1.83482c0.00076,-0.00069 -0.79273,1.03809 -1.5315,2.53663c-0.73877,1.49855 -1.58121,3.50826 -2.42959,5.82565c-1.69674,4.63476 -3.43047,10.50866 -4.66586,16.25169c-1.23539,5.74303 -1.9548,11.39982 -1.73966,15.39526c0.10757,1.99771 0.47471,3.55928 0.89809,4.40417c0.42338,0.84489 0.59428,0.92921 1.08246,1.00216c1.31392,0.19634 2.42682,-0.2513 3.80942,-1.48689c1.3826,-1.23558 2.78453,-3.23442 3.97891,-5.38552c1.19437,-2.15109 2.20175,-4.43554 3.00946,-6.28658c0.40386,-0.92551 0.75413,-1.73881 1.08841,-2.4266c0.16713,-0.34389 0.32531,-0.65501 0.52339,-0.97539c0.19807,-0.32038 0.32236,-0.6574 1.05866,-1.1687c2.03743,-1.41478 4.36423,-1.56618 7.08057,-1.5642c2.71633,0.00192 5.82195,0.35251 9.04327,0.91889c6.44265,1.13278 13.27328,3.10554 17.89323,5.23088c1.2002,0.55213 1.5267,1.72384 1.58205,2.2125c0.05535,0.48864 0.00151,0.72861 -0.03569,0.94566c-0.07439,0.43409 -0.17086,0.72609 -0.28548,1.07057c-0.22922,0.68895 -0.5447,1.49345 -0.91295,2.44445c-0.7365,1.90197 -1.67587,4.34808 -2.36119,6.75346c-0.68533,2.40538 -1.05948,4.79467 -0.89808,6.2152c0.0807,0.71027 0.26755,1.1248 0.42227,1.3263c0.15471,0.2015 0.26683,0.32145 0.82671,0.43715c1.40622,0.29061 2.61693,-0.18263 4.22871,-1.62072c1.6118,-1.43807 3.29458,-3.78747 4.83239,-6.30144c1.53782,-2.51397 2.94495,-5.17031 4.30007,-7.35118c0.67756,-1.09044 1.33254,-2.06318 2.09949,-2.90539c0.76695,-0.84221 1.68439,-1.75714 3.33657,-1.90619c0.62576,-0.05644 1.4305,0.01157 2.1887,0.45796c0.7582,0.44639 1.27481,1.22828 1.48689,1.86159c0.42414,1.2666 0.21351,2.08894 0.05055,2.9381c-0.32591,1.69831 -0.96566,3.49407 -1.43038,5.26656c-0.46474,1.77249 -0.67312,3.47467 -0.52637,4.27035c0.14675,0.79568 -0.1122,0.75722 1.16573,0.97541c3.42654,0.585 5.10419,-0.25497 6.91107,-2.39091c1.80689,-2.13594 3.35458,-5.86307 4.72533,-10.39929c2.74147,-9.07245 4.85557,-21.19405 11.00596,-30.63587c0.38558,-0.59242 0.99075,-1.00735 1.68232,-1.15347c0.69157,-0.14612 1.41287,-0.01146 2.00516,0.37434c0.59193,0.38606 1.00625,0.99144 1.15181,1.68299c0.14556,0.69154 0.01043,1.41258 -0.37565,2.0045c-5.2863,8.11529 -7.48356,19.71723 -10.36956,29.26794c-1.44301,4.77536 -3.03693,9.08677 -5.75724,12.30253c-2.72031,3.21574 -6.95264,5.04272 -11.87729,4.20196c-2.93519,-0.50111 -5.07732,-2.91537 -5.51041,-5.26359c-0.24273,-1.31604 -0.16185,-2.57533 0.02677,-3.79752c-0.59897,1.04704 -1.07029,1.88359 -1.74263,2.98271c-1.65102,2.69902 -3.50389,5.41708 -5.83158,7.49393c-2.32771,2.07684 -5.46125,3.56528 -8.85592,2.86374c-1.60186,-0.33104 -3.04871,-1.20803 -3.97296,-2.41173c-0.92425,-1.2037 -1.33451,-2.60287 -1.48985,-3.97001c-0.3107,-2.73426 0.28947,-5.5554 1.06461,-8.27602c0.77514,-2.72063 1.78105,-5.31516 2.51878,-7.22034c0.11272,-0.29109 0.15462,-0.41589 0.25278,-0.67208c-3.96645,-1.56426 -9.28789,-3.1492 -14.44662,-4.05623c-3.00843,-0.52896 -5.87677,-0.83708 -8.12437,-0.8386c-2.11198,-0.00149 -3.47896,0.43022 -3.79455,0.57692c-0.02931,0.05736 -0.03826,0.06571 -0.07136,0.13382c-0.24795,0.51018 -0.59345,1.29758 -0.99919,2.22736c-0.81144,1.85957 -1.87977,4.30526 -3.23249,6.74155c-1.35272,2.43629 -2.97109,4.87935 -5.08814,6.7713c-2.11705,1.89194 -4.98522,3.25907 -8.14815,2.78642c-2.27564,-0.34005 -4.1085,-1.99112 -5.05839,-3.88672c-0.94989,-1.89561 -1.32338,-4.07721 -1.45418,-6.50663c-0.26162,-4.85884 0.55629,-10.78912 1.84969,-16.80186c1.29341,-6.01273 3.07878,-12.06674 4.87105,-16.96243c0.89614,-2.44786 1.79034,-4.6029 2.65262,-6.35199c0.86228,-1.7491 1.53317,-3.03774 2.73588,-4.12761c1.97897,-1.79333 4.62578,-2.51919 7.93405,-3.12842c3.30827,-0.60923 7.28226,-0.92911 11.63343,-1.01407c8.70232,-0.16992 18.89344,0.61532 27.79889,2.23925z" fill="#120b0b" stroke="none" stroke-width="1" stroke-linecap="round" stroke-linejoin="miter"/></g></g></svg>